<svg viewBox="0 0 52 57" xmlns="http://www.w3.org/2000/svg" fill-rule="evenodd" clip-rule="evenodd" stroke-linejoin="round" stroke-miterlimit="1.414"><g fill-rule="nonzero"><path fill="#0e4096" d="M-.024.002h52.049v57H-.024z"/><path fill="#0e4096" d="M.798.703h50.405v55.594H.798z"/><path d="M2.953 40.397V26.831l1.554-1.72 3.483 3.81v9.39l-3.483 3.862-1.554-1.776zm4.095 4.54l-1.6-1.72 3.483-3.862h10.026l3.434 3.861-1.55 1.72H7.047zm17.887-37.2v13.565l-1.603 1.722-3.433-3.81v-9.39l3.433-3.86 1.603 1.773zm-5.036 19.094H7.989l-2.542-2.764 2.543-2.765h11.909l2.492 2.765-2.492 2.764zm-.942-18.05L8.94 8.798 5.444 4.952l1.595-1.73 13.801-.025 1.55 1.723-3.433 3.861zM44.37 28.92l3.44-3.81 1.597 1.723v13.563l-1.598 1.777-3.438-3.861V28.92zM27.428 40.396V26.833l1.554-1.723 3.482 3.81v9.392l-3.482 3.86-1.554-1.776zm4.095 4.54l-1.6-1.72 3.483-3.86H43.43l3.437 3.86-1.552 1.72H31.522zm17.885-37.2v13.566l-1.598 1.723-3.438-3.81V9.823l3.438-3.86 1.598 1.773zM32.463 19.215l-3.482 3.81-1.554-1.723V7.736l1.554-1.774 3.482 3.861v9.392zM43.43 8.78H33.405l-3.482-3.861 1.599-1.722h13.792l1.552 1.722-3.437 3.86z" fill="#001"/><path d="M2.418 39.862V26.296l1.554-1.72 3.482 3.807v9.392l-3.482 3.86-1.554-1.773zm4.095 4.54l-1.6-1.723 3.483-3.86H18.42l3.436 3.86-1.553 1.722H6.513zM24.398 7.2v13.564l-1.6 1.724-3.436-3.808V9.288l3.435-3.86L24.398 7.2zm-5.036 19.095H7.454l-2.54-2.764 2.54-2.767h11.908l2.494 2.767-2.494 2.764zM18.42 8.244l-10.014.02L4.91 4.416l1.593-1.728 13.8-.027 1.553 1.723-3.436 3.86zM43.837 28.383l3.434-3.809 1.601 1.722v13.566l-1.6 1.774-3.435-3.861v-9.392zm-16.945 11.48V26.295l1.554-1.722 3.482 3.81v9.39l-3.482 3.862-1.554-1.774zm4.095 4.538l-1.601-1.722 3.484-3.86h10.026l3.433 3.86-1.55 1.722H30.987zm17.885-37.2v13.564l-1.6 1.724-3.435-3.811v-9.39l3.434-3.86L48.872 7.2zM31.928 18.678l-3.482 3.81-1.554-1.723V7.201l1.554-1.774 3.482 3.861v9.39zM42.896 8.244H32.87l-3.484-3.859 1.6-1.723H44.78l1.55 1.723-3.433 3.86zM2.862 53.99l.787-.044v.126h.386l.271-.04.772-.086v-.222l.118-.361-.22-.226-.284-.07.054-.054v-.127l-.091-.167v-1.48l-.118-.725.155-.417h.116l.05-.393.22-.293.325-.193.076-.058.039.058.321.11.272.083.064.168.116.125.05-.069.04.07v.097l-.31.376.04.044v.377l.116.168.064.053-.064.07-.207.519.207.417-.116.251.064.041-.103.126.039.18.116.295-.116.251h-.04l.04.043-.155.124-.167.17-.039-.045-.18.1-.167.07-.04.223.116.25.271.126.04-.125.771.125.106-.125h.18l.361.04v.085l.064-.125.942.04h.747l.347.085.271-.125.156-.349-.066-.295-.27-.125v.056l-.052.07-.309-.07-.118-.348v-1.367l-.166-.49.166-.643.041-.347.077-.713-.118-.125-.077-.474-.152-.112.063-.058-.27-.122-.452-.168-.272.042-.488.18v.126l-.064.043-.207.124-.232-.055-.102.125H6.56l-.541-.671-.18.086-.09-.126-.077.04H5.48l-.283.254-.064-.07-.054.192-.332.225-.091-.124-.079.069-.102-.17-.44-.248h-.153l-.116-.128-.052.086-.115-.126-.273.04-.424.434.04.043.063.194h.089l.078.057v.04l.388.252.206-.126.22.251.05.225.066.069-.117.293-.103.418.154.224v.418l-.05.477-.065.292v.963l-.091.18.052.042-.116.182h-.167l-.22-.055-.285.25-.102.07-.118-.124-.191.36.18.421zm5.08-4.58l.09.1h.064l.054-.057.102.294.114.18-.114.476-.038.067.088.129-.206.46.118.767v.182l-.234.294.052.543.064.168v.055l-.232.125h-.206l-.18.113h-.04l-.115-.238-.27.069-.17.056v-.056l-.036-.07v-.181l.036-.041-.322-.42.168-.348v-.194l.04-.182.078-.336v-.083l.036-.043-.27-.419.156-.35v-.248L7 49.747h.052l.155-.168-.052-.07h.116l.05-.224v-.18l.156-.07.386.183.079.193zM11.849 48.028l-.556-.11v.11h-.155l-.05.435.103.168.065.04-.065.084.218.293h.27l.117-.125h.323l.168.183.103.167.347-.35.156-.041.169.166v.058l-.053.236-.063.307h-.053l.053 1.061.063.237-.116.893.053.055-.17.295-.039-.058h-.064l-.05.1h.114l.091.21v.389h-.593l-.772-.057-.17.126h-.307l-.284.182-.066.42.116.333.155.085.284.04.065-.04.037.04v.056l.942.073.052-.073.103.128.167.112.336-.167h.477l.284-.128.116.128.064-.073h.747l.234-.055.204.128v.055l.542-.055.284-.128.103-.237.077-.222-.116-.127v-.058l.04-.191-.155-.295-.324-.057h-.773l-.321.057-.272.069-.114-.126v-.04l-.118-.377-.038-.292-.064-.895.102-.223v-.419l-.038-.546v-1.351l-.234-.474-.423-.07-.115.125-.053-.055h-.116l-.503-.07-.477-.059v-.04l-.064.04zm2-1.938l-.44-.251-.272.125-.064.043h-.052l-.064-.043-.155.168h-.05l-.156.292-.075-.04-.015.026.04.07.05-.056v.182l.04.672.385.04h.477l.077-.04.04.04h.078l.36-.294-.052-.515-.153-.42zM18.952 48.028v.113l.23.223h.21l.062.085h.117v.168h.478l.347-.294h.155l.05-.056.336-.239.168-.055.102.099h.106l.064-.044v-.055l.268.099.054-.044h.102l.4.336h.103l.438.727h-.064v.362l.064.349.156.35v.125l-.22.292.064 2.543.27.193.052-.07.336.713-.218.126-.054.056-.18-.182H22.2l-.078.057-.707.069-.102-.126h-.44l-.116-.168.064-.475.052.056.064-.056.206-.07.892-.04.087-.126-.037-.055h-.05l.087-.128-.037-.068-.167-.601.05-.336.154-.18-.153-.237.066-.182v-.126l-.117-.04.05-.421.067-.474-.181-.294v-.292l-.477-.419-.17-.055h-.18l-.154.167-.388.222h-.205l-.116.252.052.058-.322.543v.166l-.052-.055h-.118l-.102.18.04.17-.04-.044-.323.81.04.293.053.253.062.349-.155.124v.237l.155.309.826.04.116-.123.04.083h.115l-.232.11-.103.475-.322.35-.272-.125-.168.069-.155.056v-.056h-1.004l-.05-.07h-.106l-.114.126-.168-.125-.272.069-.037.056v.07l-.17-.126-.18-.168-.05.042h-.04v-.293h.04l.115-.294.167-.166h.309l.35-.18.155.054.05-.183.117-.237v-.181l-.052-.042.168-.21-.116-.165.064.069v-.782l-.064-.056-.052-.165v-1.19l-.064-.067.116-.115v-.195l-.322-.04-.155-.057v-.194l-.556-.391-.064-.251-.05-.253.321-.336.504.168.05-.055v.055l.272.07.27-.238h.066l.05-.18.039.18h.116zM26.24 48.323l-.078.07.234.125.116.1-.066.068.102.224-.152.6v2.192l.05.962.336.223.052-.042v.042l.154.083.232.044.206-.127.064.083h.155l.504-.544.283-.347.039-.506.232-.095v-.237h.04l.166-.35-.05-.377.114-.111v-.349l.052-.419.27-.307-.27-.292-.994-.044-.22-.123.067-.42.439-.182.656.056.207.126.154-.055h.348l.154.18v1.772l.052.642.064.84-.064-.044v.224l.118.53v.056l.27.125h.153l.118.168.116.127h.27l.116.124h.156l.05.167v.477l-.05.07v.096h-.04l-.065.126h-.283l-.04-.041h-.165l-.065.04-.209.126h-.177v-.04l-.479-.085-.27-.126h-.439v-.096l-.18-.196-.592.068v.058l-.234.125h-.038l-.051-.055-.233.18-.697.167-.075.057-.427-.349h-.284v-.125l-.205-.058h-.22l.04-.068-.092-.099-.064-.838-.116-.474.116-.237v-2.205l-.116-.293-.037-.306-.13-.182-.296-.03-.143.099-.195-.085-.177-.349-.014-.263.103-.281.193-.097.143.03.283-.059.025.07.155.21.04-.041-.04.027-.052-.057.052-.055.04.085.05-.124.452.221h.284zM33.83 45.851h.18l.09.168v.225l.182.124h.05l-.27.587.155.474-.154.38.154.166h1.043l.322-.044v-.082l.116.126h.273l.269.25-.038.392-.064.07v.126l-.206.096-.18-.04h-.556l-.04.04-.707-.04-.167.165v.294l-.22.125-.115.126.153.516v.543l.272.294-.155.128-.154.18v.126l.22.112h.205l-.04.055.04.042-.116.308-.09.237.09.182.116.124h.23l.117-.543.04-.18-.117-.128.077-.293h.092v.502l.113.099h.117l.155-.308h.118l.423-.515.44.124h.064l.05.294v.642l-.05.056v.195h-.064l-.053.099-.219.248.065.044h-.065l-.09.376v.057l-.233.11v.182l-.116.125.064.043-.45.07-.156.127-.113.222h-.092l-.077.084-.154-.21-.657.085-.117.125-.207-.25.038-.253-.424-.294-.168-.515h-.064l-.038-.084v-.167l.152-.17-.114-.641.114-.669.066-1.02.052-.584v-.602l-.168-.096-.271.056-.27.04h-.542l-.116.125-.234-.165-.05.04-.102-.096h-.116l.063-.07-.063-.056v-.546l.336-.292.113.082h.17l.039-.123.552.041.272.18.27-.18v-1.773l.065-.18.284-.167.308.055.053.067zM40.355 48.323l-.774-.056-.118.182-.116-.126-.152.195-.054-.07-.27.17v.193l-.426.225-.347.292v.125l-.206.476h-.064v.474l-.116.235-.156.057v.238l.218.349.054.671.064.418.156.293.282.223.04.308.075.069.155.097v.126h.116l.04.07v.1l.385.291.762.085.18.125.155.041.117-.125h.27l.166-.167.66-.125.167-.225.31-.252.115-.236.231-.306.04-.295-.22-.292-.206.07-.348.348-.27.17-.154.374-.17.126h-.423l-.285.168-.064-.07v-.057h-.322l-.155-.167-.556-.25v-.043l-.332-.18-.209-.42.04-.069-.156-.223.116-.125-.155-.295.155-.167.04.041.169.07.332-.11.711-.085.167.125v.166h.116l.04-.04.114-.167.541-.18.388.292.322-.237.078-.055h.154l.116.055v.04h.425l.052-.293-.052-.055v-.042l.052-.253h.064v-.166l.052-.07-.116-.181.064-.041-.155-.18-.23-.49v-.182l-.322-.292-.104-.295h-.168l-.064-.055v-.112h-.168l-.102-.125-.761-.126zm-.774 2.497l-.27-.052h-.17v-.073l-.102-.057-.117-.292.064-.055.155-.111s.17-.28.17-.31l.036-.291v-.07l.116-.097-.038-.25.156-.17h.232v.044l.04.07h.114v.055l.052.055.116-.11.31-.07v.07l.078.055h.037l.065-.125.051.18.27.42-.037.963h-.284l-.065-.085-.116.18h-.09l-.116.126-.155-.182-.103-.04-.128.07-.271.152zM45.983 48.2l.116-.122.384.121h.319l.27.245.384.042.115.176h.116l.204-.34h.064l.091-.123.23.055.039.068h.077l-.052-.054.066-.04.025.026-.04.068v.122l.04.042.152.408-.152.463-.04.052.104.11h-.064v.177l.116.286-.116.192h-.268l.062-.07-.384-.408-.115-.339-.706-.572-.333.04v-.04l-.27-.054-.282-.069h-.269l-.268.07-.55.46-.092.11.167.217v.122h-.076l-.037-.04-.117.164.117.121v.218l.268.245h.653l.282.041.539.068v.055l.268.163.206-.109.615.07.384.339h.206l.116.353.319.34v.463l-.05.408v.163l-.156.164-.23.245v.122l-.038-.068-.5.53-.552.11-.037.056-.4.12-.101.123-.05-.082-.154.123-.347-.284-.038.066h-.166l-.116-.121-.065.055-.268-.165-.475.04-.614.19h-.166l-.308-.407v-.45l.04-.585.075-.245.037-.04-.037-.068-.076-.216v-.204l.076-.098.089-.19.27-.04.268.285v.123l.27.218h.115l-.04.067.27.123h.154l.052.164-.09.176.269.163.154-.054.168-.109.216.233-.064.218.064.08h.102l.066-.204h.385l.088.124h.064l.166-.165-.05-.177.05-.066.154.19.23-.07.04-.163.077-.408.204-.122.064-.055v-.04l-.064-.083-.05-.163-.436-.34-.219-.068-.282-.216-.036.04h-.18l-.09-.11-.079.07-.472.094-.218-.094-.551-.07-.5-.408h-.09l-.063.07-.282-.409-.104-.463-.052-.356v-.176l.438-.747.152-.042.885-.366.269.08.052.041z" fill="#fff"/></g></svg>