<svg viewBox="0 0 198 71" xmlns="http://www.w3.org/2000/svg" fill-rule="evenodd" clip-rule="evenodd" stroke-linejoin="round" stroke-miterlimit="1.414"><path d="M39.457 60.744v7.795c0 1.607-.91 2.438-2.731 2.438-1.608 0-2.559-.831-2.559-2.41h.991c0 1.097.656 1.526 1.608 1.526 1.153 0 1.754-.455 1.754-1.687v-1.314h-.027c-.375.858-1.03 1.153-1.808 1.153-1.834 0-2.612-1.742-2.612-3.817 0-2.077.778-3.818 2.546-3.818.897 0 1.58.268 1.888 1.166h.026v-1.032h.924zM171.1 64.95c0 1.366.63 2.571 1.769 2.571.966 0 1.381-.923 1.486-1.781h.953c0 1.273-1.031 2.666-2.452 2.666-1.661 0-2.747-1.367-2.747-3.831 0-2.197.991-3.804 2.681-3.804 1.581 0 2.518 1.313 2.518 3.549v.63H171.1zm-12.638 0c0 1.366.63 2.571 1.769 2.571.963 0 1.377-.923 1.486-1.781h.951c0 1.273-1.031 2.666-2.451 2.666-1.663 0-2.746-1.367-2.746-3.831 0-2.197.991-3.804 2.678-3.804 1.58 0 2.519 1.313 2.519 3.549v.63h-4.206zm-30.421 3.322h-.897v-.764h-.028c-.482.656-.99.898-1.888.898-1.822 0-2.624-1.742-2.624-3.818s.802-3.817 2.692-3.817c.724 0 1.365.349 1.727.884h.027v-3.081h.991v9.698zm52.515-1.019c-.201.724-.804 1.153-1.835 1.153-1.592 0-2.237-1.019-2.237-2.225v-5.276h.991v4.983c0 1.071.482 1.633 1.367 1.633 1.125 0 1.739-.816 1.739-1.755v-4.861h.993v7.367h-.993v-1.019h-.025zm-50.347-2.303c0 1.366.63 2.571 1.769 2.571.964 0 1.378-.923 1.486-1.781h.951c0 1.273-1.031 2.666-2.451 2.666-1.661 0-2.745-1.367-2.745-3.831 0-2.197.99-3.804 2.678-3.804 1.58 0 2.518 1.313 2.518 3.549v.63h-4.206zm57.496 3.322h-.938v-1.34h.938v1.34zm-22.87 0h-.991v-7.367h.857v.964h.026c.308-.924.939-1.098 2.009-1.098v.965h-.428c-.91 0-1.473.789-1.473 1.741v4.795zm-15.613 0h-.991v-7.367h.991v1.018h.029c.2-.723.803-1.152 1.834-1.152 1.592 0 2.236 1.019 2.236 2.223v5.278h-.991v-4.983c0-1.071-.483-1.634-1.365-1.634-1.126 0-1.743.816-1.743 1.755v4.862zm19.522 0h-.991v-7.367h.991v7.367zm-22.305 0h-.993v-7.367h.993v7.367zm9.667 0h-.991v-6.563h-.927v-.804h.927v-2.277h.991v2.277h1.138v.804h-1.138v6.563zm28.064 0h-.991v-7.367h.858v.964h.025c.31-.924.938-1.098 2.011-1.098v.965h-.429c-.912 0-1.474.789-1.474 1.741v4.795zM13.106 61.976h-1.018c-.041-1.285-.669-2.839-2.196-2.839-1.488 0-2.265 1.393-2.265 4.126 0 2.598.858 4.124 2.265 4.124 1.392 0 2.075-.937 2.17-2.625h1.044c0 1.983-1.059 3.51-3.296 3.51-2.183 0-3.308-2.13-3.308-5.009 0-2.881 1.125-5.01 3.362-5.01 2.13 0 3.229 1.741 3.242 3.723zm127.386 6.296h-.991v-9.698h.991v9.698zm-28.834-.161h-.897v-.764h-.027c-.482.657-.991.898-1.889.898-1.821 0-2.625-1.742-2.625-3.817 0-2.077.804-3.818 2.692-3.818.724 0 1.366.349 1.727.885h.027v-3.081h.992v9.697zm-85.537 0h-.884v-1.032h-.026c-.389.925-1.005 1.166-1.902 1.166-1.823 0-2.625-1.742-2.625-3.817 0-2.077.802-3.818 2.691-3.818.724 0 1.473.349 1.836 1.152h.026v-1.018h.884v7.367zm72.496-3.683c0 2.075-.805 3.817-2.894 3.817s-2.894-1.742-2.894-3.817c0-2.077.805-3.818 2.894-3.818s2.894 1.741 2.894 3.818zm15.209.362c0 1.365.63 2.571 1.767 2.571.965 0 1.38-.925 1.488-1.781h.951c0 1.271-1.032 2.665-2.451 2.665-1.662 0-2.746-1.366-2.746-3.831 0-2.196.991-3.804 2.678-3.804 1.582 0 2.519 1.313 2.519 3.55v.63h-4.206zm-72.147 0c0 1.365.63 2.571 1.768 2.571.964 0 1.38-.925 1.487-1.781h.951c0 1.271-1.032 2.665-2.451 2.665-1.66 0-2.746-1.366-2.746-3.831 0-2.196.991-3.804 2.679-3.804 1.581 0 2.518 1.313 2.518 3.55v.63h-4.206zm23.354-1.902h-.991c-.067-.885-.562-1.393-1.473-1.393-.751 0-1.314.374-1.314 1.151 0 1.715 3.886.643 3.886 3.375 0 1.34-.991 2.224-2.585 2.224-1.488 0-2.533-.818-2.533-2.291h.992c0 .911.683 1.407 1.446 1.407.991 0 1.634-.375 1.634-1.206 0-2.008-3.884-.616-3.884-3.509 0-1.204.937-2.036 2.277-2.036 1.607 0 2.518.804 2.545 2.278zm-12.534 1.54c0 2.075-.803 3.817-2.891 3.817-2.091 0-2.895-1.742-2.895-3.817 0-2.077.804-3.818 2.895-3.818 2.088 0 2.891 1.741 2.891 3.818zm21.155.362c0 1.365.631 2.571 1.769 2.571.965 0 1.38-.925 1.487-1.781h.951c0 1.271-1.032 2.665-2.451 2.665-1.662 0-2.746-1.366-2.746-3.831 0-2.196.99-3.804 2.679-3.804 1.58 0 2.518 1.313 2.518 3.55v.63h-4.207zm-44.936 3.321h-.991v-7.367h.991v1.018h.026c.202-.723.804-1.152 1.835-1.152 1.595 0 2.237 1.019 2.237 2.223v5.278h-.991v-4.983c0-1.072-.482-1.633-1.366-1.633-1.126 0-1.741.816-1.741 1.753v4.863zm42.581 0h-.991v-9.697h.991v9.697zm-16.551 0h-.991v-7.367h.991v1.018h.027c.201-.723.804-1.152 1.835-1.152 1.595 0 2.237 1.019 2.237 2.223v5.278h-.991v-4.983c0-1.072-.483-1.633-1.367-1.633-1.125 0-1.741.816-1.741 1.753v4.863zm-39.421 0h-.991v-9.697h.991v3.081h.027c.375-.617.965-.885 1.834-.885 1.595 0 2.238 1.019 2.238 2.223v5.278h-.991v-4.983c0-1.072-.483-1.633-1.366-1.633-1.125 0-1.742.816-1.742 1.753v4.863zm85.536 0h-.991v-7.367h.991v1.018h.028c.2-.723.803-1.152 1.835-1.152 1.594 0 2.236 1.019 2.236 2.223v5.278h-.991v-4.983c0-1.072-.482-1.633-1.366-1.633-1.126 0-1.742.816-1.742 1.753v4.863zm-17.111 0h-.992v-7.367h.992v1.018h.026c.2-.723.803-1.152 1.834-1.152.658 0 1.394.214 1.77 1.072h.026c.482-.763 1.031-1.072 1.969-1.072 1.245 0 2.197.59 2.197 2.251v5.25h-.991v-5.009c0-1.086-.403-1.622-1.274-1.607-1.125 0-1.648.777-1.648 1.741v4.875h-.991v-5.009c0-1.086-.4-1.622-1.272-1.607-1.124 0-1.646.777-1.646 1.741v4.875zm41.597-.59c1.125 0 1.754-.763 1.754-2.933s-.629-2.933-1.754-2.933c-1.205 0-1.755.938-1.755 2.933 0 1.835.575 2.933 1.755 2.933zm-16.384-.16c1.125 0 1.755-.763 1.755-2.933 0-2.171-.63-2.933-1.755-2.933-1.206 0-1.753.937-1.753 2.933 0 1.834.575 2.933 1.753 2.933zm-85.537 0c1.126 0 1.757-.763 1.757-2.933 0-2.171-.631-2.933-1.757-2.933-1.205 0-1.754.937-1.754 2.933 0 1.834.576 2.933 1.754 2.933zm13.392 0c1.016 0 1.646-.763 1.646-2.933 0-2.171-.63-2.933-1.646-2.933-1.206 0-1.755.937-1.755 2.933 0 1.834.575 2.933 1.755 2.933zm10.884-2.933c0 1.754.671 2.933 1.904 2.933 1.231 0 1.901-1.179 1.901-2.933 0-1.754-.67-2.933-1.901-2.933-1.233 0-1.904 1.179-1.904 2.933zm46.117 0c0 1.754.67 2.933 1.902 2.933 1.232 0 1.902-1.179 1.902-2.933 0-1.754-.67-2.933-1.902-2.933-1.232 0-1.902 1.179-1.902 2.933zm67.855-.362c0-1.447-.497-2.411-1.567-2.411-.885 0-1.633.964-1.647 2.411h3.214zm-28.253 0c0-1.447-.496-2.411-1.566-2.411-.886 0-1.634.964-1.648 2.411h3.214zm40.895 0c0-1.447-.497-2.411-1.571-2.411-.883 0-1.63.964-1.647 2.411h3.218zm-129.424-.161c0-1.446-.496-2.41-1.568-2.41-.883 0-1.633.964-1.647 2.41h3.215zm72.147 0c0-1.446-.497-2.41-1.568-2.41-.884 0-1.634.964-1.647 2.41h3.215zm-40.172 0c0-1.446-.495-2.41-1.567-2.41-.884 0-1.633.964-1.648 2.41h3.215zm65.792-2.518h-.884l1.501-2.973h.885l-1.502 2.973zm17.247-1.259h-.684l1.488-1.875h1.031l-1.835 1.875zm8.836-.294h-.991v-1.206h.991v1.206zm-22.305 0h-.993v-1.206h.993v1.206zM22.196 5.321c.673.436 1.81.722 3.409.857 1.084-.095 3.469.971 7.152 3.191l1.18.224.414-.036 1.508.578c1.555.988 2.453 1.738 2.694 2.25l.01.117c.028.314-.253.752-.84 1.314-.083.877-1.065 2.759-2.943 5.642l.027.294.157.814c-.741.144-1.51.418-2.311.824-.354.031-.702-.314-1.04-1.033-1.599-.807-2.424-1.535-2.48-2.181l.727-2.637c-.092-1.075-1.951-1.672-5.573-1.791l-5.406.147c-1.872.163-4.333 1.107-7.381 2.832-1.695 1.075-2.91 3.115-3.647 6.117-.599 2.734-1.118 4.328-1.555 4.78l-.88-.545c-.377.486-.53 1.121-.463 1.905l.089-.008.992-.589c.157-.014.28.143.367.469l-.215 3.746c.248.118.919 1.705 2.015 4.764l-.25.555.025.294c.279.233.562 1.106.851 2.617.61 1.585 2.323 2.924 5.137 4.019l4.616 2.792c4.806-.42 8.994-1.85 12.556-4.29 3.451-3.514 5.132-5.802 5.042-6.86l-.432-1.204-.009-.117c.019-.239 1.119-1.647 3.3-4.223.159-.013.637.359 1.438 1.118l.016.206-.403.153-.63-.064-.09.007.028.324c2.085.015 3.166.473 3.243 1.373 1.011 1.135 2.086 2.796 3.227 4.984.275-.024.574.571.896 1.785.759.27 1.199.547 1.323.832.039.469-.281.773-.965.91-1.279.586-2.376 1.581-3.289 2.981-2.035-1.754-3.123-2.627-3.26-2.615l-4.305 3.275a26.358 26.358 0 0 0-3.91 3.034l-8.247 3.5-1.319.233c-1.814.158-4.449-.134-7.908-.876-3.839-1.243-5.974-2.3-6.406-3.17C3.382 43.901.703 39.856.443 36.801L0 34.06c.287-1.978.312-4.356.074-7.135l1.739-5.419c-.128-1.506.738-3.554 2.601-6.142.912-2.584 3.707-5.175 8.387-7.773 1.898-.796 5.032-1.513 9.406-2.153l-.011-.117zm.587 46.511l.009.118c.024.293.59.413 1.697.355l-.025-.295-.098-.11.271-.319-.324-.296-.532.047c-.683.138-1.017.303-.998.5zM9.756 48.206c.56.74 2.635 1.803 6.228 3.184l1.79.376.118-.009-.029-.325c-3.613-1.163-5.858-2.237-6.737-3.227-.32-.247-.607-.361-.863-.338l-.325.029c-.138.012-.199.116-.182.31zm2.783-.538l.007.089c.037.43 1.08.891 3.127 1.383l4.155.881.827-.074.272-.319-.018-.207-.09.01c-1.124.096-2.161-.196-3.113-.883l-1.372-.383-.118.011-.467.454-.118.011c-.375.032-1.307-.3-2.796-.999l-.296.026zM133.25.155l.35-.13c1.186-.035 3.482.358 6.894 1.181.332.277.643.402.934.376l.421-.214 3.697 3.947c.864 1.043 1.321 1.834 1.366 2.371.605 1.403.96 2.735 1.07 3.995.106 1.229-.706 1.916-2.43 2.064-.478.042-1.248-.095-2.308-.409l-.077.006c-.171.015-.301.288-.394.82l-.177.016c-.239.021-.678-.855-1.313-2.628-1.676-3.664-2.619-5.513-2.828-5.546-.685-.347-2.078-.43-4.179-.248l-.179.015-5.346 1.783c-1.22 1.003-1.826 1.647-1.82 1.935.55 6.351 1.061 9.508 1.541 9.466 1.189.608 3.312.779 6.371.516.543.123.828.335.855.638.972.694 1.493 1.452 1.565 2.275.172 2.002-1.176 3.126-4.047 3.373l-.178.014c-.718.063-1.519-.138-2.402-.603l-.468-.037c-.947.203-1.412.384-1.398.554l.817 9.452c.127 1.479.374 2.938.741 4.381l-.007 2.031.17 1.94c.024.287 1.461.518 4.319.694 2.475-.213 3.991-.107 4.545.318l.279.257c-.256.022-.44 1.367-.555 4.034a112.07 112.07 0 0 0-2.977-.099l-.889.178c-3.504-.12-6.186-.099-8.048.062l-5.808.602c-.207-.202-.332-.545-.374-1.034l-.13-1.511c-.124-1.428-.299-2.446-.524-3.052-.03-.353.339-.564 1.109-.631.479-.041 1.427.08 2.846.364l1.076-.093c.46-.04.747-.208.86-.506l-.01-.101c-.516-.989-.875-2.674-1.083-5.062-.338-1.123-.538-2.052-.603-2.792l-.015-.177c-.113-1.31-.067-4.276.134-8.899-.013-.169-.441-.248-1.284-.244l-.256.022c-2.017.766-3.7 1.208-5.05 1.325l-1.091-.084c-.188-4.369-.078-6.571.333-6.607.053-.172.226-.273.515-.298l.359-.031c3.651-.366 5.47-.642 5.455-.827-.255-2.941-.467-5.03-.634-6.268a68.524 68.524 0 0 1-.34-2.893l-.024-.275-.465-1.204-.006-.077c.502-1.142 1.082-2.116 1.735-2.917l3.017-3.638a16.22 16.22 0 0 1 6.343-1.87zM29.408 48.887l.119-.01c1.112-.452 2.03-1.085 2.756-1.896l-.011-.118-.118.01c-.512.046-1.428.716-2.746 2.014zm-2.381-1.034l.008.088.117-.01c.512-.046.806-.209.883-.49l-.009-.089c-.682.141-1.015.305-.999.501zm102.45-.542l.014.176c.021.22.477.331 1.373.338l1.18-.102.162-.191c-.02-.235-.57-.339-1.652-.314l-1.077.093zm-6.682.044l.009.1c.022.268 1.022.387 2.997.35l.098-.083-.009-.101c-.691-.414-1.521-.58-2.495-.496l-.435.038-.165.192zm3.93-.517l.017.176c.466.434.872.636 1.213.605l.537-.046-.006-.075c-.662-.484-1.249-.706-1.761-.66zm10.556-.025l.017.177.583.482.181-.014.162-.192-.045-.53-.278-.229-.358.031-.262.275zM6.437 44.562l.01.118c.069.802.997 1.58 2.79 2.33l.739-.064-.008-.088c-.054-.626-1.093-1.404-3.119-2.332l-.412.036zm23.949 1.134l.126.078.088-.008c1.333-.668 1.973-1.306 1.922-1.913l-.089.007c-1.456.858-2.168 1.473-2.136 1.844l.089-.008zm105.503-.363l.009.101.647.022c.952-.134 1.421-.293 1.405-.476l-.109-.069-1.256.109c-.444.037-.676.143-.696.313zm-13.105-1.075l.022.251c.015.17.418.253 1.211.25l.71-.135-.015-.177c-.789-.169-1.372-.238-1.747-.205l-.181.016zm41.131-17.053h-.134c-.537 0-1.119-.2-1.746-.603l-.345-.057c-.716.088-1.074.195-1.074.321v7.074c0 1.106.089 2.207.269 3.301l-.134 1.509v1.452c0 .214 1.054.478 3.164.793 1.854 0 2.973.176 3.357.528l.192.207c-.192 0-.415.987-.672 2.962a82.715 82.715 0 0 0-2.206-.264l-.671.075c-2.596-.315-4.59-.471-5.985-.471l-4.353.075c-.141-.164-.212-.428-.212-.792v-1.132c0-1.069-.064-1.836-.191-2.301 0-.264.287-.397.863-.397.357 0 1.055.151 2.09.453h.806c.346 0 .569-.108.672-.321v-.075c-.321-.766-.481-2.043-.481-3.83-.178-.854-.268-1.558-.268-2.112v-.132c0-.98.223-3.181.671-6.602 0-.126-.313-.213-.939-.264h-.192c-1.547.44-2.827.661-3.836.661l-.806-.132c.141-3.258.364-4.886.672-4.886.05-.125.185-.189.402-.189h.269c2.736-.038 4.105-.126 4.105-.263 0-2.201-.023-3.766-.068-4.697a47.833 47.833 0 0 1-.067-2.17v-.207l-.269-.924v-.057c.448-.817.941-1.503 1.479-2.056l2.474-2.509a12.105 12.105 0 0 1 4.833-.981l.269-.075c.882.05 2.563.491 5.044 1.32.23.227.454.34.671.34l.327-.133 2.493 3.17c.575.83.863 1.445.863 1.848.358 1.081.537 2.094.537 3.038 0 .415-.132.736-.396.963a6.365 6.365 0 0 1 2.199-.398h1.343c.46 0 1.355.176 2.685.528l.077.189c-.321.415-.48.767-.48 1.056v.34c2.865-1.283 6.797-1.666 11.797-1.151 1.381 0 2.551.975 3.51 2.924.204 0 .454.22.748.66l.729 3.904c-.307.39-1.247.585-2.82.585h-.537c-1.343-.163-2.013-.603-2.013-1.32 0-.503-.404-1.163-1.21-1.981-.114-.176-.875-.264-2.282-.264-1.406 0-3.037.353-4.891 1.056-1.279 1.283-2.175 2.364-2.686 3.245.256 6.325.339 10.066.25 11.223 0 .302.224.453.671.453h1.285c.575.038.863.126.863.264v.075l.193.736-.116 2.886-.307.434-2.513.226h-.21l-1.075.339c-4.066-.138-6.099-.295-6.099-.471-.717 0-1.075-.308-1.075-.924-.09-.477-.134-1.138-.134-1.98 0-.655.69-1.095 2.071-1.321 0-.264.474-.396 1.42-.396l.192-.057v-.075l-.326-14.317c0-.88-.224-1.321-.671-1.321h-.327c-.448 0-1.163.177-2.148.529l-.077-.076v-.132c0-.062.135-.151.404-.263v-.058c-.359 0-.538-.993-.538-2.979-.051 0-.096-.309-.134-.926.471-.354.945-.65 1.42-.89a3.9 3.9 0 0 1-.729.061c-.358 0-.92-.151-1.688-.453h-.057c-.128 0-.243.196-.346.585h-.134c-.178 0-.447-.678-.805-2.037-1.011-2.83-1.593-4.263-1.746-4.3-.486-.302-1.515-.453-3.088-.453h-.134l-4.086.98c-.972.667-1.464 1.108-1.477 1.321 0 4.753.179 7.13.537 7.13.845.528 2.41.792 4.699.792.397.126.596.302.596.528.676.579 1.016 1.176 1.016 1.792 0 1.496-1.075 2.244-3.223 2.244zM42.588 43.183l.035.409.226.187.501-.042c.178-.016.558-.434 1.145-1.254l-.008-.089c-.013-.154-.514-.32-1.502-.489-.335.029-.465.454-.397 1.278zm122.996-.076v.131l.403.397h.135l.133-.132v-.396l-.192-.189h-.268l-.211.189zm-37.989-1.754c-.076.532-.074 1.242.004 2.132l.004.076.36-.031.26-.275-.085-.984c-.159-.629-.305-.938-.442-.927l-.101.009zM7.709 42.381l.036.409c.257.472.584.69.978.657l.118-.013-.027-.323c-.343-.522-.71-.765-1.105-.73zm152.044.594v.132c0 .164.332.277.998.34h.881l.135-.132c0-.176-.403-.289-1.208-.34h-.806zm15.421.113v.057c0 .176.511.264 1.534.264h1.611l.346-.057c0-.176-.94-.308-2.82-.396l-.671.132zm-29.577-6.734c1.074.176 1.835.46 2.283.849.14.302.211.61.211.924v.736c0 1.421-.831 2.785-2.494 4.093l-.671.264c-.741 0-1.458-.993-2.148-2.98v-.264c0-1.509.25-2.434.747-2.773.998-.565 1.689-.849 2.072-.849zm9.188 6.224v.077c0 .201.735.351 2.205.452l.077-.057v-.075c-.485-.352-1.094-.528-1.822-.528h-.326l-.134.131zm2.954-.131v.131c.319.353.607.529.863.529h.403v-.057c-.46-.402-.883-.603-1.266-.603zm16.284-.152l-.134.19v.207l.134.132h.211v-.339l-.211-.19zm5.908.265l.135.132h.805l.211-.207c0-.1-.09-.164-.269-.19-.588.039-.882.126-.882.265zm-3.357-.396H175.5l-.135.131.077.057h2.955v-.132l-1.823-.056zm-11.93-.246v.076l.48.056c.715-.037 1.074-.125 1.074-.263l-.076-.057h-.941c-.332 0-.511.064-.537.188zM5.688 40.693l.037.41c.342.523.709.768 1.104.731-.034-.389-.345-.776-.932-1.159l-.209.018zm138.432.282c0 .215.116.366.345.453h.596c.396 0 .754-.195 1.073-.585v-.075l-2.014.207zM41.462 34.879l.027.323c.055.646 1.267 2.641 3.639 5.983l.511.074.178-.341c-.944-1.316-1.876-2.923-2.792-4.815l-1.268-1.251-.295.027zm-6.454 6.361l.205-.019c.306-.144.619-.546.94-1.204l-.017-.207c-.552.049-.929.526-1.128 1.43zm119.968-.963v.189c0 .126.294.214.883.264l.537-.056v-.132c-.576-.176-1.004-.265-1.285-.265h-.135zm3.76-1.848c-.089.39-.134.918-.134 1.585v.056h.269l.21-.188v-.736c-.076-.478-.166-.717-.268-.717h-.077zm-13.81-.754h-.057c-.678.227-1.017.553-1.017.98.101.931.236 1.396.403 1.396.102-.05.261-.666.479-1.849l.192-.339v-.188zm-17.493 1.813l.025.277.194.161.178-.015-.116-.448-.281.025zm19.776-.172h-.058c-.089 0-.179.132-.268.396l.057.075h.211l.058-.339v-.132zm-73.1-24.156c.374.035.564.084.564.152l-.181.319.004.119.071-.001 2.503-.159c2.825-.101 4.728.514 5.71 1.846.671.782 1.1 1.331 1.286 1.645l.196.061c.269-.008 2.076-.943 5.421-2.798.437-.211.803-.323 1.095-.333 1.307-.046 2.712.386 4.218 1.299 2.81 2.094 4.242 3.871 4.294 5.331.266.541.895 3.79 1.893 9.743l.047 1.327c.011.299.081.457.211.476l.175-.007c.28-.009.806-.151 1.581-.419.536-.019.837.897.904 2.745.062.756.106 1.48.131 2.168-.246.01-.427.015-.544.019l-.122.006c-1.475.294-2.679.458-3.612.491l-1.53-.117-2.817.153-.49.017c-.082.002-.127-.117-.135-.357l-.635-.582-.001-.051.104-.487-.004-.121-.291-1.264-.021-.604c-.016-.438.321-.667 1.01-.693 1.137.11 1.594-.332 1.373-1.325-.137-2.477-.106-4.359.094-5.642l-.002-.07-.227-2.888c-.017-.483-.47-1.047-1.358-1.693l-.424-.107-.317.011-.358.256c-.081.001-.127-.158-.14-.479-.743-.904-1.964-1.325-3.656-1.266-2.06.258-3.287.906-3.682 1.943-.105.36-.16 1.128-.164 2.3l.162 1.081.124 3.444-.004 1.381c.065 1.481.502 2.293 1.314 2.436.365.057.551.17.557.342-.273 1.516-.464 2.409-.571 2.676l-1.217.285-4.181-.211-.485.139c-.537.018-.835-.799-.895-2.452l-.006-.173c-.007-.194.475-.454 1.446-.776.244-.011.362-.134.354-.375-.189-.695-.304-1.599-.342-2.714l-.118-5.237c-.189-.706-.292-1.266-.307-1.679-.005-.805.08-1.21.256-1.217l.069-.003.377.229.121-.005-.002-.07c-.025-.711-1.187-1.675-3.487-2.892-.639-.218-1.215-.317-1.729-.3-.888.032-1.894.471-3.022 1.316l-.043.242.14 3.859.483 10.071.251.166.175-.008c.082-.003.142-.125.18-.368l.122-.005c.851-.03 1.367.175 1.548.617l.014.414.162 1.08c.118 1.341-.209 2.025-.978 2.053-.267.09-1.146.179-2.638.268l-6.319-.188c-.316.011-.653-.932-1.013-2.827l-.005-.121c-.008-.24.634-.585 1.928-1.034-.009-.24.636-.465 1.939-.673.241-.1.359-.266.351-.496l-.088-11.224-.043-2.655c-.009-.275-.318-.403-.925-.381-.689.025-1.445.133-2.267.323-.537-.268-.81-.563-.821-.884.238-.18.353-.444.34-.789l-.012-.361c-.159-.847-.363-1.263-.608-1.255l-.054-.049-.002-.07c.194-.11.405-.416.633-.919 1.893-.344 4.214-.668 6.962-.975zm71.968 23.042h-.134c-.409 0-.634.265-.672.793v.132c0 .34.089.535.269.585h.057c.192 0 .397-.371.614-1.113v-.264l-.134-.133zm-78.081-1.815c.011.299-.119.585-.389.858.284 1.083.543 1.62.775 1.613l.177-.008-.368-2.419-.073-.049-.122.005zm6.935 2.235l.003.068.128.117c.263-.114.485-.282.665-.507l-.004-.121c-.28.01-.545.158-.792.443zm-34.985-1.954l.011.118c.492 1.121.887 1.668 1.183 1.642l.188-.225-.024-.294c-.354-.874-.806-1.29-1.358-1.241zm-34.514-2.46c-.252.298-.354.75-.302 1.356.028.315.321.84.88 1.579.373.875.826 1.289 1.357 1.243l-.017-.205c-.074-.86-.674-2.189-1.8-3.983l-.118.01zm63.697 3.484l.013.361.127.116.123-.004-.011-.311-.18-.166-.072.004zm111.473.247h-.134v.188h.134v-.188zm-106.353-.793l.086-.003-.003-.069a.5.5 0 0 1-.083.072l-.351.012-1.106-.03-.662.145.006.12 1.172.017c-.673.083-1.654.093-2.942.03l-.252-.164-.174.008-.187.178c.014.38.583.428 1.707.146.183.235.374.348.572.341 1.003-.081 1.834-.192 2.496-.331l-.007-.19-1.213-.018c.453-.055.767-.143.941-.264zm.847.193c.009.253.318.403.927.449l.24-.199-.008-.171c-.004-.137-.335-.206-.988-.206l-.171.127zm83.64-.306v.208l.135.132h.134l-.058-.34h-.211zm21.943-.283h-.077l-.191.189v.396h.191l.211-.189v-.264l-.134-.132zm-106.211.18l.004.12.911-.032.733-.078-.007-.189-.368.013-1.273.166zm21.72-.071l.005.121 1.296-.047c.303-.011.482-.097.533-.262-.039-.124-.163-.182-.373-.175l-.79.029c-.127.004-.351.115-.671.334zm-12.225-.149l.004.121.317.058.243-.077-.004-.121-.127-.117-.315.012-.118.124zm-15.116-.544l.094.67.052-.001c.28-.345.6-.58.958-.708l-.006-.172-.424-.054-.489.017c-.106.004-.167.088-.185.248zM53.644 11.689c.518-.043 1.536.076 3.056.36 1.874 1.482 3 2.652 3.379 3.517.689.579 1.333 1.884 1.932 3.912.521.392.854 1.415.996 3.065l.157 1.06.2 4.398c.073.836.716 1.885 1.932 3.146 1.075.877 1.772 1.303 2.095 1.274l.004.047c.031.361-.446.983-1.433 1.87-.7.805-1.158 1.218-1.373 1.236l-.049.006c-.455.008-1.735-.762-3.842-2.308-1.68.784-3.389 1.643-5.13 2.572-1.165.44-2.47.724-3.911.848l-.226.02c-1.649-.145-3.081-.64-4.292-1.485-.199-.174-.694-.878-1.483-2.111-.583-.589-.916-1.361-.998-2.314l-.11-1.287a4.149 4.149 0 0 1 .482-2.33c.297-1.198.876-2.406 1.735-3.621.415-.601.853-.996 1.314-1.186 1.509-.952 3.019-1.492 4.527-1.623l2.029-.223.228-.02c1.172-.101 1.999-.007 2.48.281l.273-.022c.119-.011.172-.09.159-.238-.406-1.309-1.047-2.581-1.924-3.819-.739-1.023-2.012-1.457-3.821-1.3l-1.827-.068c-1.558.434-2.321.82-2.291 1.159-.537.814-.828 1.826-.877 3.035-.061.165-.598.293-1.609.378l-.285.091c-.108.009-.238.276-.387.8-.839-.055-1.268-.188-1.286-.4.073-.273.093-1.358.06-3.253.369-1.376 1.392-2.712 3.069-4.01.82-.55 1.31-.838 1.47-.862l5.577-.595zm17.494 24.757l.005.189.3.042.437-.016.296-.063-.005-.189-.3-.042-.439.016-.294.063zm-23.193-1.113l.003.048c.167.285.949.554 2.348.805.503.18 1.1.242 1.788.182l-.004-.048c-.011-.116-.59-.237-1.739-.361a9.917 9.917 0 0 1-2.116-.761l-.176.015-.104.12zm50.181.784l.004.119.612-.022c.946-.045 1.415-.159 1.41-.342l-.198-.114-.122.005c-1.145.041-1.714.159-1.706.354zm-21.924-.215l.009.242.318.057.115-.193-.128-.117-.314.011zm50.163-3.686l.324.758v.889c.246 1.47.49 2.192.729 2.172l.076-.007c.257-.021.339-.858.248-2.51l-.029-.353c-.077-.891-.388-1.311-.936-1.264l-.257.022c-.119.011-.17.108-.155.293zm-25.544 3.752l.071.05.176-.007c.21-.007.329-.069.361-.186l-.003-.069c-.006-.205-.069-.326-.188-.355-.164.007-.302.195-.417.567zm1.387-.895l.02.534.182.183c.093-.003.148-.247.167-.729l-.077-.187-.123.004-.169.195zm-28.759-.642l.003.069c.023.643.239.957.647.944l.244-.01c.083-.004.122-.066.117-.194l-1.011-.809zm-.741-.145c.194-.007.194-.008 0-.001v.001l-1.033.037c.039.482.13.719.27.715l.123-.005c.397-.014.61-.262.64-.747zm12.165.409l.199.166.297-.011.237-.25-.002-.053-.127-.116-.368.013-.236.251zm14.541-.315l.002.069.199.166.122-.005.237-.25-.011-.293-.127-.116-.192.007c-.161.075-.239.216-.23.422zm-46.663-.085c.079.143.219.204.423.186.298-.058.444-.143.433-.26l-.005-.048-.123-.102-.564.049-.164.175zm105.659-2.732l.192.585-.057.66c.088 1.106.223 1.66.402 1.66h.058c.191 0 .306-.616.345-1.848v-.264c0-.667-.205-1-.614-1h-.191c-.09 0-.135.069-.135.207zM2.826 32.984l.025.296c.047.549.32.838.819.874.335-.029.309-.913-.078-2.655l-.125-.404-.206.018c-.196.017-.342.641-.435 1.871zm82.322.613l.005.122.177.044.117-.175-.128-.117-.052.001-.119.125zm18.663-22.221c.259.166.564.234.912.205l.517-.296c3.993-.346 5.999-.41 6.017-.191l.087.274.067.764c.268.512.427 1.063.478 1.654l.057.655c.051 4.037.159 7.875.325 11.513-.092.176-.126.472-.1.888.076.141.215.202.415.184l.159-.014c1.594-.138 2.407-.025 2.44.339l-.058.068.022.265c.399.667.661 1.742.79 3.23l.309 1.73-.101.119-1.929.23-4.388.379c-3.327.288-5.013.177-5.056-.332a2.243 2.243 0 0 0-.304-.916.818.818 0 0 1 .402-.521l.112-.011a.66.66 0 0 0 .409.123l.112-.01c.96-.084 1.967-.243 3.022-.481l-.009-.11c-2.527.073-3.799-.001-3.818-.218l-.08-.371-.044-.499-.204-1.081c-.028-.322 1.067-.579 3.285-.77.296-.025.389-.678.279-1.956l-.494-11.435-.047.003c-1.11.097-1.504.026-1.184-.211-1.744.151-2.632.028-2.666-.366-.109-.033-.171-.138-.186-.313l.175-.565c-.009-.094-.116-.231-.324-.413l-.005-.061c.23-.177.359-.644.39-1.4l.042-.066.174-.016zM56.428 33.368l.005.048.225-.02c.43-.036.966-.248 1.604-.634l-.004-.064-.179.015c-1.021.229-1.571.446-1.651.655zm41.417-.19l.001.051.181.183.117-.194-.005-.119-.126-.117-.168.196zm-33.983-.18l.01.112.177.16.225-.019.104-.122-.005-.064-.246-.202-.162.015-.103.12zm-15.987-5.05c.348 1.762.672 2.63.975 2.603l.499.517.005.048-.408-.012.009.112c.679.697 1.909 1.316 3.691 1.855.257.096.565.144.922.144.615-.052 2.613-1.083 5.996-3.094.213-.146.313-.325.294-.536l-.019-.223c-.361-1.164-.709-2.552-1.044-4.166l-.051-.043c-.027-.318-.389-.549-1.085-.691-2.24-.435-3.773-.618-4.601-.546-2.185.7-3.686 1.577-4.506 2.63-.479.606-.704 1.072-.677 1.402zm-.245 5.06l.004.048.122.103.227-.02-.011-.112-.174-.144-.064.006-.104.119zm131.975-6.632h-.134c-.269.163-.403.428-.403.792v.264c.179.29.268.667.268 1.132-.089.151-.154.855-.192 2.112l.134 2.113h.058c.141 0 .275-1.61.403-4.828.089 0 .135-.371.135-1.113-.064-.314-.154-.472-.269-.472zM62.778 32.308c.093.206.218.328.373.367l.048-.003.163-.191-.009-.111-.245-.204-.227.021-.103.121zm52.497-.019l.009.109.224-.019.1-.118-.004-.047-.121-.101-.062.007-.146.169zm-51.165-.927l.024.27c.14.361.29.533.451.52l.115-.01-.011-.111c-.17-.465-.325-.692-.465-.681l-.114.012zm33.494.461l.006.173.127.116.122-.004-.018-.483-.07.003-.167.195zm29.44-1.013l-.068.108.006.075.116.448.284-.025-.046-.529-.292-.077zm-16.785.327l-.618.053.014.156.624.009 1.257-.219-.009-.109-.221.019-.497-.02-.55.111zm48.746-.574l-.058.076v.056l.058.34h.211v-.396l-.211-.076zm-44.941.072l.009.111.063-.006.144-.17-.004-.062-.111.009-.101.118zm-30.677-3.131l-.037.415.062 1.758.085.893.193-.007c.104-.348.148-.752.132-1.212l-.003-.051c-.077-1.205-.198-1.805-.362-1.798l-.07.002zm43.739 2.158l-.039.433.013.177.077-.005.262-.278-.031-.353-.282.026zm32.014.053l-.059.32v.131h.059l.21-.187v-.264h-.21zm-49.202.287l.174.159.063-.006c.253-.022.368-.162.347-.422l-.222.018c-.202.019-.322.101-.362.251zm-4.429-.103l.002.048c.23.199 1.15.25 2.758.152l.271-.023c.274-.023.418-.092.429-.21l-.009-.109a24.522 24.522 0 0 0-3.172.055l-.279.087zm8.196-.27c.084.361.359.519.822.479l.161-.014-.011-.109-.125-.16c-.004-.054.121-.136.377-.253l-.018-.218c-.018-.188-.102-.305-.256-.356l-.173.016c-.083.028-.16.18-.231.46l-.546.155zM97.38 27.537l-.046.191.191 1.856.003.12.181.185.071-.004.236-.249-.068-1.879-.253-.232-.315.012zm28.856-.999l-.004 2.032.177 1.153.179-.015.011-1.068-.183-2.119-.18.017zm32.443.8l-.134 1.509.057.868h.134l.077-.793v-1.584h-.134zm.594 1.453v.188h.135v-.188h-.135zm-32.074-.381l.022.253.178-.016-.022-.252-.178.015zm-67.217-.788l.02.221.175.163.065-.007.146-.189-.019-.222-.122-.101-.162.014-.103.121zm53.783.135c.181.089.498.135.956.137l-.009-.109c-.01-.103-.202-.162-.576-.17l-.269.023-.102.119zm-52.218-1.774l.005.047c.128 1.109.289 1.654.483 1.638l.104-.121-.004-.047c-.052-.605-.195-1.113-.426-1.531l-.162.014zm48.59 1.145l.019.217.157-.012.162-.171-.01-.109-.12-.101-.063.006-.145.17zm43.037-1.582c-.231.352-.346.616-.346.792v.207l.135.133h.537l.134-.133c0-.389-.153-.722-.46-.999zm-43.059.767l.023.266.11-.01c.145-.055.204-.222.18-.502l-.029-.329-.11.011c-.106.009-.164.198-.174.564zm8.559-1.534c-.266.497-.39.864-.369 1.097l.024.279.195.161.717-.062.166-.191c-.046-.521-.291-.95-.733-1.284zm-58.709 1.34l.126.15.159-.063-.009-.111-.123-.101-.049.004-.104.121zm96.565-.177v.076h.672l.134-.133v-.074h-.672l-.134.131zm23.152-1.546h-.211l-.269 1.055c0 .24.114.416.345.529h.058c.141 0 .229-.239.269-.717l-.192-.867zM72.463 25.534l.009.24.127.117.054-.002-.01-.241-.126-.116-.054.002zm91.912.277l.211.074c1.023-.188 1.536-.389 1.536-.604v-.131h-.327c-.946.076-1.42.296-1.42.661zm-90.695-.562l.01.241.254.232.052-.003.118-.123-.009-.242-.254-.233-.052.003-.119.125zM4.987 22.06l-1.229 2.68.036.411.324.295.205-.017c.296-.027.634-.952 1.013-2.779l-.053-.617-.296.027zm67.195-2.432l.086 2.41c.017.472-.048.942-.196 1.406l.335.521-.097.728.018.483.127.116.053-.002c.197-.006.281-1.758.25-5.253l-.004-.068c-.011-.333-.143-.569-.393-.71-.127.051-.187.174-.179.369zm83.197 5.333l-.134.189v.076l.346.055h.134l.134-.131c0-.1-.16-.163-.48-.189zm-57.921-.617l.573.823.192-.006.042-.311-.015-.413c-.007-.207-.07-.326-.188-.357l-.437.015c-.106.004-.162.087-.167.249zm-36.306.441l.014.158.121.102.104-.122-.012-.158-.227.02zm62.053.136l.008.101.898-.077.164-.194-.009-.1-.897.077-.164.193zm35.742-.431v.396l.134.132.059-.057v-.339l-.135-.132h-.058zm-50.203.184c.061.214.128.317.202.311.084-.008.126-.142.124-.404l-.103-.649c.113-.167.227-.763.34-1.789l-.023-.264-.163-.599c.179-.12.267-.237.256-.352a2.824 2.824 0 0 1-.252-.904l-.007-.061c.116-.012.107-1.659-.027-4.944-.104-.212-.187-.314-.251-.309l-.063.006c-.402.034-.516 1.474-.346 4.315l.313 5.643zm85.036-.278h-.077c-.179.075-.269.145-.269.207v.132h.135l.211-.207v-.132zm-83.354-2.24c-.168 1.031-.224 1.843-.173 2.434l.047-.003c.148-.014.281-.627.399-1.841l-.029-.328-.07-.275-.174.013zm53.815 2.277v.132h.211v-.132h-.211zm-2.743-.603v.132c.153.264.422.395.805.395h.327v-.131c-.204-.264-.493-.396-.863-.396h-.269zm-113.963.163l.015.175.113-.011a.473.473 0 0 0 .427-.325l-.01-.11-.048.004-.497.267zm74.02-.25l-.159.266.009.101.468.038.18-.018.164-.191c-.012-.133-.234-.199-.662-.196zm33.421-.31v.075c0 .24.116.416.346.528.216 0 .531-.156.939-.471 0-.113-.313-.22-.939-.32h-.135l-.211.188zm-93.955.404l.015.174.112-.01-.005-.063-.122-.101zm12.574-2.448c-.068.392-.089.94-.063 1.64l.02.602.081.292.053-.002c.209-.008.299-.455.266-1.339l-.011-.363c-.021-.561-.112-.84-.276-.835l-.07.005zm60.075 2.448l.29.077c1.345-.369 2.007-.697 1.982-.982l-.016-.178-.435.038c-1.255.21-1.862.56-1.821 1.045zm-37.093-1.583l.003.12c.265.841.507 1.258.73 1.251l.052-.002-.003-.07c-.015-.447-.253-.881-.713-1.301l-.069.002zm29.689.447l.047.529.193.161.071-.082-.038-.454-.196-.161-.077.007zm26.371.279v.189l.133.132h.269a.89.89 0 0 0 .461-.453l-.192-.207h-.134c-.256 0-.435.113-.537.339zm39.321.227h.211c.23-.088.588-.503 1.073-1.245v-.076c0-.087-.069-.131-.21-.131-.627.264-.94.641-.94 1.131-.077 0-.121.107-.134.321zm-130.943-.763l.01.111c.156.436.304.646.444.633l.065-.005c-.034-.37-.155-.658-.368-.863l-.048.003-.103.121zm23.793.181l-.047.173c.044.241.107.359.189.355l.122-.003.237-.251-.004-.12c-.029-.113-.194-.166-.497-.154zm96.677.129v.132l.134.132h.211l.134-.132v-.132l-.268-.075-.211.075zm-60.646-1.008l.01.102c.026.321.2.542.522.666.289-.024.689-.271 1.202-.739-.015-.15-.444-.257-1.294-.32l-.179.014-.261.277zm55.217.348h-.076c-.346 0-.544.088-.595.264v.132h.191c.345 0 .55-.087.615-.264l-.135-.132zm19.201-.396h-.134v.132c.217.302.46.453.729.453h.134v-.132c-.243-.301-.486-.453-.729-.453zm-61.925.315l.015.178.283-.025-.016-.176-.282.023zm-3.735-.49l.017.177c.234.336.609.481 1.121.437l.436-.038-.015-.177c-.304-.328-.702-.471-1.2-.429l-.359.03zm-46.296.189c.009.242.136.359.382.35l.123-.005-.005-.121c-.076-.158-.22-.233-.429-.226l-.071.002zm34.362-.299l.02.251.195.162.359-.031c.263-.141.45-.361.562-.658l-.279-.256-.181.016c-.34.029-.567.203-.676.516zm-24.755-.719c.729.746 1.397 1.107 2.003 1.085l.119-.124-.007-.191c-.222-.324-.584-.634-1.085-.926l-.911.032-.119.124zm93.449-.863h-.059c-.946.264-1.342.818-1.188 1.66v.132c.32 0 .735-.51 1.247-1.528v-.264zm1.285.32h-.134c-.269.039-.403.107-.403.208l.23 1.075h.461l-.02-1.151-.134-.132zm-125.641.529l.009.111c.041.22.103.327.191.32l.045-.228c-.078-.143-.144-.212-.197-.208l-.048.005zm33.372-1.161l.012.312c.2.382.54.733 1.019 1.05l.007.172.315-.011-.002-.053c-.015-.412-.4-.904-1.157-1.476l-.194.006zm79.206.783c.192.264.479.396.863.396l.077-.057v-.396l-.269-.207c-.448.051-.671.139-.671.264zm6.043-.057h-.135l-.211.19v.075l.135.131.211-.206v-.19zm-175.992.07l.011.117.223.187.089-.009c.589-.542.865-1.02.83-1.432l-.018-.206-.206.018c-.655.473-.964.914-.929 1.325zm80.027-.411l.015.432.183.166c.397-.014.9-.315 1.51-.899l-.002-.053-1.226.043c-.233.01-.392.112-.48.311zm107.148.115h-.212l-.134.132v.075h.211l.135-.131v-.076zm-109.99-.668l.001.052c.013.356.31.628.889.814l.051-.004-.015-.48c-.005-.093-.295-.22-.873-.384l-.053.002zm112.003.48h-.21l-.134.132v.056l.134.132h.21l.135-.132v-.056l-.135-.132zm-4.43.056h-.347l-.671.076v.056l.135.132h.536c.231 0 .366-.062.404-.188l-.057-.076zm.728-.056v.132h.346l.191-.208-.133-.132c-.269.038-.404.108-.404.208zm-13.12-.586h-.211v.265l.345.34h.461v-.132l-.595-.473zm3.415.133v.264h.211l.191-.188v-.076l-.191-.057-.211.057zm-106.08.051l.004.123.245-.01c.408-.06.609-.149.605-.263l-.005-.122-.368.014c-.312.069-.473.155-.481.258zm2.605-.696c.003.069.481.195 1.432.38.668.298 1.204.44 1.613.425l.052-.002.118-.125c-.781-.614-1.628-.907-2.539-.875l-.315.01c-.244.034-.364.095-.361.187zm-31.617-.053l.057.669.049-.006c.115-.043.165-.158.149-.348l-.029-.333-.123-.103-.103.121zm22.366.212c.012.321.303.473.874.453.76-.029 1.527-.297 2.304-.807l-.005-.122-.195-.062c-1.996.071-2.99.251-2.978.538zm23.125.015l.005.122c.088.157.196.234.325.23 1.307-.048 2.015-.154 2.126-.318-.127-.284-.662-.409-1.608-.375l-.053.002c-.478.019-.743.132-.795.339zm-9.229-.703l.007.19c.319.448.599.72.835.816l.123-.005-.003-.069c-.129-.317-.425-.629-.891-.935l-.071.003zm-.652.384c.009.288.154.427.434.416l-.002-.068a.51.51 0 0 0-.314-.472l-.118.124zm5.71.348l.072.05.245-.01c.441-.049.659-.195.65-.436l-.177-.063c-.463.131-.726.285-.79.459zm-10.886-.937l.002.052 2.496-.331c.758-.028 1.504.25 2.238.833l.123-.004-.008-.191c-.21-.635-.548-.944-1.015-.928l-.489.018c-2.183.078-3.299.261-3.347.551zm12.215.339l.002.068.069-.003c.246-.008.78-.413 1.606-1.213l-.005-.12c-1.133.362-1.69.785-1.672 1.268zm-13.636-.356l-.116.193.127.115h.069l.119-.126-.004-.121-.195-.061zm-2.575.092l.002.068.124-.004.119-.126-.003-.068-.124.006-.118.124zm-3.945-.513l.006.17.127.117c1.308-.047 1.958-.15 1.952-.311l-.127-.116-1.033.037-.925.103zm23.785-.682c.002.057.293.168.871.329.318.394.675.581 1.072.568l.982-.035-.005-.122c-.012-.333-.865-.665-2.561-.996l-.053.003c-.183.088-.286.172-.306.253zm-.157.488l.004.121c.028.126.194.182.496.171l.176-.007.118-.123c-.028-.126-.194-.183-.497-.171l-.297.009zm80.531.124l.135.132h.191l.078-.32v-.604h-.078c-.217.189-.326.453-.326.792zm-98.664-.68l.003.068.128.116.069-.002.172-.126-.06-.188-.192.008-.12.124zM6.93 16.92l.208-.019c.726-.536 1.073-1.022 1.036-1.451-.592.052-1.006.542-1.244 1.47zm72.329-.374l.005.12c.672.171 1.143.251 1.412.242l.069-.003-.004-.119c-.005-.173-.418-.255-1.236-.249l-.246.009zm-4.902.226l.179.064 3.115-.664-.003-.052-1.418.052c-1.26.045-1.885.228-1.873.55v.05zm35.053-1.939l.282.683-.224.74c.152.282.261.418.323.413l.048-.004.039-.286-.022-.264c-.093-1.061.026-1.605.353-1.632l.099-.166-.017-.172-.119-.1-.27.024c-.37.032-.534.286-.492.764zm-39.729 1.573l.128.115c.687-.068 1.029-.162 1.024-.278l-.3-.057c-.571.055-.855.128-.852.22zm3.665-.494l.005.121.181.166c.244-.009.363-.134.353-.375l-.054-.049-.366.012-.119.125zm36.697-.756l.02.217c.016.197.103.321.256.371l.111-.01.159-.186-.019-.219a.61.61 0 0 0-.356-.235l-.171.062zm60.778-.89v.057c0 .428.159.848.48 1.263h.191l.076-.339c-.064-.654-.287-.981-.671-.981h-.076zm-125.284 1.1l.064-.006c.248-.022.617-.335 1.105-.943l-.014-.16-.047.006c-.28.023-.651.371-1.114 1.039l.006.064zm5.97-.74l.196.207.566-.049.104-.122-.006-.063-.245-.202-.405.036-.21.193zm-40.624-.241l.009.117.325-.028.268-.349-.224-.186-.378.446zm38.542-.875l.011.111c.032.114.187.159.467.136.279-.024.648-.153 1.105-.383l-.014-.16-.177.016c-.625.054-1.088.147-1.392.28zm-13.805.076l.006.091.543.07.088-.009.378-.446-.034-.411-.224-.188c-.552.048-.804.346-.757.893zm73.355-1.196l.009.11c.17-.015.419.109.751.373l.111-.009c.073-.006.107-.061.097-.165l.065-.005c.086.014.187.152.305.412l.064-.005.56-.551-.019-.218-.939.035-.617.053-.387-.03zm-52.448.282l.009.111c.224.205.438.299.643.282l.064-.005-.009-.113c-.236-.203-.455-.297-.659-.279l-.048.004zm48.125.124l.009.108c.01.105.22.138.633.103l.491-.042.157-.031 1.395-.119c.473-.041.707-.119.696-.233l-.003-.047c-.017-.187-.885-.143-2.607.131l-.771.13zm-51.599-.047l.192.159.226-.02.103-.121-.192-.16-.227.019-.102.123zm-34.7-.139l.846.132.088-.007c1.767-.233 2.685-.52 2.755-.862l-.017-.207-.946.084c-1.852.16-2.762.447-2.726.86zm-10.974-.196l.017.205.206-.018.379-.448-.007-.086-.296.025-.299.322zm6.353-.231l.025.295.294-.026c1.223-.323 1.821-.651 1.793-.985l-.224-.188-.208.018c-1.133.454-1.692.75-1.68.886zm17.285-.176l.027.323.208-.018.189-.224-.01-.117-.414.036zm73.424.194l.009.11.223-.019c.77-.068 1.152-.153 1.143-.258l-.121-.097-.111.009c-.771.066-1.152.151-1.143.255zm-80.752-.59l.01.118c.016.196.749.299 2.199.31l-.017-.206-1.485-.284-.707.062zm119.169.235l.195.16.254-.022.066-.438-.069-.806-.103.009c-.268.277-.382.643-.343 1.097zm22.054-.088v.056h.135l.134-.132v-.057h-.134l-.135.133zm-54.628-.298l.187.141.047-.004-.013-.155-.121-.101-.1.119zM8.875 11.454l4.085-2.013 2.585-1.467c1.025-.307 1.53-.558 1.513-.754l-.007-.088c-2.365.207-5.071 1.507-8.123 3.904l-.078.124.025.294zm160.679-1.357c.55.705 1.107 1.057 1.669 1.057v-.396c-.447-.567-.94-.849-1.476-.849h-.058c-.09 0-.135.063-.135.188zm-152.859.173l.034.41 1.052.115c3.134-.272 4.902-.703 5.309-1.291-.012-.157-.476-.225-1.387-.203-2.608.364-4.279.689-5.008.969zm9.784-.145l.018.205.323.297.207-.016-.018-.206-.323-.298-.207.018zm139.182.179v.057c.037.139.172.209.402.209h.729l.134-.133c0-.138-.268-.208-.804-.208l-.461.075zm-4.163-.131v.056c1.343 0 2.328-.283 2.954-.848v-.132h-.135c-1.009 0-1.949.308-2.819.924zM23.816 9.647l.019.206c.024.292.591.412 1.698.355l.19-.224c-.029-.331-.349-.471-.96-.419l-.947.082zm117.13-1.979l.008.075c.05.572.311 1.117.786 1.633l.257-.022.063-.462c-.161-.866-.499-1.277-1.011-1.233l-.103.009zm-31.941-5.283c1.003-.086 1.86.352 2.571 1.316l.392 1.397c.01.48-.241 1.219-.75 2.215-.371.399-.945.631-1.726.699-1.85.159-3.025-.019-3.527-.536-.503-.516-.773-1.296-.809-2.34-.106.009-.161-.022-.169-.095l-.003-.047c.749-1.425 1.594-2.179 2.534-2.26.225-.113.72-.229 1.487-.349zM24.216 7.01l-.079.124.019.206.224.187.414-.036-.035-.41-.543-.071zm84.558-.099l.009.11.775-.068.102-.117-.12-.099-.666.057-.1.117zm1.029-1.014l.013.155.174-.015c.201-.017.355-.14.463-.369l-.014-.157-.11.01c-.19.016-.366.142-.526.376zm22.963-.9l.005.076.18-.016.164-.191-.006-.076-.179.017-.164.19zm-25.097.032l.226.043.047-.004c.371-.031.583-.161.639-.385l-.054-.058-.507.044c-.265.023-.403.143-.415.366l.064-.006zm2.917-.409l.014.156.062-.006.146-.17-.014-.171-.049.005-.159.186zm-3.865-.766l.004.048c.993-.212 1.484-.379 1.473-.505l-.232-.09c-.842.21-1.258.392-1.245.547zm32.053-1.61c.816.877 1.6 1.283 2.352 1.218l-.046-.529c-.663-.703-1.354-1.027-2.071-.964l-.077.006c-.118.011-.173.101-.158.269zm-10.753 1.03l.007.076c1.793-.155 3.076-.646 3.848-1.476l-.015-.175-.181.014c-1.35.118-2.568.638-3.659 1.561zm5.577-.304l.007.075c.065.181.252.257.56.232l.974-.086.165-.19c-.017-.185-.383-.247-1.102-.185l-.604.154z" fill="#82c566"/></svg>