<svg viewBox="0 0 1300 1275" xmlns="http://www.w3.org/2000/svg" fill-rule="evenodd" clip-rule="evenodd" stroke-miterlimit="1.414"><path fill="#fff" fill-rule="nonzero" d="M2.083 1053.897h1294.518v219.02H2.083z"/><path fill="none" stroke="#ed1c24" d="M2.083 1053.897h1294.518v219.02H2.083z" stroke-width="4.16667"/><path d="M102.625 1173.493c-2.604.554-5.325 1-8.175 1.35-2.85.354-5.73.754-8.625 1.2-2.904.454-5.5 1.179-7.8 2.179-2.304 1-4.175 2.425-5.625 4.27-1.45 1.855-2.175 4.38-2.175 7.58 0 2.1.425 3.875 1.275 5.325a10.586 10.586 0 0 0 3.3 3.525c1.35.9 2.95 1.55 4.8 1.946 1.85.404 3.725.604 5.625.604 4.2 0 7.8-.58 10.8-1.725 3-1.15 5.45-2.6 7.35-4.35 1.9-1.75 3.3-3.65 4.2-5.7.9-2.05 1.35-3.975 1.35-5.78v-13.05c-1.6 1.2-3.7 2.08-6.3 2.626zm17.85 39.079c-3.3 0-5.925-.93-7.875-2.775-1.95-1.85-2.925-4.88-2.925-9.08-3.504 4.2-7.575 7.23-12.225 9.08-4.65 1.846-9.675 2.775-15.075 2.775-3.5 0-6.8-.38-9.9-1.125-3.1-.75-5.825-2-8.175-3.754-2.35-1.746-4.2-3.996-5.55-6.746-1.35-2.75-2.025-6.075-2.025-9.98 0-4.395.75-7.995 2.25-10.795s3.47-5.075 5.925-6.825c2.45-1.75 5.25-3.075 8.4-3.975a98.443 98.443 0 0 1 9.675-2.25c3.5-.7 6.825-1.225 9.975-1.575 3.15-.35 5.925-.85 8.325-1.5 2.4-.654 4.296-1.6 5.7-2.85 1.4-1.25 2.1-3.075 2.1-5.475 0-2.8-.525-5.05-1.575-6.754-1.05-1.696-2.4-2.996-4.05-3.896-1.65-.9-3.504-1.5-5.55-1.804a42.498 42.498 0 0 0-6.075-.446c-5.4 0-9.9 1.025-13.5 3.07-3.6 2.05-5.55 5.93-5.85 11.626h-12.75c.2-4.796 1.2-8.85 3-12.15 1.8-3.3 4.2-5.971 7.2-8.025 3-2.046 6.45-3.521 10.35-4.421 3.9-.9 8-1.35 12.3-1.35 3.5 0 6.975.25 10.425.746 3.45.504 6.575 1.529 9.375 3.079 2.8 1.55 5.05 3.725 6.75 6.525 1.7 2.8 2.55 6.45 2.55 10.95v39.896c0 3.004.175 5.204.525 6.6.35 1.404 1.52 2.104 3.525 2.104 1.1 0 2.4-.25 3.9-.754v9.9c-2.2 1.3-5.25 1.954-9.15 1.954zM155.875 1193.593a13.604 13.604 0 0 0 4.721 4.654c1.954 1.15 4.15 1.975 6.6 2.47a37.5 37.5 0 0 0 7.58.755c1.995 0 4.095-.15 6.3-.45 2.195-.304 4.22-.85 6.074-1.654 1.846-.796 3.375-1.975 4.575-3.525 1.2-1.55 1.8-3.521 1.8-5.921 0-3.3-1.254-5.8-3.754-7.5-2.5-1.7-5.62-3.08-9.375-4.125-3.746-1.05-7.82-2-12.22-2.85-4.405-.85-8.476-2.05-12.226-3.6-3.75-1.55-6.879-3.725-9.375-6.53-2.5-2.795-3.75-6.695-3.75-11.695 0-3.904.87-7.254 2.625-10.05a21.378 21.378 0 0 1 6.75-6.825c2.75-1.75 5.85-3.054 9.3-3.904 3.446-.846 6.875-1.271 10.275-1.271 4.396 0 8.446.37 12.15 1.12 3.696.755 6.971 2.05 9.825 3.905 2.85 1.85 5.125 4.35 6.825 7.496 1.696 3.15 2.7 7.079 2.996 11.779h-12.746c-.204-2.5-.854-4.575-1.95-6.225a12.864 12.864 0 0 0-4.2-3.98 19.164 19.164 0 0 0-5.625-2.17c-2.05-.45-4.129-.675-6.225-.675-1.9 0-3.825.15-5.775.446-1.95.304-3.729.825-5.325 1.575-1.604.754-2.904 1.754-3.904 3.004s-1.496 2.87-1.496 4.875c0 2.2.771 4.025 2.325 5.47 1.546 1.455 3.521 2.655 5.925 3.605 2.4.95 5.1 1.746 8.096 2.4 3.004.65 6.004 1.325 9.004 2.025 3.2.7 6.321 1.55 9.375 2.546 3.05 1.004 5.746 2.329 8.096 3.975a19.534 19.534 0 0 1 5.704 6.229c1.446 2.5 2.175 5.6 2.175 9.3 0 4.7-.975 8.6-2.929 11.7a22.736 22.736 0 0 1-7.65 7.496c-3.146 1.904-6.696 3.229-10.646 3.979a63.39 63.39 0 0 1-11.775 1.125c-4.304 0-8.4-.45-12.3-1.35-3.904-.9-7.35-2.375-10.35-4.43-3-2.045-5.4-4.745-7.2-8.095-1.804-3.354-2.804-7.425-3-12.23h12.746c.1 2.8.754 5.18 1.954 7.126zM235.521 1193.593c1.204 1.95 2.775 3.504 4.725 4.654 1.95 1.15 4.15 1.975 6.6 2.47a37.5 37.5 0 0 0 7.58.755c1.995 0 4.095-.15 6.295-.45 2.2-.304 4.225-.85 6.075-1.654 1.85-.796 3.375-1.975 4.575-3.525 1.204-1.55 1.804-3.521 1.804-5.921 0-3.3-1.254-5.8-3.754-7.5-2.5-1.7-5.62-3.08-9.375-4.125-3.75-1.05-7.825-2-12.22-2.85-4.405-.85-8.48-2.05-12.23-3.6-3.746-1.55-6.875-3.725-9.375-6.53-2.5-2.795-3.746-6.695-3.746-11.695 0-3.904.871-7.254 2.621-10.05 1.75-2.8 4-5.075 6.754-6.825 2.746-1.75 5.846-3.054 9.3-3.904 3.446-.846 6.871-1.271 10.271-1.271 4.4 0 8.45.37 12.15 1.12 3.7.755 6.975 2.05 9.825 3.905 2.85 1.85 5.125 4.35 6.825 7.496 1.7 3.15 2.7 7.079 3 11.779h-12.746c-.204-2.5-.854-4.575-1.954-6.225a12.85 12.85 0 0 0-4.196-3.98 19.145 19.145 0 0 0-5.629-2.17 28.95 28.95 0 0 0-6.225-.675c-1.9 0-3.825.15-5.77.446-1.955.304-3.73.825-5.33 1.575-1.6.754-2.9 1.754-3.9 3.004s-1.5 2.87-1.5 4.875c0 2.2.775 4.025 2.325 5.47 1.55 1.455 3.525 2.655 5.925 3.605 2.4.95 5.1 1.746 8.1 2.4 3 .65 6.004 1.325 9 2.025 3.2.7 6.325 1.55 9.375 2.546 3.05 1.004 5.75 2.329 8.1 3.975a19.474 19.474 0 0 1 5.7 6.229c1.45 2.5 2.175 5.6 2.175 9.3 0 4.7-.975 8.6-2.925 11.7-1.95 3.1-4.496 5.6-7.65 7.496-3.15 1.904-6.7 3.229-10.646 3.979a63.434 63.434 0 0 1-11.779 1.125c-4.3 0-8.4-.45-12.3-1.35-3.9-.9-7.346-2.375-10.35-4.43-2.996-2.045-5.4-4.745-7.2-8.095-1.8-3.354-2.8-7.425-2.996-12.23h12.746c.1 2.8.75 5.18 1.95 7.126zM357.625 1210.922v-12.304h-.304c-2.7 4.804-6.146 8.325-10.35 10.579-4.196 2.25-9.146 3.375-14.846 3.375-5.104 0-9.354-.675-12.754-2.025-3.396-1.35-6.15-3.275-8.25-5.775-2.096-2.5-3.575-5.475-4.425-8.93-.85-3.45-1.27-7.274-1.27-11.47v-51.004h12.745v52.504c0 4.796 1.4 8.6 4.204 11.396 2.796 2.804 6.646 4.204 11.55 4.204 3.9 0 7.275-.604 10.125-1.804 2.846-1.2 5.221-2.896 7.125-5.096 1.896-2.2 3.321-4.775 4.275-7.73.946-2.945 1.421-6.17 1.421-9.67v-43.804h12.754v77.554h-12zM405.025 1133.368v16.35h.296c3.1-6.3 6.904-10.95 11.404-13.95 4.5-2.996 10.2-4.396 17.1-4.196v13.5c-5.1 0-9.45.7-13.05 2.1-3.6 1.4-6.504 3.45-8.704 6.146-2.2 2.704-3.8 5.979-4.796 9.829-1.004 3.85-1.504 8.275-1.504 13.27v34.505h-12.75v-77.554h12.004zM497.205 1156.172c-1.155-2.704-2.7-5.025-4.655-6.98-1.945-1.95-4.25-3.5-6.895-4.645-2.655-1.15-5.58-1.725-8.78-1.725-3.3 0-6.275.575-8.92 1.725-2.655 1.146-4.93 2.725-6.83 4.725-1.9 2-3.4 4.325-4.5 6.975-1.1 2.65-1.75 5.475-1.945 8.475h44.545c-.2-3-.875-5.854-2.02-8.55zm3.07 49.796c-5.8 4.404-13.1 6.604-21.895 6.604-6.205 0-11.58-1-16.13-3.004-4.55-1.996-8.375-4.796-11.47-8.396-3.105-3.604-5.43-7.9-6.98-12.9-1.55-5-2.425-10.45-2.625-16.354 0-5.896.905-11.3 2.7-16.196 1.8-4.9 4.325-9.154 7.58-12.75 3.245-3.6 7.095-6.4 11.55-8.404 4.445-1.996 9.32-2.996 14.62-2.996 6.905 0 12.625 1.42 17.175 4.275 4.55 2.85 8.2 6.475 10.95 10.87 2.75 4.405 4.655 9.205 5.705 14.4 1.045 5.2 1.47 10.155 1.27 14.855H454.68c-.105 3.396.295 6.625 1.2 9.67.895 3.055 2.345 5.755 4.35 8.105 1.995 2.35 4.545 4.225 7.65 5.62 3.095 1.405 6.75 2.105 10.945 2.105 5.4 0 9.825-1.25 13.275-3.75 3.455-2.5 5.725-6.3 6.825-11.404h12.605c-1.705 8.7-5.455 15.25-11.255 19.65zM582.775 1210.922v-12.304h-.304c-2.7 4.804-6.146 8.325-10.346 10.579-4.2 2.25-9.15 3.375-14.85 3.375-5.104 0-9.354-.675-12.75-2.025-3.404-1.35-6.154-3.275-8.254-5.775-2.1-2.5-3.575-5.475-4.42-8.93-.855-3.45-1.276-7.274-1.276-11.47v-51.004h12.746v52.504c0 4.796 1.4 8.6 4.204 11.396 2.796 2.804 6.646 4.204 11.55 4.204 3.9 0 7.275-.604 10.125-1.804 2.846-1.2 5.221-2.896 7.125-5.096 1.896-2.2 3.321-4.775 4.275-7.73.946-2.945 1.425-6.17 1.425-9.67v-43.804h12.75v77.554h-12zM630.176 1133.368v16.35h.3c3.1-6.3 6.9-10.95 11.4-13.95 4.5-2.996 10.2-4.396 17.1-4.196v13.5c-5.1 0-9.45.7-13.05 2.1-3.6 1.4-6.505 3.45-8.7 6.146-2.2 2.704-3.805 5.979-4.8 9.829-1 3.85-1.5 8.275-1.5 13.27v34.505h-12.75v-77.554h12zM731.576 1133.368v11.404h.295c5.8-8.8 14.15-13.2 25.055-13.2 4.795 0 9.145 1 13.045 2.996 3.9 2.004 6.65 5.4 8.25 10.204 2.6-4.2 6.025-7.45 10.28-9.75 4.245-2.3 8.925-3.45 14.02-3.45 3.905 0 7.43.425 10.58 1.27 3.15.85 5.85 2.18 8.095 3.976 2.255 1.804 3.996 4.129 5.25 6.975 1.255 2.854 1.88 6.279 1.88 10.279v56.85h-12.75v-50.854c0-2.4-.205-4.65-.605-6.75-.395-2.1-1.145-3.921-2.245-5.471-1.105-1.55-2.63-2.775-4.58-3.675-1.945-.904-4.479-1.35-7.57-1.35-6.3 0-11.255 1.796-14.85 5.4-3.605 3.6-5.405 8.396-5.405 14.4v48.3h-12.745v-50.854c0-2.496-.225-4.8-.675-6.9-.45-2.1-1.23-3.921-2.325-5.471-1.105-1.55-2.58-2.75-4.425-3.604-1.855-.846-4.23-1.271-7.125-1.271-3.705 0-6.88.75-9.53 2.25-2.65 1.496-4.795 3.3-6.445 5.4-1.65 2.1-2.85 4.27-3.605 6.52-.745 2.25-1.125 4.126-1.125 5.63v48.3h-12.745v-77.554h12zM865.672 1133.368v77.554h-12.746v-77.554h12.746zm-12.746-13.946v-15.604h12.746v15.604h-12.746zM890.872 1103.818h12.75v107.104h-12.75zM941.563 1133.368v77.554h-12.746v-77.554h12.746zm-12.746-13.946v-15.604h12.746v15.604h-12.746zM999.16 1133.368v11.25h-15.45v48.15c0 1.5.128 2.704.374 3.6.25.9.725 1.604 1.43 2.1.695.504 1.67.829 2.92.979 1.25.15 2.88.22 4.88.22h5.845v11.255h-9.75c-3.3 0-6.125-.225-8.475-.68-2.346-.445-4.25-1.27-5.7-2.47-1.45-1.2-2.52-2.904-3.22-5.104-.7-2.196-1.05-5.1-1.05-8.7v-49.35h-13.2v-11.25h13.2v-23.25h12.745v23.25h15.45zM1059.61 1173.493c-2.6.554-5.322 1-8.176 1.35-2.846.354-5.725.754-8.62 1.2-2.9.454-5.5 1.179-7.8 2.179-2.305 1-4.18 2.425-5.63 4.27-1.446 1.855-2.17 4.38-2.17 7.58 0 2.1.42 3.875 1.27 5.325.854 1.45 1.95 2.625 3.3 3.525 1.354.9 2.95 1.55 4.804 1.946a26.21 26.21 0 0 0 5.621.604c4.2 0 7.8-.58 10.8-1.725 3.004-1.15 5.454-2.6 7.354-4.35 1.896-1.75 3.3-3.65 4.2-5.7.896-2.05 1.35-3.975 1.35-5.78v-13.05c-1.604 1.2-3.704 2.08-6.304 2.626zm17.85 39.079c-3.3 0-5.926-.93-7.876-2.775-1.946-1.85-2.92-4.88-2.92-9.08-3.5 4.2-7.58 7.23-12.226 9.08-4.65 1.846-9.675 2.775-15.075 2.775-3.504 0-6.804-.38-9.9-1.125-3.1-.75-5.829-2-8.175-3.754-2.354-1.746-4.2-3.996-5.55-6.746-1.35-2.75-2.025-6.075-2.025-9.98 0-4.395.746-7.995 2.25-10.795 1.5-2.8 3.475-5.075 5.921-6.825 2.45-1.75 5.25-3.075 8.404-3.975a98.36 98.36 0 0 1 9.671-2.25c3.5-.7 6.83-1.225 9.98-1.575 3.15-.35 5.924-.85 8.324-1.5 2.4-.654 4.296-1.6 5.7-2.85 1.396-1.25 2.1-3.075 2.1-5.475 0-2.8-.525-5.05-1.575-6.754-1.05-1.696-2.4-2.996-4.054-3.896-1.646-.9-3.496-1.5-5.55-1.804a42.454 42.454 0 0 0-6.075-.446c-5.4 0-9.9 1.025-13.496 3.07-3.6 2.05-5.55 5.93-5.85 11.626h-12.754c.2-4.796 1.2-8.85 3.004-12.15 1.8-3.3 4.2-5.971 7.196-8.025 3-2.046 6.45-3.521 10.354-4.421 3.896-.9 8-1.35 12.3-1.35 3.5 0 6.975.25 10.425.746 3.45.504 6.571 1.529 9.375 3.079 2.796 1.55 5.046 3.725 6.75 6.525 1.696 2.8 2.542 6.45 2.542 10.95v39.896c0 3.004.18 5.204.53 6.6.35 1.404 1.528 2.104 3.528 2.104 1.096 0 2.396-.25 3.896-.754v9.9c-2.2 1.3-5.246 1.954-9.15 1.954zM1116.31 1129.06v12.983h.316c5.596-9.921 14.458-14.88 26.6-14.88 5.383 0 9.87.738 13.458 2.213 3.584 1.483 6.492 3.542 8.709 6.18 2.216 2.637 3.77 5.774 4.67 9.416.896 3.641 1.346 7.679 1.346 12.116v53.834h-13.458v-55.417c0-5.067-1.48-9.08-4.433-12.037-2.959-2.95-7.021-4.43-12.196-4.43-4.113 0-7.675.634-10.684 1.9-3.008 1.263-5.516 3.063-7.52 5.384-2.009 2.32-3.509 5.041-4.513 8.154-1.004 3.112-1.504 6.517-1.504 10.212v46.234h-13.458v-81.863h12.666zM1226.668 1129.06v11.878h-16.309v50.825c0 1.584.13 2.85.396 3.8.263.95.763 1.688 1.504 2.213.738.53 1.767.87 3.088 1.03 1.32.157 3.033.24 5.141.24h6.18v11.876h-10.292c-3.483 0-6.47-.238-8.946-.713-2.483-.479-4.487-1.35-6.02-2.612-1.53-1.267-2.663-3.063-3.4-5.384-.742-2.32-1.113-5.383-1.113-9.183v-52.092h-13.93v-11.879h13.93v-24.541h13.462v24.541h16.309z" fill="#ed1c24" fill-rule="nonzero"/><path d="M1240.48 1075.147v179.792" fill="none" stroke-width="2.083335" stroke="#231f20"/><path fill="#007f61" fill-rule="nonzero" d="M178.504.43h941.672v941.658H178.504z"/><path d="M278.209 764.734h740.954L649.288 83.288l-371.08 681.446z" fill="#ed1c24" fill-rule="nonzero"/><path d="M827.859 443.121c-2.45 8.671-2.483 18.267-2.88 27.792V605.17c.467 9.392 1.692 18.684 3.8 27.425h-67.978c2.308-8.42 3.062-17.487 3.35-26.82V476.154c-1.35-11.005-1.188-22.709-4.463-32.9l.05-.163 68.121.03zM1056.96 443.13l.124 40.225v.604c-6.608-2.521-14.1-2.917-21.575-3.321h-69.108l-35.796.133v50.321h100.942c8.662-.804 17.9-.867 25.7-3.783v46.279c-8.017-3.117-17.038-3.18-26.038-3.846l-19.72-.325-39.255.054H931.11v34.104c.467 9.921 1.317 19.738 3.313 29h-66.409c4.521-14.233 2.917-30.716 3.117-46.941V469.517c-.738-8.67-1.333-18.32-3.908-26.387h189.737zM509.125 487.342v115.075c.467 10.192 1.405 20.48 3.871 29.88h-66.129c4.475-15.817 3.046-31.826 3.204-48.184 0 0 .613-97.363 0-98.363l-52.525 115.296c-4.017 10.067-8.77 20.113-10.4 31.25h-42.558c-2.017-10.533-5.871-20.491-10.263-30.008l-54.37-116.546.224 122.2c.813 8.483 1.359 16.613 3.817 24.354h-43.483c2.77-11 2.862-22.554 3.229-34.796V486.146c-.43-14.891-.133-29.962-4.4-43.666h-.192c-.07-.259.192.129.317 0h84.55c2.212 14.287 9.13 25.679 14.7 38.587l38.537 83.671 36.959-79.258v-.134c6.267-13.766 13.3-27.496 16.442-42.866-.796-.584.329.129 0 0h82.108c-4.08 13.983-3.15 29.587-3.638 44.862zM625.63 489.117l-30.792 71.83h62.246l-31.454-71.83zm-27.03-26.704c2.484-6.308 4.771-12.45 5.471-19.6h65.4c1.225 7.942 4.575 14.604 7.6 21.733l78.188 168.03h-69.33c-.645-2.784-1.133-5.805-2.087-8.705-3.383-11.316-8.462-22.7-13.216-33.458H580.52c-4.529 7.167-6.862 15.533-10.329 23.308-2.22 5.9-3.85 12.625-5.317 18.855H521.83l23.091-50.83 53.68-119.333z" fill="#fff" fill-rule="nonzero"/></svg>