  0
SECTION
  2
HEADER
  9
$ACADVER
  1
AC1024
  9
$ACADMAINTVER
 70
     6
  9
$DWGCODEPAGE
  3
ANSI_1252
  9
$INSBASE
 10
0.0
 20
0.0
 30
0.0
  9
$EXTMIN
 10
1.000000000000000E+20
 20
1.000000000000000E+20
 30
1.000000000000000E+20
  9
$EXTMAX
 10
-1.000000000000000E+20
 20
-1.000000000000000E+20
 30
-1.000000000000000E+20
  9
$LIMMIN
 10
0.0
 20
0.0
  9
$LIMMAX
 10
12.0
 20
9.0
  9
$ORTHOMODE
 70
     0
  9
$REGENMODE
 70
     1
  9
$FILLMODE
 70
     1
  9
$QTEXTMODE
 70
     0
  9
$MIRRTEXT
 70
     1
  9
$LTSCALE
 40
1.0
  9
$ATTMODE
 70
     1
  9
$TEXTSIZE
 40
0.2
  9
$TRACEWID
 40
0.05
  9
$TEXTSTYLE
  7
Standard
  9
$CLAYER
  8
0
  9
$CELTYPE
  6
ByLayer
  9
$CECOLOR
 62
   256
  9
$CELTSCALE
 40
1.0
  9
$DISPSILH
 70
     0
  9
$DIMSCALE
 40
1.0
  9
$DIMASZ
 40
0.18
  9
$DIMEXO
 40
0.0625
  9
$DIMDLI
 40
0.38
  9
$DIMRND
 40
0.0
  9
$DIMDLE
 40
0.0
  9
$DIMEXE
 40
0.18
  9
$DIMTP
 40
0.0
  9
$DIMTM
 40
0.0
  9
$DIMTXT
 40
0.18
  9
$DIMCEN
 40
0.09
  9
$DIMTSZ
 40
0.0
  9
$DIMTOL
 70
     0
  9
$DIMLIM
 70
     0
  9
$DIMTIH
 70
     1
  9
$DIMTOH
 70
     1
  9
$DIMSE1
 70
     0
  9
$DIMSE2
 70
     0
  9
$DIMTAD
 70
     0
  9
$DIMZIN
 70
     0
  9
$DIMBLK
  1

  9
$DIMASO
 70
     1
  9
$DIMSHO
 70
     1
  9
$DIMPOST
  1

  9
$DIMAPOST
  1

  9
$DIMALT
 70
     0
  9
$DIMALTD
 70
     2
  9
$DIMALTF
 40
25.4
  9
$DIMLFAC
 40
1.0
  9
$DIMTOFL
 70
     0
  9
$DIMTVP
 40
0.0
  9
$DIMTIX
 70
     0
  9
$DIMSOXD
 70
     0
  9
$DIMSAH
 70
     0
  9
$DIMBLK1
  1

  9
$DIMBLK2
  1

  9
$DIMSTYLE
  2
Standard
  9
$DIMCLRD
 70
     0
  9
$DIMCLRE
 70
     0
  9
$DIMCLRT
 70
     0
  9
$DIMTFAC
 40
1.0
  9
$DIMGAP
 40
0.09
  9
$DIMJUST
 70
     0
  9
$DIMSD1
 70
     0
  9
$DIMSD2
 70
     0
  9
$DIMTOLJ
 70
     1
  9
$DIMTZIN
 70
     0
  9
$DIMALTZ
 70
     0
  9
$DIMALTTZ
 70
     0
  9
$DIMUPT
 70
     0
  9
$DIMDEC
 70
     4
  9
$DIMTDEC
 70
     4
  9
$DIMALTU
 70
     2
  9
$DIMALTTD
 70
     2
  9
$DIMTXSTY
  7
Standard
  9
$DIMAUNIT
 70
     0
  9
$DIMADEC
 70
     0
  9
$DIMALTRND
 40
0.0
  9
$DIMAZIN
 70
     0
  9
$DIMDSEP
 70
    46
  9
$DIMATFIT
 70
     3
  9
$DIMFRAC
 70
     0
  9
$DIMLDRBLK
  1

  9
$DIMLUNIT
 70
     2
  9
$DIMLWD
 70
    -2
  9
$DIMLWE
 70
    -2
  9
$DIMTMOVE
 70
     0
  9
$DIMFXL
 40
1.0
  9
$DIMFXLON
 70
     0
  9
$DIMJOGANG
 40
0.7853981633974483
  9
$DIMTFILL
 70
     0
  9
$DIMTFILLCLR
 70
     0
  9
$DIMARCSYM
 70
     0
  9
$DIMLTYPE
  6

  9
$DIMLTEX1
  6

  9
$DIMLTEX2
  6

  9
$DIMTXTDIRECTION
 70
     0
  9
$LUNITS
 70
     2
  9
$LUPREC
 70
     4
  9
$SKETCHINC
 40
0.1
  9
$FILLETRAD
 40
0.5
  9
$AUNITS
 70
     0
  9
$AUPREC
 70
     0
  9
$MENU
  1
.
  9
$ELEVATION
 40
0.0
  9
$PELEVATION
 40
0.0
  9
$THICKNESS
 40
0.0
  9
$LIMCHECK
 70
     0
  9
$CHAMFERA
 40
0.5
  9
$CHAMFERB
 40
0.5
  9
$CHAMFERC
 40
1.0
  9
$CHAMFERD
 40
0.0
  9
$SKPOLY
 70
     0
  9
$TDCREATE
 40
2457675.704854167
  9
$TDUCREATE
 40
2457675.621520833
  9
$TDUPDATE
 40
2457675.704854386
  9
$TDUUPDATE
 40
2457675.621521053
  9
$TDINDWG
 40
0.0000000116
  9
$TDUSRTIMER
 40
0.0000000116
  9
$USRTIMER
 70
     1
  9
$ANGBASE
 50
0.0
  9
$ANGDIR
 70
     0
  9
$PDMODE
 70
     0
  9
$PDSIZE
 40
0.0
  9
$PLINEWID
 40
0.0
  9
$SPLFRAME
 70
     0
  9
$SPLINETYPE
 70
     6
  9
$SPLINESEGS
 70
     8
  9
$HANDSEED
  5
5F
  9
$SURFTAB1
 70
     6
  9
$SURFTAB2
 70
     6
  9
$SURFTYPE
 70
     6
  9
$SURFU
 70
     6
  9
$SURFV
 70
     6
  9
$UCSBASE
  2

  9
$UCSNAME
  2

  9
$UCSORG
 10
0.0
 20
0.0
 30
0.0
  9
$UCSXDIR
 10
1.0
 20
0.0
 30
0.0
  9
$UCSYDIR
 10
0.0
 20
1.0
 30
0.0
  9
$UCSORTHOREF
  2

  9
$UCSORTHOVIEW
 70
     0
  9
$UCSORGTOP
 10
0.0
 20
0.0
 30
0.0
  9
$UCSORGBOTTOM
 10
0.0
 20
0.0
 30
0.0
  9
$UCSORGLEFT
 10
0.0
 20
0.0
 30
0.0
  9
$UCSORGRIGHT
 10
0.0
 20
0.0
 30
0.0
  9
$UCSORGFRONT
 10
0.0
 20
0.0
 30
0.0
  9
$UCSORGBACK
 10
0.0
 20
0.0
 30
0.0
  9
$PUCSBASE
  2

  9
$PUCSNAME
  2

  9
$PUCSORG
 10
0.0
 20
0.0
 30
0.0
  9
$PUCSXDIR
 10
1.0
 20
0.0
 30
0.0
  9
$PUCSYDIR
 10
0.0
 20
1.0
 30
0.0
  9
$PUCSORTHOREF
  2

  9
$PUCSORTHOVIEW
 70
     0
  9
$PUCSORGTOP
 10
0.0
 20
0.0
 30
0.0
  9
$PUCSORGBOTTOM
 10
0.0
 20
0.0
 30
0.0
  9
$PUCSORGLEFT
 10
0.0
 20
0.0
 30
0.0
  9
$PUCSORGRIGHT
 10
0.0
 20
0.0
 30
0.0
  9
$PUCSORGFRONT
 10
0.0
 20
0.0
 30
0.0
  9
$PUCSORGBACK
 10
0.0
 20
0.0
 30
0.0
  9
$USERI1
 70
     0
  9
$USERI2
 70
     0
  9
$USERI3
 70
     0
  9
$USERI4
 70
     0
  9
$USERI5
 70
     0
  9
$USERR1
 40
0.0
  9
$USERR2
 40
0.0
  9
$USERR3
 40
0.0
  9
$USERR4
 40
0.0
  9
$USERR5
 40
0.0
  9
$WORLDVIEW
 70
     1
  9
$SHADEDGE
 70
     3
  9
$SHADEDIF
 70
    70
  9
$TILEMODE
 70
     1
  9
$MAXACTVP
 70
    64
  9
$PINSBASE
 10
0.0
 20
0.0
 30
0.0
  9
$PLIMCHECK
 70
     0
  9
$PEXTMIN
 10
1.000000000000000E+20
 20
1.000000000000000E+20
 30
1.000000000000000E+20
  9
$PEXTMAX
 10
-1.000000000000000E+20
 20
-1.000000000000000E+20
 30
-1.000000000000000E+20
  9
$PLIMMIN
 10
0.0
 20
0.0
  9
$PLIMMAX
 10
12.0
 20
9.0
  9
$UNITMODE
 70
     0
  9
$VISRETAIN
 70
     1
  9
$PLINEGEN
 70
     0
  9
$PSLTSCALE
 70
     1
  9
$TREEDEPTH
 70
  3020
  9
$CMLSTYLE
  2
Standard
  9
$CMLJUST
 70
     0
  9
$CMLSCALE
 40
1.0
  9
$PROXYGRAPHICS
 70
     1
  9
$MEASUREMENT
 70
     0
  9
$CELWEIGHT
370
    -1
  9
$ENDCAPS
280
     0
  9
$JOINSTYLE
280
     0
  9
$LWDISPLAY
290
     1
  9
$INSUNITS
 70
     1
  9
$HYPERLINKBASE
  1

  9
$STYLESHEET
  1

  9
$XEDIT
290
     1
  9
$CEPSNTYPE
380
     0
  9
$PSTYLEMODE
290
     1
  9
$FINGERPRINTGUID
  2
{FCB7ACC2-5AA5-4CA8-B465-F4C3DCFBE700}
  9
$VERSIONGUID
  2
{FAEB1C32-E019-11D5-929B-00C0DF256EC4}
  9
$EXTNAMES
290
     1
  9
$PSVPSCALE
 40
0.0
  9
$OLESTARTUP
290
     0
  9
$SORTENTS
280
   127
  9
$INDEXCTL
280
     0
  9
$HIDETEXT
280
     1
  9
$XCLIPFRAME
280
     2
  9
$HALOGAP
280
     0
  9
$OBSCOLOR
 70
   257
  9
$OBSLTYPE
280
     0
  9
$INTERSECTIONDISPLAY
280
     0
  9
$INTERSECTIONCOLOR
 70
   257
  9
$DIMASSOC
280
     2
  9
$PROJECTNAME
  1

  9
$CAMERADISPLAY
290
     0
  9
$LENSLENGTH
 40
50.0
  9
$CAMERAHEIGHT
 40
0.0
  9
$STEPSPERSEC
 40
2.0
  9
$STEPSIZE
 40
6.0
  9
$3DDWFPREC
 40
2.0
  9
$PSOLWIDTH
 40
0.25
  9
$PSOLHEIGHT
 40
4.0
  9
$LOFTANG1
 40
1.570796326794897
  9
$LOFTANG2
 40
1.570796326794897
  9
$LOFTMAG1
 40
0.0
  9
$LOFTMAG2
 40
0.0
  9
$LOFTPARAM
 70
     7
  9
$LOFTNORMALS
280
     1
  9
$LATITUDE
 40
37.795
  9
$LONGITUDE
 40
-122.394
  9
$NORTHDIRECTION
 40
0.0
  9
$TIMEZONE
 70
 -8000
  9
$LIGHTGLYPHDISPLAY
280
     1
  9
$TILEMODELIGHTSYNCH
280
     1
  9
$CMATERIAL
347
3C
  9
$SOLIDHIST
280
     1
  9
$SHOWHIST
280
     1
  9
$DWFFRAME
280
     2
  9
$DGNFRAME
280
     2
  9
$REALWORLDSCALE
290
     1
  9
$INTERFERECOLOR
 62
   256
  9
$CSHADOW
280
     0
  9
$SHADOWPLANELOCATION
 40
0.0
  0
ENDSEC
  0
SECTION
  2
CLASSES
  0
CLASS
  1
ACDBDICTIONARYWDFLT
  2
AcDbDictionaryWithDefault
  3
ObjectDBX Classes
 90
        0
 91
        4
280
     0
281
     0
  0
CLASS
  1
VISUALSTYLE
  2
AcDbVisualStyle
  3
ObjectDBX Classes
 90
     4095
 91
        4
280
     0
281
     0
  0
CLASS
  1
MATERIAL
  2
AcDbMaterial
  3
ObjectDBX Classes
 90
     1153
 91
        4
280
     0
281
     0
  0
CLASS
  1
SUN
  2
AcDbSun
  3
SCENEOE
 90
     1024
 91
        4
280
     0
281
     0
  0
ENDSEC
  0
SECTION
  2
TABLES
  0
TABLE
  2
VPORT
  5
8
330
0
100
AcDbSymbolTable
 70
     1
  0
VPORT
  5
29
330
8
100
AcDbSymbolTableRecord
100
AcDbViewportTableRecord
  2
*Active
 70
     0
 10
0.0
 20
0.0
 11
1.0
 21
1.0
 12
0.0
 22
0.0
 13
0.0
 23
0.0
 14
0.5
 24
0.5
 15
0.5
 25
0.5
 16
0.0
 26
0.0
 36
1.0
 17
389.0
 27
185.5
 37
0.0
 40
371.0
 41
2.097035040431267
 42
50.0
 43
0.0
 44
0.0
 50
0.0
 51
0.0
 71
     0
 72
   100
 73
     1
 74
     3
 75
     0
 76
     0
 77
     0
 78
     0
281
     0
 65
     1
110
0.0
120
0.0
130
0.0
111
1.0
121
0.0
131
0.0
112
0.0
122
1.0
132
0.0
 79
     0
146
0.0
 60
     3
 61
     5
292
     1
282
     1
141
0.0
142
0.0
 63
   250
361
3F
  0
ENDTAB
  0
TABLE
  2
LTYPE
  5
5
330
0
100
AcDbSymbolTable
 70
     1
  0
LTYPE
  5
14
330
5
100
AcDbSymbolTableRecord
100
AcDbLinetypeTableRecord
  2
ByBlock
 70
     0
  3

 72
    65
 73
     0
 40
0.0
  0
LTYPE
  5
15
330
5
100
AcDbSymbolTableRecord
100
AcDbLinetypeTableRecord
  2
ByLayer
 70
     0
  3

 72
    65
 73
     0
 40
0.0
  0
LTYPE
  5
16
330
5
100
AcDbSymbolTableRecord
100
AcDbLinetypeTableRecord
  2
Continuous
 70
     0
  3
Solid line
 72
    65
 73
     0
 40
0.0
  0
ENDTAB
  0
TABLE
  2
LAYER
  5
2
330
0
100
AcDbSymbolTable
 70
     2
  0
LAYER
  5
10
330
2
100
AcDbSymbolTableRecord
100
AcDbLayerTableRecord
  2
0
 70
     0
 62
     7
  6
Continuous
370
    -3
390
F
347
3E
  0
LAYER
  5
40
330
2
100
AcDbSymbolTableRecord
100
AcDbLayerTableRecord
  2
Calque 1
 70
     0
 62
     7
  6
Continuous
370
    -3
390
F
347
3E
  0
ENDTAB
  0
TABLE
  2
STYLE
  5
3
330
0
100
AcDbSymbolTable
 70
     1
  0
STYLE
  5
11
330
3
100
AcDbSymbolTableRecord
100
AcDbTextStyleTableRecord
  2
Standard
 70
     0
 40
0.0
 41
1.0
 50
0.0
 71
     0
 42
0.2
  3
txt
  4

  0
ENDTAB
  0
TABLE
  2
VIEW
  5
6
330
0
100
AcDbSymbolTable
 70
     0
  0
ENDTAB
  0
TABLE
  2
UCS
  5
7
330
0
100
AcDbSymbolTable
 70
     0
  0
ENDTAB
  0
TABLE
  2
APPID
  5
9
330
0
100
AcDbSymbolTable
 70
     1
  0
APPID
  5
12
330
9
100
AcDbSymbolTableRecord
100
AcDbRegAppTableRecord
  2
ACAD
 70
     0
  0
ENDTAB
  0
TABLE
  2
DIMSTYLE
  5
A
330
0
100
AcDbSymbolTable
 70
     1
100
AcDbDimStyleTable
  0
DIMSTYLE
105
27
330
A
100
AcDbSymbolTableRecord
100
AcDbDimStyleTableRecord
  2
Standard
 70
     0
178
     0
340
11
  0
ENDTAB
  0
TABLE
  2
BLOCK_RECORD
  5
1
330
0
100
AcDbSymbolTable
 70
     1
  0
BLOCK_RECORD
  5
1F
330
1
100
AcDbSymbolTableRecord
100
AcDbBlockTableRecord
  2
*Model_Space
340
22
 70
     0
280
     1
281
     0
  0
BLOCK_RECORD
  5
1B
330
1
100
AcDbSymbolTableRecord
100
AcDbBlockTableRecord
  2
*Paper_Space
340
1E
 70
     0
280
     1
281
     0
  0
BLOCK_RECORD
  5
23
330
1
100
AcDbSymbolTableRecord
100
AcDbBlockTableRecord
  2
*Paper_Space0
340
26
 70
     0
280
     1
281
     0
  0
ENDTAB
  0
ENDSEC
  0
SECTION
  2
BLOCKS
  0
BLOCK
  5
20
330
1F
100
AcDbEntity
  8
0
100
AcDbBlockBegin
  2
*Model_Space
 70
     0
 10
0.0
 20
0.0
 30
0.0
  3
*Model_Space
  1

  0
ENDBLK
  5
21
330
1F
100
AcDbEntity
  8
0
100
AcDbBlockEnd
  0
BLOCK
  5
1C
330
1B
100
AcDbEntity
 67
     1
  8
0
100
AcDbBlockBegin
  2
*Paper_Space
 70
     0
 10
0.0
 20
0.0
 30
0.0
  3
*Paper_Space
  1

  0
ENDBLK
  5
1D
330
1B
100
AcDbEntity
 67
     1
  8
0
100
AcDbBlockEnd
  0
BLOCK
  5
24
330
23
100
AcDbEntity
  8
0
100
AcDbBlockBegin
  2
*Paper_Space0
 70
     0
 10
0.0
 20
0.0
 30
0.0
  3
*Paper_Space0
  1

  0
ENDBLK
  5
25
330
23
100
AcDbEntity
  8
0
100
AcDbBlockEnd
  0
ENDSEC
  0
SECTION
  2
ENTITIES
  0
SPLINE
  5
41
330
1F
100
AcDbEntity
  8
Calque 1
370
     0
100
AcDbSpline
210
0.0
220
0.0
230
1.0
 70
    11
 71
     3
 72
    35
 73
    31
 74
     0
 42
0.0000000001
 43
0.0000000001
 12
1.0
 22
0.0
 32
0.0
 13
1.0
 23
0.0
 33
0.0
 40
0.0
 40
0.0
 40
0.0
 40
0.0
 40
1.0
 40
1.0
 40
1.0
 40
2.0
 40
2.0
 40
2.0
 40
3.0
 40
3.0
 40
3.0
 40
4.0
 40
4.0
 40
4.0
 40
5.0
 40
5.0
 40
5.0
 40
6.0
 40
6.0
 40
6.0
 40
7.0
 40
7.0
 40
7.0
 40
8.0
 40
8.0
 40
8.0
 40
9.0
 40
9.0
 40
9.0
 40
10.0
 40
10.0
 40
10.0
 40
10.0
 10
325.9339904785156
 20
147.6170043945312
 30
0.0
 10
314.9389953613281
 20
147.6170043945312
 30
0.0
 10
308.8719787597656
 20
144.5660095214844
 30
0.0
 10
300.9049987792969
 20
144.5660095214844
 30
0.0
 10
295.9769897460938
 20
144.5660095214844
 30
0.0
 10
293.7080078125
 20
145.3260040283203
 30
0.0
 10
289.9100036621094
 20
145.3260040283203
 30
0.0
 10
273.6069946289062
 20
145.3260040283203
 30
0.0
 10
265.6409912109375
 20
136.5940093994141
 30
0.0
 10
265.6409912109375
 20
119.9000091552734
 30
0.0
 10
265.6409912109375
 20
119.9000091552734
 30
0.0
 10
265.6409912109375
 20
27.3170166015625
 30
0.0
 10
265.6409912109375
 20
27.3170166015625
 30
0.0
 10
265.6409912109375
 20
12.51303100585938
 30
0.0
 10
270.5789794921875
 20
0.000030517578125
 30
0.0
 10
286.5019836425781
 20
0.000030517578125
 30
0.0
 10
295.9769897460938
 20
0.000030517578125
 30
0.0
 10
303.1839904785156
 20
4.74102783203125
 30
0.0
 10
305.4529724121094
 20
11.00302124023438
 30
0.0
 10
310.3909606933594
 20
24.08602905273438
 30
0.0
 10
310.010986328125
 20
30.72802734375
 30
0.0
 10
323.2849731445312
 20
30.72802734375
 30
0.0
 10
345.2759704589844
 20
30.72802734375
 30
0.0
 10
375.9819641113281
 20
40.60003662109375
 30
0.0
 10
375.9819641113281
 20
90.68304443359375
 30
0.0
 10
375.9819641113281
 20
126.3620452880859
 30
0.0
 10
355.1309509277344
 20
147.6170349121094
 30
0.0
 10
325.9339599609375
 20
147.6170349121094
 30
0.0
 10
325.9339599609375
 20
147.6170349121094
 30
0.0
 10
325.9339904785156
 20
147.6170043945312
 30
0.0
 10
325.9339904785156
 20
147.6170043945312
 30
0.0
  0
SPLINE
  5
42
330
1F
100
AcDbEntity
  8
Calque 1
370
     0
100
AcDbSpline
210
0.0
220
0.0
230
1.0
 70
    11
 71
     3
 72
    35
 73
    31
 74
     0
 42
0.0000000001
 43
0.0000000001
 12
1.0
 22
0.0
 32
0.0
 13
1.0
 23
0.0
 33
0.0
 40
0.0
 40
0.0
 40
0.0
 40
0.0
 40
1.0
 40
1.0
 40
1.0
 40
2.0
 40
2.0
 40
2.0
 40
3.0
 40
3.0
 40
3.0
 40
4.0
 40
4.0
 40
4.0
 40
5.0
 40
5.0
 40
5.0
 40
6.0
 40
6.0
 40
6.0
 40
7.0
 40
7.0
 40
7.0
 40
8.0
 40
8.0
 40
8.0
 40
9.0
 40
9.0
 40
9.0
 40
10.0
 40
10.0
 40
10.0
 40
10.0
 10
446.4959716796875
 20
158.3030090332031
 30
0.0
 10
435.510986328125
 20
158.3030090332031
 30
0.0
 10
429.4339599609375
 20
155.2620086669922
 30
0.0
 10
421.4669799804688
 20
155.2620086669922
 30
0.0
 10
416.5389709472656
 20
155.2620086669922
 30
0.0
 10
414.2699890136719
 20
156.0220031738281
 30
0.0
 10
410.4819946289062
 20
156.0220031738281
 30
0.0
 10
394.1789855957031
 20
156.0220031738281
 30
0.0
 10
386.2030029296875
 20
147.2900085449219
 30
0.0
 10
386.2030029296875
 20
130.5960083007812
 30
0.0
 10
386.2030029296875
 20
130.5960083007812
 30
0.0
 10
386.2030029296875
 20
38.00299072265625
 30
0.0
 10
386.2030029296875
 20
38.00299072265625
 30
0.0
 10
386.2030029296875
 20
23.208984375
 30
0.0
 10
391.1310119628906
 20
10.69598388671875
 30
0.0
 10
407.06298828125
 20
10.69598388671875
 30
0.0
 10
416.5390014648438
 20
10.69598388671875
 30
0.0
 10
423.7559814453125
 20
15.42697143554688
 30
0.0
 10
426.0149841308594
 20
21.68798828125
 30
0.0
 10
430.9529724121094
 20
34.781982421875
 30
0.0
 10
430.572998046875
 20
41.4229736328125
 30
0.0
 10
443.8569946289062
 20
41.4229736328125
 30
0.0
 10
465.8479919433594
 20
41.4229736328125
 30
0.0
 10
496.5440063476562
 20
51.28598022460938
 30
0.0
 10
496.5440063476562
 20
101.3679809570312
 30
0.0
 10
496.5440063476562
 20
137.0469818115234
 30
0.0
 10
475.6929931640625
 20
158.302978515625
 30
0.0
 10
446.4960021972656
 20
158.302978515625
 30
0.0
 10
446.4960021972656
 20
158.302978515625
 30
0.0
 10
446.4959716796875
 20
158.3030090332031
 30
0.0
 10
446.4959716796875
 20
158.3030090332031
 30
0.0
  0
SPLINE
  5
43
330
1F
100
AcDbEntity
  8
Calque 1
370
     0
100
AcDbSpline
210
0.0
220
0.0
230
1.0
 70
    11
 71
     3
 72
    29
 73
    25
 74
     0
 42
0.0000000001
 43
0.0000000001
 12
1.0
 22
0.0
 32
0.0
 13
1.0
 23
0.0
 33
0.0
 40
0.0
 40
0.0
 40
0.0
 40
0.0
 40
1.0
 40
1.0
 40
1.0
 40
2.0
 40
2.0
 40
2.0
 40
3.0
 40
3.0
 40
3.0
 40
4.0
 40
4.0
 40
4.0
 40
5.0
 40
5.0
 40
5.0
 40
6.0
 40
6.0
 40
6.0
 40
7.0
 40
7.0
 40
7.0
 40
8.0
 40
8.0
 40
8.0
 40
8.0
 10
554.5989990234375
 20
127.0040130615234
 30
0.0
 10
526.1619873046875
 20
127.0040130615234
 30
0.0
 10
501.8829956054688
 20
104.6180114746094
 30
0.0
 10
501.8829956054688
 20
68.93902587890625
 30
0.0
 10
501.8829956054688
 20
40.49203491210938
 30
0.0
 10
519.7050170898438
 20
13.155029296875
 30
0.0
 10
557.6279907226562
 20
13.155029296875
 30
0.0
 10
578.47900390625
 20
13.155029296875
 30
0.0
 10
602.3779907226562
 20
24.92803955078125
 30
0.0
 10
602.3779907226562
 20
42.00302124023438
 30
0.0
 10
602.3779907226562
 20
48.44403076171875
 30
0.0
 10
600.47900390625
 20
48.82403564453125
 30
0.0
 10
600.47900390625
 20
54.52603149414062
 30
0.0
 10
600.47900390625
 20
55.65603637695312
 30
0.0
 10
599.7100219726562
 20
57.5660400390625
 30
0.0
 10
602.3779907226562
 20
61.73703002929688
 30
0.0
 10
607.2960205078125
 20
69.69903564453125
 30
0.0
 10
607.6759643554688
 20
73.87103271484375
 30
0.0
 10
607.6759643554688
 20
78.42202758789062
 30
0.0
 10
607.6759643554688
 20
102.3280334472656
 30
0.0
 10
589.4839477539062
 20
127.0040283203125
 30
0.0
 10
554.5989379882812
 20
127.0040283203125
 30
0.0
 10
554.5989379882812
 20
127.0040283203125
 30
0.0
 10
554.5989990234375
 20
127.0040130615234
 30
0.0
 10
554.5989990234375
 20
127.0040130615234
 30
0.0
  0
SPLINE
  5
44
330
1F
100
AcDbEntity
  8
Calque 1
370
     0
100
AcDbSpline
210
0.0
220
0.0
230
1.0
 70
    11
 71
     3
 72
    50
 73
    46
 74
     0
 42
0.0000000001
 43
0.0000000001
 12
1.0
 22
0.0
 32
0.0
 13
1.0
 23
0.0
 33
0.0
 40
0.0
 40
0.0
 40
0.0
 40
0.0
 40
1.0
 40
1.0
 40
1.0
 40
2.0
 40
2.0
 40
2.0
 40
3.0
 40
3.0
 40
3.0
 40
4.0
 40
4.0
 40
4.0
 40
5.0
 40
5.0
 40
5.0
 40
6.0
 40
6.0
 40
6.0
 40
7.0
 40
7.0
 40
7.0
 40
8.0
 40
8.0
 40
8.0
 40
9.0
 40
9.0
 40
9.0
 40
10.0
 40
10.0
 40
10.0
 40
11.0
 40
11.0
 40
11.0
 40
12.0
 40
12.0
 40
12.0
 40
13.0
 40
13.0
 40
13.0
 40
14.0
 40
14.0
 40
14.0
 40
15.0
 40
15.0
 40
15.0
 40
15.0
 10
682.3599853515625
 20
138.9490051269531
 30
0.0
 10
670.2249755859375
 20
138.9490051269531
 30
0.0
 10
664.91796875
 20
135.9179992675781
 30
0.0
 10
656.5809936523438
 20
135.9179992675781
 30
0.0
 10
645.2059936523438
 20
135.9179992675781
 30
0.0
 10
647.0960083007812
 20
136.6679992675781
 30
0.0
 10
639.8989868164062
 20
136.6679992675781
 30
0.0
 10
624.3460083007812
 20
136.6679992675781
 30
0.0
 10
616.3789672851562
 20
127.5659942626953
 30
0.0
 10
616.3789672851562
 20
110.4920043945312
 30
0.0
 10
616.3789672851562
 20
110.4920043945312
 30
0.0
 10
616.3789672851562
 20
52.0570068359375
 30
0.0
 10
616.3789672851562
 20
52.0570068359375
 30
0.0
 10
616.3789672851562
 20
35.37301635742188
 30
0.0
 10
620.9269409179688
 20
23.22000122070312
 30
0.0
 10
638.3789672851562
 20
23.22000122070312
 30
0.0
 10
652.032958984375
 20
23.22000122070312
 30
0.0
 10
660.7499389648438
 20
33.46200561523438
 30
0.0
 10
660.7499389648438
 20
49.39599609375
 30
0.0
 10
660.7499389648438
 20
49.39599609375
 30
0.0
 10
660.7499389648438
 20
74.06298828125
 30
0.0
 10
660.7499389648438
 20
74.06298828125
 30
0.0
 10
660.7499389648438
 20
83.92498779296875
 30
0.0
 10
661.888916015625
 20
94.177978515625
 30
0.0
 10
667.9559326171875
 20
94.177978515625
 30
0.0
 10
670.9849243164062
 20
94.177978515625
 30
0.0
 10
675.52294921875
 20
92.2769775390625
 30
0.0
 10
675.52294921875
 20
74.06298828125
 30
0.0
 10
675.52294921875
 20
74.06298828125
 30
0.0
 10
675.52294921875
 20
49.39599609375
 30
0.0
 10
675.52294921875
 20
49.39599609375
 30
0.0
 10
675.52294921875
 20
31.94198608398438
 30
0.0
 10
684.2489624023438
 20
23.22000122070312
 30
0.0
 10
698.29296875
 20
23.22000122070312
 30
0.0
 10
710.7979736328125
 20
23.22000122070312
 30
0.0
 10
719.9039916992188
 20
31.56201171875
 30
0.0
 10
719.9039916992188
 20
48.635986328125
 30
0.0
 10
719.9039916992188
 20
48.635986328125
 30
0.0
 10
719.9039916992188
 20
90.38699340820312
 30
0.0
 10
719.9039916992188
 20
90.38699340820312
 30
0.0
 10
719.9039916992188
 20
116.56298828125
 30
0.0
 10
712.697021484375
 20
138.9489898681641
 30
0.0
 10
682.3599853515625
 20
138.9489898681641
 30
0.0
 10
682.3599853515625
 20
138.9489898681641
 30
0.0
 10
682.3599853515625
 20
138.9490051269531
 30
0.0
 10
682.3599853515625
 20
138.9490051269531
 30
0.0
  0
SPLINE
  5
45
330
1F
100
AcDbEntity
  8
Calque 1
370
     0
100
AcDbSpline
210
0.0
220
0.0
230
1.0
 70
    11
 71
     3
 72
    50
 73
    46
 74
     0
 42
0.0000000001
 43
0.0000000001
 12
1.0
 22
0.0
 32
0.0
 13
1.0
 23
0.0
 33
0.0
 40
0.0
 40
0.0
 40
0.0
 40
0.0
 40
1.0
 40
1.0
 40
1.0
 40
2.0
 40
2.0
 40
2.0
 40
3.0
 40
3.0
 40
3.0
 40
4.0
 40
4.0
 40
4.0
 40
5.0
 40
5.0
 40
5.0
 40
6.0
 40
6.0
 40
6.0
 40
7.0
 40
7.0
 40
7.0
 40
8.0
 40
8.0
 40
8.0
 40
9.0
 40
9.0
 40
9.0
 40
10.0
 40
10.0
 40
10.0
 40
11.0
 40
11.0
 40
11.0
 40
12.0
 40
12.0
 40
12.0
 40
13.0
 40
13.0
 40
13.0
 40
14.0
 40
14.0
 40
14.0
 40
15.0
 40
15.0
 40
15.0
 40
15.0
 10
101.166015625
 20
143.8130035400391
 30
0.0
 10
81.95501708984375
 20
143.8130035400391
 30
0.0
 10
84.65401458740234
 20
144.9530029296875
 30
0.0
 10
79.65601348876953
 20
159.7570037841797
 30
0.0
 10
76.96701049804688
 20
168.1090087890625
 30
0.0
 10
73.89801025390625
 20
175.3110046386719
 30
0.0
 10
59.29501342773438
 20
175.3110046386719
 30
0.0
 10
38.16401290893555
 20
175.3110046386719
 30
0.0
 10
38.93401336669922
 20
154.0559997558594
 30
0.0
 10
38.93401336669922
 20
141.9230041503906
 30
0.0
 10
38.93401336669922
 20
141.9230041503906
 30
0.0
 10
38.93401336669922
 20
55.781005859375
 30
0.0
 10
38.93401336669922
 20
55.781005859375
 30
0.0
 10
38.93401336669922
 20
40.99700927734375
 30
0.0
 10
46.61001205444336
 20
31.114990234375
 30
0.0
 10
61.60401153564453
 20
31.114990234375
 30
0.0
 10
73.11901092529297
 20
31.114990234375
 30
0.0
 10
81.18501281738281
 20
41.36700439453125
 30
0.0
 10
81.18501281738281
 20
55.781005859375
 30
0.0
 10
81.18501281738281
 20
55.781005859375
 30
0.0
 10
81.18501281738281
 20
82.72799682617188
 30
0.0
 10
81.18501281738281
 20
82.72799682617188
 30
0.0
 10
81.18501281738281
 20
95.6309814453125
 30
0.0
 10
84.2640151977539
 20
102.072998046875
 30
0.0
 10
90.4110107421875
 20
102.072998046875
 30
0.0
 10
96.17900848388672
 20
102.072998046875
 30
0.0
 10
99.24700927734375
 20
96.3909912109375
 30
0.0
 10
99.24700927734375
 20
84.61801147460938
 30
0.0
 10
99.24700927734375
 20
84.61801147460938
 30
0.0
 10
99.24700927734375
 20
55.781005859375
 30
0.0
 10
99.24700927734375
 20
55.781005859375
 30
0.0
 10
99.24700927734375
 20
39.46701049804688
 30
0.0
 10
106.1640090942383
 20
31.114990234375
 30
0.0
 10
121.1480102539062
 20
31.114990234375
 30
0.0
 10
135.7410125732422
 20
31.114990234375
 30
0.0
 10
141.5090026855469
 20
40.23699951171875
 30
0.0
 10
141.5090026855469
 20
66.79400634765625
 30
0.0
 10
141.5090026855469
 20
66.79400634765625
 30
0.0
 10
141.5090026855469
 20
95.25100708007812
 30
0.0
 10
141.5090026855469
 20
95.25100708007812
 30
0.0
 10
141.5090026855469
 20
130.1600036621094
 30
0.0
 10
127.6750030517578
 20
143.8130035400391
 30
0.0
 10
101.1660003662109
 20
143.8130035400391
 30
0.0
 10
101.1660003662109
 20
143.8130035400391
 30
0.0
 10
101.166015625
 20
143.8130035400391
 30
0.0
 10
101.166015625
 20
143.8130035400391
 30
0.0
  0
SPLINE
  5
46
330
1F
100
AcDbEntity
  8
Calque 1
370
     0
100
AcDbSpline
210
0.0
220
0.0
230
1.0
 70
    11
 71
     3
 72
    38
 73
    34
 74
     0
 42
0.0000000001
 43
0.0000000001
 12
1.0
 22
0.0
 32
0.0
 13
1.0
 23
0.0
 33
0.0
 40
0.0
 40
0.0
 40
0.0
 40
0.0
 40
1.0
 40
1.0
 40
1.0
 40
2.0
 40
2.0
 40
2.0
 40
3.0
 40
3.0
 40
3.0
 40
4.0
 40
4.0
 40
4.0
 40
5.0
 40
5.0
 40
5.0
 40
6.0
 40
6.0
 40
6.0
 40
7.0
 40
7.0
 40
7.0
 40
8.0
 40
8.0
 40
8.0
 40
9.0
 40
9.0
 40
9.0
 40
10.0
 40
10.0
 40
10.0
 40
11.0
 40
11.0
 40
11.0
 40
11.0
 10
201.9700164794922
 20
153.5180053710938
 30
0.0
 10
179.9800109863281
 20
153.5180053710938
 30
0.0
 10
157.989013671875
 20
142.8860015869141
 30
0.0
 10
157.989013671875
 20
125.0709991455078
 30
0.0
 10
157.989013671875
 20
115.5690002441406
 30
0.0
 10
164.0570068359375
 20
111.0180053710938
 30
0.0
 10
164.4360198974609
 20
106.0870056152344
 30
0.0
 10
164.4360198974609
 20
104.5760192871094
 30
0.0
 10
163.4870147705078
 20
101.906005859375
 30
0.0
 10
161.3980255126953
 20
98.875
 30
0.0
 10
161.3980255126953
 20
98.875
 30
0.0
 10
153.8110198974609
 20
87.87200927734375
 30
0.0
 10
153.8110198974609
 20
87.87200927734375
 30
0.0
 10
151.9220123291016
 20
84.45101928710938
 30
0.0
 10
150.4030151367188
 20
77.239013671875
 30
0.0
 10
150.4030151367188
 20
69.28701782226562
 30
0.0
 10
150.4030151367188
 20
50.30300903320312
 30
0.0
 10
167.4650115966797
 20
34.7490234375
 30
0.0
 10
189.4650115966797
 20
34.7490234375
 30
0.0
 10
198.1820068359375
 20
34.7490234375
 30
0.0
 10
209.1770172119141
 20
39.11001586914062
 30
0.0
 10
217.5130157470703
 20
38.54000854492188
 30
0.0
 10
217.5130157470703
 20
38.54000854492188
 30
0.0
 10
232.3070220947266
 20
37.39901733398438
 30
0.0
 10
232.3070220947266
 20
37.39901733398438
 30
0.0
 10
247.1000213623047
 20
36.27902221679688
 30
0.0
 10
254.3070220947266
 20
45.00100708007812
 30
0.0
 10
254.3070220947266
 20
59.79501342773438
 30
0.0
 10
254.3070220947266
 20
59.79501342773438
 30
0.0
 10
254.3070220947266
 20
101.906005859375
 30
0.0
 10
254.3070220947266
 20
101.906005859375
 30
0.0
 10
254.3070220947266
 20
140.6150054931641
 30
0.0
 10
240.6430206298828
 20
153.5180053710938
 30
0.0
 10
201.9700164794922
 20
153.5180053710938
 30
0.0
  0
SPLINE
  5
47
330
1F
100
AcDbEntity
  8
Calque 1
370
     0
100
AcDbSpline
210
0.0
220
0.0
230
1.0
 70
    11
 71
     3
 72
    20
 73
    16
 74
     0
 42
0.0000000001
 43
0.0000000001
 12
1.0
 22
0.0
 32
0.0
 13
1.0
 23
0.0
 33
0.0
 40
0.0
 40
0.0
 40
0.0
 40
0.0
 40
1.0
 40
1.0
 40
1.0
 40
2.0
 40
2.0
 40
2.0
 40
3.0
 40
3.0
 40
3.0
 40
4.0
 40
4.0
 40
4.0
 40
5.0
 40
5.0
 40
5.0
 40
5.0
 10
558.7780151367188
 20
48.06399536132812
 30
0.0
 10
556.489013671875
 20
48.06399536132812
 30
0.0
 10
551.9410400390625
 20
48.82400512695312
 30
0.0
 10
551.9410400390625
 20
53.0050048828125
 30
0.0
 10
551.9410400390625
 20
54.14599609375
 30
0.0
 10
553.8300170898438
 20
57.17599487304688
 30
0.0
 10
559.1470336914062
 20
57.17599487304688
 30
0.0
 10
561.7960205078125
 20
57.17599487304688
 30
0.0
 10
565.9640502929688
 20
56.03598022460938
 30
0.0
 10
565.9640502929688
 20
53.385009765625
 30
0.0
 10
565.9640502929688
 20
49.21401977539062
 30
0.0
 10
561.4160766601562
 20
48.06399536132812
 30
0.0
 10
558.778076171875
 20
48.06399536132812
 30
0.0
 10
558.778076171875
 20
48.06399536132812
 30
0.0
 10
558.7780151367188
 20
48.06399536132812
 30
0.0
 10
558.7780151367188
 20
48.06399536132812
 30
0.0
  0
SPLINE
  5
48
330
1F
100
AcDbEntity
  8
Calque 1
370
     0
100
AcDbSpline
210
0.0
220
0.0
230
1.0
 70
    11
 71
     3
 72
    17
 73
    13
 74
     0
 42
0.0000000001
 43
0.0000000001
 12
1.0
 22
0.0
 32
0.0
 13
1.0
 23
0.0
 33
0.0
 40
0.0
 40
0.0
 40
0.0
 40
0.0
 40
1.0
 40
1.0
 40
1.0
 40
2.0
 40
2.0
 40
2.0
 40
3.0
 40
3.0
 40
3.0
 40
4.0
 40
4.0
 40
4.0
 40
4.0
 10
199.3210144042969
 20
62.82598876953125
 30
0.0
 10
195.5330200195312
 20
62.82598876953125
 30
0.0
 10
190.5950164794922
 20
64.72598266601562
 30
0.0
 10
190.5950164794922
 20
71.927978515625
 30
0.0
 10
190.5950164794922
 20
74.21896362304688
 30
0.0
 10
194.0130157470703
 20
81.03997802734375
 30
0.0
 10
202.7300109863281
 20
81.03997802734375
 30
0.0
 10
209.1770172119141
 20
81.03997802734375
 30
0.0
 10
210.3160095214844
 20
76.10897827148438
 30
0.0
 10
210.3160095214844
 20
73.8389892578125
 30
0.0
 10
210.3160095214844
 20
68.13699340820312
 30
0.0
 10
205.3780059814453
 20
62.82598876953125
 30
0.0
 10
199.3210144042969
 20
62.82598876953125
 30
0.0
  0
SPLINE
  5
49
330
1F
100
AcDbEntity
  8
Calque 1
370
     0
100
AcDbSpline
210
0.0
220
0.0
230
1.0
 70
    11
 71
     3
 72
    20
 73
    16
 74
     0
 42
0.0000000001
 43
0.0000000001
 12
1.0
 22
0.0
 32
0.0
 13
1.0
 23
0.0
 33
0.0
 40
0.0
 40
0.0
 40
0.0
 40
0.0
 40
1.0
 40
1.0
 40
1.0
 40
2.0
 40
2.0
 40
2.0
 40
3.0
 40
3.0
 40
3.0
 40
4.0
 40
4.0
 40
4.0
 40
5.0
 40
5.0
 40
5.0
 40
5.0
 10
321.0060119628906
 20
68.677001953125
 30
0.0
 10
313.4200134277344
 20
68.677001953125
 30
0.0
 10
308.4920043945312
 20
76.26901245117188
 30
0.0
 10
308.4920043945312
 20
90.68301391601562
 30
0.0
 10
308.4920043945312
 20
102.0660095214844
 30
0.0
 10
314.1790161132812
 20
109.6670227050781
 30
0.0
 10
321.7659912109375
 20
109.6670227050781
 30
0.0
 10
329.3529968261719
 20
109.6670227050781
 30
0.0
 10
334.281005859375
 20
100.1750183105469
 30
0.0
 10
334.281005859375
 20
88.79202270507812
 30
0.0
 10
334.281005859375
 20
75.1390380859375
 30
0.0
 10
327.4540100097656
 20
68.67703247070312
 30
0.0
 10
321.0060119628906
 20
68.67703247070312
 30
0.0
 10
321.0060119628906
 20
68.67703247070312
 30
0.0
 10
321.0060119628906
 20
68.677001953125
 30
0.0
 10
321.0060119628906
 20
68.677001953125
 30
0.0
  0
SPLINE
  5
4A
330
1F
100
AcDbEntity
  8
Calque 1
370
     0
100
AcDbSpline
210
0.0
220
0.0
230
1.0
 70
    11
 71
     3
 72
    20
 73
    16
 74
     0
 42
0.0000000001
 43
0.0000000001
 12
1.0
 22
0.0
 32
0.0
 13
1.0
 23
0.0
 33
0.0
 40
0.0
 40
0.0
 40
0.0
 40
0.0
 40
1.0
 40
1.0
 40
1.0
 40
2.0
 40
2.0
 40
2.0
 40
3.0
 40
3.0
 40
3.0
 40
4.0
 40
4.0
 40
4.0
 40
5.0
 40
5.0
 40
5.0
 40
5.0
 10
441.5679931640625
 20
79.37301635742188
 30
0.0
 10
433.9819946289062
 20
79.37301635742188
 30
0.0
 10
429.0440063476562
 20
86.96502685546875
 30
0.0
 10
429.0440063476562
 20
101.3680114746094
 30
0.0
 10
429.0440063476562
 20
112.7610168457031
 30
0.0
 10
434.7409973144531
 20
120.3530120849609
 30
0.0
 10
442.3280029296875
 20
120.3530120849609
 30
0.0
 10
449.9049987792969
 20
120.3530120849609
 30
0.0
 10
454.8420104980469
 20
110.8610229492188
 30
0.0
 10
454.8420104980469
 20
99.48800659179688
 30
0.0
 10
454.8420104980469
 20
85.82501220703125
 30
0.0
 10
448.0250244140625
 20
79.37301635742188
 30
0.0
 10
441.5680236816406
 20
79.37301635742188
 30
0.0
 10
441.5680236816406
 20
79.37301635742188
 30
0.0
 10
441.5679931640625
 20
79.37301635742188
 30
0.0
 10
441.5679931640625
 20
79.37301635742188
 30
0.0
  0
SPLINE
  5
4B
330
1F
100
AcDbEntity
  8
Calque 1
370
     0
100
AcDbSpline
210
0.0
220
0.0
230
1.0
 70
    11
 71
     3
 72
    17
 73
    13
 74
     0
 42
0.0000000001
 43
0.0000000001
 12
1.0
 22
0.0
 32
0.0
 13
1.0
 23
0.0
 33
0.0
 40
0.0
 40
0.0
 40
0.0
 40
0.0
 40
1.0
 40
1.0
 40
1.0
 40
2.0
 40
2.0
 40
2.0
 40
3.0
 40
3.0
 40
3.0
 40
4.0
 40
4.0
 40
4.0
 40
4.0
 10
556.489013671875
 20
84.87301635742188
 30
0.0
 10
553.0800170898438
 20
84.87301635742188
 30
0.0
 10
547.3829956054688
 20
86.77401733398438
 30
0.0
 10
547.3829956054688
 20
92.47500610351562
 30
0.0
 10
547.3829956054688
 20
95.88601684570312
 30
0.0
 10
550.8109741210938
 20
100.0570068359375
 30
0.0
 10
556.8679809570312
 20
100.0570068359375
 30
0.0
 10
561.0369873046875
 20
100.0570068359375
 30
0.0
 10
566.343994140625
 20
97.77700805664062
 30
0.0
 10
566.343994140625
 20
92.47500610351562
 30
0.0
 10
566.343994140625
 20
86.39401245117188
 30
0.0
 10
561.7960205078125
 20
84.87301635742188
 30
0.0
 10
556.489013671875
 20
84.87301635742188
 30
0.0
  0
SPLINE
  5
4C
330
1F
100
AcDbEntity
  8
Calque 1
370
     0
100
AcDbSpline
210
0.0
220
0.0
230
1.0
 70
    11
 71
     3
 72
    32
 73
    28
 74
     0
 42
0.0000000001
 43
0.0000000001
 12
1.0
 22
0.0
 32
0.0
 13
1.0
 23
0.0
 33
0.0
 40
0.0
 40
0.0
 40
0.0
 40
0.0
 40
1.0
 40
1.0
 40
1.0
 40
2.0
 40
2.0
 40
2.0
 40
3.0
 40
3.0
 40
3.0
 40
4.0
 40
4.0
 40
4.0
 40
5.0
 40
5.0
 40
5.0
 40
6.0
 40
6.0
 40
6.0
 40
7.0
 40
7.0
 40
7.0
 40
8.0
 40
8.0
 40
8.0
 40
9.0
 40
9.0
 40
9.0
 40
9.0
 10
578.4609985351562
 20
138.3530120849609
 30
0.0
 10
578.4609985351562
 20
138.3530120849609
 30
0.0
 10
582.5490112304688
 20
142.8240051269531
 30
0.0
 10
582.5490112304688
 20
142.8240051269531
 30
0.0
 10
584.5280151367188
 20
144.9840087890625
 30
0.0
 10
584.3779907226562
 20
148.385009765625
 30
0.0
 10
582.208984375
 20
150.3760070800781
 30
0.0
 10
582.208984375
 20
150.3760070800781
 30
0.0
 10
570.4339599609375
 20
161.1580047607422
 30
0.0
 10
570.4339599609375
 20
161.1580047607422
 30
0.0
 10
568.2649536132812
 20
163.1490020751953
 30
0.0
 10
564.886962890625
 20
162.9889984130859
 30
0.0
 10
562.887939453125
 20
160.8180084228516
 30
0.0
 10
562.887939453125
 20
160.8180084228516
 30
0.0
 10
558.8099365234375
 20
156.3570098876953
 30
0.0
 10
558.8099365234375
 20
156.3570098876953
 30
0.0
 10
556.8199462890625
 20
154.18701171875
 30
0.0
 10
556.9799194335938
 20
150.7860107421875
 30
0.0
 10
559.138916015625
 20
148.8050079345703
 30
0.0
 10
559.138916015625
 20
148.8050079345703
 30
0.0
 10
570.9139404296875
 20
138.0230102539062
 30
0.0
 10
570.9139404296875
 20
138.0230102539062
 30
0.0
 10
573.0829467773438
 20
136.0420074462891
 30
0.0
 10
576.48193359375
 20
136.1820068359375
 30
0.0
 10
578.4609375
 20
138.3530120849609
 30
0.0
 10
578.4609375
 20
138.3530120849609
 30
0.0
 10
578.4609985351562
 20
138.3530120849609
 30
0.0
 10
578.4609985351562
 20
138.3530120849609
 30
0.0
  0
SPLINE
  5
4D
330
1F
100
AcDbEntity
  8
Calque 1
370
     0
100
AcDbSpline
210
0.0
220
0.0
230
1.0
 70
    11
 71
     3
 72
    41
 73
    37
 74
     0
 42
0.0000000001
 43
0.0000000001
 12
1.0
 22
0.0
 32
0.0
 13
1.0
 23
0.0
 33
0.0
 40
0.0
 40
0.0
 40
0.0
 40
0.0
 40
1.0
 40
1.0
 40
1.0
 40
2.0
 40
2.0
 40
2.0
 40
3.0
 40
3.0
 40
3.0
 40
4.0
 40
4.0
 40
4.0
 40
5.0
 40
5.0
 40
5.0
 40
6.0
 40
6.0
 40
6.0
 40
7.0
 40
7.0
 40
7.0
 40
8.0
 40
8.0
 40
8.0
 40
9.0
 40
9.0
 40
9.0
 40
10.0
 40
10.0
 40
10.0
 40
11.0
 40
11.0
 40
11.0
 40
12.0
 40
12.0
 40
12.0
 40
12.0
 10
646.2540283203125
 20
336.2450103759766
 30
0.0
 10
594.1370239257812
 20
336.2450103759766
 30
0.0
 10
551.89599609375
 20
293.9650115966797
 30
0.0
 10
551.89599609375
 20
241.81201171875
 30
0.0
 10
551.89599609375
 20
220.7060089111328
 30
0.0
 10
558.9030151367188
 20
201.281005859375
 30
0.0
 10
570.5969848632812
 20
185.5480041503906
 30
0.0
 10
570.5969848632812
 20
185.5480041503906
 30
0.0
 10
564.7699584960938
 20
179.1860046386719
 30
0.0
 10
564.7699584960938
 20
179.1860046386719
 30
0.0
 10
562.7809448242188
 20
177.0149993896484
 30
0.0
 10
562.9309692382812
 20
173.6150054931641
 30
0.0
 10
565.0999755859375
 20
171.6340026855469
 30
0.0
 10
565.0999755859375
 20
171.6340026855469
 30
0.0
 10
591.927978515625
 20
147.0480041503906
 30
0.0
 10
591.927978515625
 20
147.0480041503906
 30
0.0
 10
594.0969848632812
 20
145.0770111083984
 30
0.0
 10
597.4959716796875
 20
145.2170104980469
 30
0.0
 10
599.4749755859375
 20
147.3880004882812
 30
0.0
 10
599.4749755859375
 20
147.3880004882812
 30
0.0
 10
605.6819458007812
 20
154.1699981689453
 30
0.0
 10
605.6819458007812
 20
154.1699981689453
 30
0.0
 10
606.2119750976562
 20
154.7400054931641
 30
0.0
 10
606.5619506835938
 20
155.4100036621094
 30
0.0
 10
606.8009643554688
 20
156.1100006103516
 30
0.0
 10
618.8159790039062
 20
150.5590057373047
 30
0.0
 10
632.1599731445312
 20
147.3679962158203
 30
0.0
 10
646.2539672851562
 20
147.3679962158203
 30
0.0
 10
698.3909912109375
 20
147.3679962158203
 30
0.0
 10
740.6319580078125
 20
189.6589965820312
 30
0.0
 10
740.6319580078125
 20
241.8119964599609
 30
0.0
 10
740.6319580078125
 20
293.9649963378906
 30
0.0
 10
698.3909301757812
 20
336.2449951171875
 30
0.0
 10
646.2539672851562
 20
336.2449951171875
 30
0.0
 10
646.2539672851562
 20
336.2449951171875
 30
0.0
 10
646.2540283203125
 20
336.2450103759766
 30
0.0
 10
646.2540283203125
 20
336.2450103759766
 30
0.0
  0
SPLINE
  5
4E
330
1F
100
AcDbEntity
  8
Calque 1
370
     0
100
AcDbSpline
210
0.0
220
0.0
230
1.0
 70
    11
 71
     3
 72
    26
 73
    22
 74
     0
 42
0.0000000001
 43
0.0000000001
 12
1.0
 22
0.0
 32
0.0
 13
1.0
 23
0.0
 33
0.0
 40
0.0
 40
0.0
 40
0.0
 40
0.0
 40
1.0
 40
1.0
 40
1.0
 40
2.0
 40
2.0
 40
2.0
 40
3.0
 40
3.0
 40
3.0
 40
4.0
 40
4.0
 40
4.0
 40
5.0
 40
5.0
 40
5.0
 40
6.0
 40
6.0
 40
6.0
 40
7.0
 40
7.0
 40
7.0
 40
7.0
 10
759.8650512695312
 20
180.7660064697266
 30
0.0
 10
759.8650512695312
 20
180.7660064697266
 30
0.0
 10
751.6090698242188
 20
185.1570129394531
 30
0.0
 10
751.6090698242188
 20
185.1570129394531
 30
0.0
 10
749.1200561523438
 20
186.4780120849609
 30
0.0
 10
746.0110473632812
 20
185.5280151367188
 30
0.0
 10
744.6920776367188
 20
183.0370178222656
 30
0.0
 10
743.362060546875
 20
180.5460205078125
 30
0.0
 10
744.3220825195312
 20
177.4350128173828
 30
0.0
 10
746.8010864257812
 20
176.1150207519531
 30
0.0
 10
746.8010864257812
 20
176.1150207519531
 30
0.0
 10
755.0570678710938
 20
171.7340240478516
 30
0.0
 10
755.0570678710938
 20
171.7340240478516
 30
0.0
 10
757.5460815429688
 20
170.3940277099609
 30
0.0
 10
760.6650390625
 20
171.3640289306641
 30
0.0
 10
761.9840698242188
 20
173.8450317382812
 30
0.0
 10
763.3030395507812
 20
176.3350372314453
 30
0.0
 10
762.3540649414062
 20
179.4460296630859
 30
0.0
 10
759.8650512695312
 20
180.7660369873047
 30
0.0
 10
759.8650512695312
 20
180.7660369873047
 30
0.0
 10
759.8650512695312
 20
180.7660064697266
 30
0.0
 10
759.8650512695312
 20
180.7660064697266
 30
0.0
  0
SPLINE
  5
4F
330
1F
100
AcDbEntity
  8
Calque 1
370
     0
100
AcDbSpline
210
0.0
220
0.0
230
1.0
 70
    11
 71
     3
 72
    56
 73
    52
 74
     0
 42
0.0000000001
 43
0.0000000001
 12
1.0
 22
0.0
 32
0.0
 13
1.0
 23
0.0
 33
0.0
 40
0.0
 40
0.0
 40
0.0
 40
0.0
 40
1.0
 40
1.0
 40
1.0
 40
2.0
 40
2.0
 40
2.0
 40
3.0
 40
3.0
 40
3.0
 40
4.0
 40
4.0
 40
4.0
 40
5.0
 40
5.0
 40
5.0
 40
6.0
 40
6.0
 40
6.0
 40
7.0
 40
7.0
 40
7.0
 40
8.0
 40
8.0
 40
8.0
 40
9.0
 40
9.0
 40
9.0
 40
10.0
 40
10.0
 40
10.0
 40
11.0
 40
11.0
 40
11.0
 40
12.0
 40
12.0
 40
12.0
 40
13.0
 40
13.0
 40
13.0
 40
14.0
 40
14.0
 40
14.0
 40
15.0
 40
15.0
 40
15.0
 40
16.0
 40
16.0
 40
16.0
 40
17.0
 40
17.0
 40
17.0
 40
17.0
 10
415.6520385742188
 20
174.6610107421875
 30
0.0
 10
428.1660461425781
 20
174.6610107421875
 30
0.0
 10
434.2340393066406
 20
181.4920043945312
 30
0.0
 10
434.2340393066406
 20
191.3550109863281
 30
0.0
 10
434.2340393066406
 20
197.4260101318359
 30
0.0
 10
429.68603515625
 20
205.7790069580078
 30
0.0
 10
423.998046875
 20
215.2610168457031
 30
0.0
 10
413.7730407714844
 20
232.7150115966797
 30
0.0
 10
411.4840393066406
 20
234.2360229492188
 30
0.0
 10
411.4840393066406
 20
241.8280181884766
 30
0.0
 10
411.4840393066406
 20
247.1390151977539
 30
0.0
 10
413.7730407714844
 20
249.7900161743164
 30
0.0
 10
418.7000427246094
 20
256.2410202026367
 30
0.0
 10
425.5070495605469
 20
265.3540191650391
 30
0.0
 10
428.9260559082031
 20
269.5250244140625
 30
0.0
 10
428.9260559082031
 20
277.1160202026367
 30
0.0
 10
428.9260559082031
 20
285.8390197753906
 30
0.0
 10
420.2100524902344
 20
290.77001953125
 30
0.0
 10
407.695068359375
 20
290.77001953125
 30
0.0
 10
388.7440795898438
 20
290.77001953125
 30
0.0
 10
387.2140808105469
 20
281.6680221557617
 30
0.0
 10
377.3590698242188
 20
281.6680221557617
 30
0.0
 10
373.1900634765625
 20
281.6680221557617
 30
0.0
 10
372.0510559082031
 20
296.0810241699219
 30
0.0
 10
372.0510559082031
 20
302.1530227661133
 30
0.0
 10
372.0510559082031
 20
314.6760215759277
 30
0.0
 10
362.945068359375
 20
324.5380249023438
 30
0.0
 10
349.6810607910156
 20
324.5380249023438
 30
0.0
 10
332.6080627441406
 20
324.5380249023438
 30
0.0
 10
326.1610717773438
 20
313.1550254821777
 30
0.0
 10
326.1610717773438
 20
298.7420272827148
 30
0.0
 10
326.1610717773438
 20
298.7420272827148
 30
0.0
 10
326.1610717773438
 20
204.6380310058594
 30
0.0
 10
326.1610717773438
 20
204.6380310058594
 30
0.0
 10
326.1610717773438
 20
188.3240356445312
 30
0.0
 10
330.3390808105469
 20
174.6610260009766
 30
0.0
 10
349.2910766601562
 20
174.6610260009766
 30
0.0
 10
360.6760864257812
 20
174.6610260009766
 30
0.0
 10
366.7430725097656
 20
181.4920196533203
 30
0.0
 10
369.0120849609375
 20
185.2830200195312
 30
0.0
 10
373.5600891113281
 20
193.2550201416016
 30
0.0
 10
373.5600891113281
 20
195.5360260009766
 30
0.0
 10
377.3590698242188
 20
195.5360260009766
 30
0.0
 10
381.5270690917969
 20
195.5360260009766
 30
0.0
 10
386.0750732421875
 20
188.3240203857422
 30
0.0
 10
391.0130615234375
 20
183.3930206298828
 30
0.0
 10
398.2090759277344
 20
176.5610198974609
 30
0.0
 10
403.8970642089844
 20
174.6610260009766
 30
0.0
 10
415.6520690917969
 20
174.6610260009766
 30
0.0
 10
415.6520690917969
 20
174.6610260009766
 30
0.0
 10
415.6520385742188
 20
174.6610107421875
 30
0.0
 10
415.6520385742188
 20
174.6610107421875
 30
0.0
  0
SPLINE
  5
50
330
1F
100
AcDbEntity
  8
Calque 1
370
     0
100
AcDbSpline
210
0.0
220
0.0
230
1.0
 70
    11
 71
     3
 72
    71
 73
    67
 74
     0
 42
0.0000000001
 43
0.0000000001
 12
1.0
 22
0.0
 32
0.0
 13
1.0
 23
0.0
 33
0.0
 40
0.0
 40
0.0
 40
0.0
 40
0.0
 40
1.0
 40
1.0
 40
1.0
 40
2.0
 40
2.0
 40
2.0
 40
3.0
 40
3.0
 40
3.0
 40
4.0
 40
4.0
 40
4.0
 40
5.0
 40
5.0
 40
5.0
 40
6.0
 40
6.0
 40
6.0
 40
7.0
 40
7.0
 40
7.0
 40
8.0
 40
8.0
 40
8.0
 40
9.0
 40
9.0
 40
9.0
 40
10.0
 40
10.0
 40
10.0
 40
11.0
 40
11.0
 40
11.0
 40
12.0
 40
12.0
 40
12.0
 40
13.0
 40
13.0
 40
13.0
 40
14.0
 40
14.0
 40
14.0
 40
15.0
 40
15.0
 40
15.0
 40
16.0
 40
16.0
 40
16.0
 40
17.0
 40
17.0
 40
17.0
 40
18.0
 40
18.0
 40
18.0
 40
19.0
 40
19.0
 40
19.0
 40
20.0
 40
20.0
 40
20.0
 40
21.0
 40
21.0
 40
21.0
 40
22.0
 40
22.0
 40
22.0
 40
22.0
 10
43.87099838256836
 20
359.7720003128052
 30
0.0
 10
54.83599853515625
 20
359.7720003128052
 30
0.0
 10
70.53900146484375
 20
357.2720003128052
 30
0.0
 10
76.26599884033203
 20
335.826000213623
 30
0.0
 10
76.26599884033203
 20
335.826000213623
 30
0.0
 10
83.74299621582031
 20
307.8889999389648
 30
0.0
 10
83.74299621582031
 20
307.8889999389648
 30
0.0
 10
89.97999572753906
 20
284.443000793457
 30
0.0
 10
93.22899627685547
 20
272.4799957275391
 30
0.0
 10
100.1959991455078
 20
272.4799957275391
 30
0.0
 10
109.6719970703125
 20
272.4799957275391
 30
0.0
 10
114.1500015258789
 20
297.9169921875
 30
0.0
 10
124.125
 20
335.3259963989258
 30
0.0
 10
128.1130065917969
 20
350.2899971008301
 30
0.0
 10
138.0890045166016
 20
359.7719955444336
 30
0.0
 10
157.52099609375
 20
359.7719955444336
 30
0.0
 10
157.52099609375
 20
359.7719955444336
 30
0.0
 10
171.9839935302734
 20
359.7719955444336
 30
0.0
 10
171.9839935302734
 20
359.7719955444336
 30
0.0
 10
198.4029998779297
 20
359.7719955444336
 30
0.0
 10
200.8909912109375
 20
340.8169956207275
 30
0.0
 10
200.8909912109375
 20
322.3529968261719
 30
0.0
 10
200.8909912109375
 20
322.3529968261719
 30
0.0
 10
200.8909912109375
 20
212.114990234375
 30
0.0
 10
200.8909912109375
 20
212.114990234375
 30
0.0
 10
200.8909912109375
 20
189.6699829101562
 30
0.0
 10
192.9149932861328
 20
178.1969909667969
 30
0.0
 10
175.9719848632812
 20
178.1969909667969
 30
0.0
 10
163.0079803466797
 20
178.1969909667969
 30
0.0
 10
155.7809906005859
 20
185.1779937744141
 30
0.0
 10
152.0429840087891
 20
199.1419982910156
 30
0.0
 10
150.2939910888672
 20
205.1329956054688
 30
0.0
 10
150.0539855957031
 20
229.0789947509766
 30
0.0
 10
143.5669860839844
 20
229.0789947509766
 30
0.0
 10
139.5879821777344
 20
229.0789947509766
 30
0.0
 10
138.0889892578125
 20
224.0879974365234
 30
0.0
 10
128.1139831542969
 20
198.6519927978516
 30
0.0
 10
122.635986328125
 20
184.6779937744141
 30
0.0
 10
113.1599807739258
 20
177.6969909667969
 30
0.0
 10
100.1959838867188
 20
177.6969909667969
 30
0.0
 10
87.74098205566406
 20
177.6969909667969
 30
0.0
 10
77.01598358154297
 20
185.1779937744141
 30
0.0
 10
71.78797912597656
 20
199.1419982910156
 30
0.0
 10
62.57197952270508
 20
223.0879974365234
 30
0.0
 10
58.82397842407227
 20
231.5700073242188
 30
0.0
 10
55.34597778320312
 20
231.5700073242188
 30
0.0
 10
52.34697723388672
 20
231.5700073242188
 30
0.0
 10
49.35797882080078
 20
226.0890045166016
 30
0.0
 10
47.35897827148438
 20
200.6420135498047
 30
0.0
 10
45.85997772216797
 20
184.1780090332031
 30
0.0
 10
32.90497589111328
 20
178.197021484375
 30
0.0
 10
24.42897796630859
 20
178.197021484375
 30
0.0
 10
2.498977661132812
 20
178.197021484375
 30
0.0
 10
-0.0000228881835938
 20
194.6610260009766
 30
0.0
 10
-0.0000228881835938
 20
219.5970153808594
 30
0.0
 10
-0.0000228881835938
 20
219.5970153808594
 30
0.0
 10
-0.0000228881835938
 20
323.8530006408691
 30
0.0
 10
-0.0000228881835938
 20
323.8530006408691
 30
0.0
 10
-0.0000228881835938
 20
347.798999786377
 30
0.0
 10
6.486977100372314
 20
359.7719993591309
 30
0.0
 10
29.41697692871094
 20
359.7719993591309
 30
0.0
 10
29.41697692871094
 20
359.7719993591309
 30
0.0
 10
43.87097930908203
 20
359.7719993591309
 30
0.0
 10
43.87097930908203
 20
359.7719993591309
 30
0.0
 10
43.87097930908203
 20
359.7719993591309
 30
0.0
 10
43.87099838256836
 20
359.7720003128052
 30
0.0
 10
43.87099838256836
 20
359.7720003128052
 30
0.0
  0
SPLINE
  5
51
330
1F
100
AcDbEntity
  8
Calque 1
370
     0
100
AcDbSpline
210
0.0
220
0.0
230
1.0
 70
    11
 71
     3
 72
    41
 73
    37
 74
     0
 42
0.0000000001
 43
0.0000000001
 12
1.0
 22
0.0
 32
0.0
 13
1.0
 23
0.0
 33
0.0
 40
0.0
 40
0.0
 40
0.0
 40
0.0
 40
1.0
 40
1.0
 40
1.0
 40
2.0
 40
2.0
 40
2.0
 40
3.0
 40
3.0
 40
3.0
 40
4.0
 40
4.0
 40
4.0
 40
5.0
 40
5.0
 40
5.0
 40
6.0
 40
6.0
 40
6.0
 40
7.0
 40
7.0
 40
7.0
 40
8.0
 40
8.0
 40
8.0
 40
9.0
 40
9.0
 40
9.0
 40
10.0
 40
10.0
 40
10.0
 40
11.0
 40
11.0
 40
11.0
 40
12.0
 40
12.0
 40
12.0
 40
12.0
 10
249.5940093994141
 20
189.1650085449219
 30
0.0
 10
258.3099975585938
 20
189.1650085449219
 30
0.0
 10
269.3150024414062
 20
193.5270080566406
 30
0.0
 10
277.6520080566406
 20
192.9560089111328
 30
0.0
 10
277.6520080566406
 20
192.9560089111328
 30
0.0
 10
292.4450073242188
 20
191.8160095214844
 30
0.0
 10
292.4450073242188
 20
191.8160095214844
 30
0.0
 10
307.22900390625
 20
190.6860046386719
 30
0.0
 10
314.4349975585938
 20
199.4080047607422
 30
0.0
 10
314.4349975585938
 20
214.2120056152344
 30
0.0
 10
314.4349975585938
 20
214.2120056152344
 30
0.0
 10
314.4349975585938
 20
256.3320007324219
 30
0.0
 10
314.4349975585938
 20
256.3320007324219
 30
0.0
 10
314.4349975585938
 20
295.0319976806641
 30
0.0
 10
300.781005859375
 20
307.935001373291
 30
0.0
 10
262.1080017089844
 20
307.935001373291
 30
0.0
 10
240.1080017089844
 20
307.935001373291
 30
0.0
 10
218.1179962158203
 20
297.3030014038086
 30
0.0
 10
218.1179962158203
 20
279.4779968261719
 30
0.0
 10
218.1179962158203
 20
269.9860000610352
 30
0.0
 10
224.1949920654297
 20
265.4349975585938
 30
0.0
 10
224.5650024414062
 20
260.5029983520508
 30
0.0
 10
224.5650024414062
 20
258.9830017089844
 30
0.0
 10
223.6150054931641
 20
256.3320007324219
 30
0.0
 10
221.5260009765625
 20
253.2910003662109
 30
0.0
 10
221.5260009765625
 20
253.2910003662109
 30
0.0
 10
213.9499969482422
 20
242.2890014648438
 30
0.0
 10
213.9499969482422
 20
242.2890014648438
 30
0.0
 10
212.0599975585938
 20
238.8780059814453
 30
0.0
 10
210.5309906005859
 20
231.6660003662109
 30
0.0
 10
210.5309906005859
 20
223.6940002441406
 30
0.0
 10
210.5309906005859
 20
204.718994140625
 30
0.0
 10
227.6039886474609
 20
189.1650085449219
 30
0.0
 10
249.593994140625
 20
189.1650085449219
 30
0.0
 10
249.593994140625
 20
189.1650085449219
 30
0.0
 10
249.5940093994141
 20
189.1650085449219
 30
0.0
 10
249.5940093994141
 20
189.1650085449219
 30
0.0
  0
SPLINE
  5
52
330
1F
100
AcDbEntity
  8
Calque 1
370
     0
100
AcDbSpline
210
0.0
220
0.0
230
1.0
 70
    11
 71
     3
 72
    26
 73
    22
 74
     0
 42
0.0000000001
 43
0.0000000001
 12
1.0
 22
0.0
 32
0.0
 13
1.0
 23
0.0
 33
0.0
 40
0.0
 40
0.0
 40
0.0
 40
0.0
 40
1.0
 40
1.0
 40
1.0
 40
2.0
 40
2.0
 40
2.0
 40
3.0
 40
3.0
 40
3.0
 40
4.0
 40
4.0
 40
4.0
 40
5.0
 40
5.0
 40
5.0
 40
6.0
 40
6.0
 40
6.0
 40
7.0
 40
7.0
 40
7.0
 40
7.0
 10
493.1849975585938
 20
191.6330108642578
 30
0.0
 10
514.0349731445312
 20
191.6330108642578
 30
0.0
 10
537.9249877929688
 20
203.3960113525391
 30
0.0
 10
537.9249877929688
 20
220.4700164794922
 30
0.0
 10
537.9249877929688
 20
226.9220123291016
 30
0.0
 10
536.0360107421875
 20
227.3020172119141
 30
0.0
 10
536.0360107421875
 20
232.9930114746094
 30
0.0
 10
536.0360107421875
 20
234.1340179443359
 30
0.0
 10
535.2760009765625
 20
236.0240173339844
 30
0.0
 10
537.9249877929688
 20
240.1950073242188
 30
0.0
 10
542.8629760742188
 20
248.1670074462891
 30
0.0
 10
543.2319946289062
 20
252.338005065918
 30
0.0
 10
543.2319946289062
 20
256.8990097045898
 30
0.0
 10
543.2319946289062
 20
280.8050079345703
 30
0.0
 10
525.0299682617188
 20
305.4720153808594
 30
0.0
 10
490.135986328125
 20
305.4720153808594
 30
0.0
 10
461.7079772949219
 20
305.4720153808594
 30
0.0
 10
437.4389953613281
 20
283.0760192871094
 30
0.0
 10
437.4389953613281
 20
247.4070129394531
 30
0.0
 10
437.4389953613281
 20
218.9500122070312
 30
0.0
 10
455.260986328125
 20
191.6330108642578
 30
0.0
 10
493.1849975585938
 20
191.6330108642578
 30
0.0
  0
SPLINE
  5
53
330
1F
100
AcDbEntity
  8
Calque 1
370
     0
100
AcDbSpline
210
0.0
220
0.0
230
1.0
 70
    11
 71
     3
 72
    41
 73
    37
 74
     0
 42
0.0000000001
 43
0.0000000001
 12
1.0
 22
0.0
 32
0.0
 13
1.0
 23
0.0
 33
0.0
 40
0.0
 40
0.0
 40
0.0
 40
0.0
 40
1.0
 40
1.0
 40
1.0
 40
2.0
 40
2.0
 40
2.0
 40
3.0
 40
3.0
 40
3.0
 40
4.0
 40
4.0
 40
4.0
 40
5.0
 40
5.0
 40
5.0
 40
6.0
 40
6.0
 40
6.0
 40
7.0
 40
7.0
 40
7.0
 40
8.0
 40
8.0
 40
8.0
 40
9.0
 40
9.0
 40
9.0
 40
10.0
 40
10.0
 40
10.0
 40
11.0
 40
11.0
 40
11.0
 40
12.0
 40
12.0
 40
12.0
 40
12.0
 10
637.7879638671875
 20
214.0850067138672
 30
0.0
 10
637.7879638671875
 20
206.2929992675781
 30
0.0
 10
633.4999389648438
 20
200.1510009765625
 30
0.0
 10
625.512939453125
 20
200.1510009765625
 30
0.0
 10
619.7759399414062
 20
200.1510009765625
 30
0.0
 10
612.4989624023438
 20
203.0119934082031
 30
0.0
 10
612.6089477539062
 20
214.4949951171875
 30
0.0
 10
612.6089477539062
 20
214.4949951171875
 30
0.0
 10
612.8089599609375
 20
248.1029968261719
 30
0.0
 10
612.8089599609375
 20
248.1029968261719
 30
0.0
 10
612.8089599609375
 20
255.0749969482422
 30
0.0
 10
614.8479614257812
 20
256.9149932861328
 30
0.0
 10
614.8479614257812
 20
261.2259979248047
 30
0.0
 10
614.8479614257812
 20
265.1169967651367
 30
0.0
 10
613.6179809570312
 20
265.9379959106445
 30
0.0
 10
613.6179809570312
 20
270.6490020751953
 30
0.0
 10
613.6179809570312
 20
275.9800033569336
 30
0.0
 10
618.3259887695312
 20
281.7220001220703
 30
0.0
 10
625.1029663085938
 20
281.7220001220703
 30
0.0
 10
631.6399536132812
 20
281.7220001220703
 30
0.0
 10
636.7779541015625
 20
277.0
 30
0.0
 10
636.7779541015625
 20
270.4489974975586
 30
0.0
 10
636.7779541015625
 20
265.9379959106445
 30
0.0
 10
635.5489501953125
 20
265.5279998779297
 30
0.0
 10
635.5489501953125
 20
262.4570007324219
 30
0.0
 10
635.5489501953125
 20
260.8160018920898
 30
0.0
 10
635.9589233398438
 20
258.765998840332
 30
0.0
 10
636.5579223632812
 20
256.504997253418
 30
0.0
 10
637.5879516601562
 20
252.4039993286133
 30
0.0
 10
637.7879028320312
 20
249.5439987182617
 30
0.0
 10
637.7879028320312
 20
246.2630004882812
 30
0.0
 10
637.7879028320312
 20
246.2630004882812
 30
0.0
 10
637.7879028320312
 20
214.0849914550781
 30
0.0
 10
637.7879028320312
 20
214.0849914550781
 30
0.0
 10
637.7879028320312
 20
214.0849914550781
 30
0.0
 10
637.7879638671875
 20
214.0850067138672
 30
0.0
 10
637.7879638671875
 20
214.0850067138672
 30
0.0
  0
SPLINE
  5
54
330
1F
100
AcDbEntity
  8
Calque 1
370
     0
100
AcDbSpline
210
0.0
220
0.0
230
1.0
 70
    11
 71
     3
 72
    56
 73
    52
 74
     0
 42
0.0000000001
 43
0.0000000001
 12
1.0
 22
0.0
 32
0.0
 13
1.0
 23
0.0
 33
0.0
 40
0.0
 40
0.0
 40
0.0
 40
0.0
 40
1.0
 40
1.0
 40
1.0
 40
2.0
 40
2.0
 40
2.0
 40
3.0
 40
3.0
 40
3.0
 40
4.0
 40
4.0
 40
4.0
 40
5.0
 40
5.0
 40
5.0
 40
6.0
 40
6.0
 40
6.0
 40
7.0
 40
7.0
 40
7.0
 40
8.0
 40
8.0
 40
8.0
 40
9.0
 40
9.0
 40
9.0
 40
10.0
 40
10.0
 40
10.0
 40
11.0
 40
11.0
 40
11.0
 40
12.0
 40
12.0
 40
12.0
 40
13.0
 40
13.0
 40
13.0
 40
14.0
 40
14.0
 40
14.0
 40
15.0
 40
15.0
 40
15.0
 40
16.0
 40
16.0
 40
16.0
 40
17.0
 40
17.0
 40
17.0
 40
17.0
 10
668.303955078125
 20
200.7610015869141
 30
0.0
 10
660.7279663085938
 20
200.7610015869141
 30
0.0
 10
650.0819702148438
 20
205.0619964599609
 30
0.0
 10
649.27294921875
 20
219.0059967041016
 30
0.0
 10
649.27294921875
 20
219.6159973144531
 30
0.0
 10
648.6429443359375
 20
236.6300048828125
 30
0.0
 10
648.4529418945312
 20
240.3209991455078
 30
0.0
 10
648.4529418945312
 20
241.1410064697266
 30
0.0
 10
648.032958984375
 20
242.3719940185547
 30
0.0
 10
647.2239379882812
 20
244.0019989013672
 30
0.0
 10
646.81396484375
 20
244.4219970703125
 30
0.0
 10
646.5939331054688
 20
245.443000793457
 30
0.0
 10
644.1349487304688
 20
249.1329956054688
 30
0.0
 10
643.5249633789062
 20
250.5639953613281
 30
0.0
 10
643.1149291992188
 20
251.7939987182617
 30
0.0
 10
643.1149291992188
 20
253.0239944458008
 30
0.0
 10
643.1149291992188
 20
259.3759918212891
 30
0.0
 10
646.4039306640625
 20
261.8369903564453
 30
0.0
 10
647.8229370117188
 20
264.7069931030273
 30
0.0
 10
648.032958984375
 20
265.3179931640625
 30
0.0
 10
649.0529174804688
 20
269.6289901733398
 30
0.0
 10
650.491943359375
 20
271.8789901733398
 30
0.0
 10
653.3609619140625
 20
276.3899917602539
 30
0.0
 10
657.0389404296875
 20
277.6209869384766
 30
0.0
 10
659.907958984375
 20
277.6209869384766
 30
0.0
 10
670.3529663085938
 20
277.6209869384766
 30
0.0
 10
670.9729614257812
 20
270.2389831542969
 30
0.0
 10
673.8419799804688
 20
264.296989440918
 30
0.0
 10
675.0709838867188
 20
261.8369903564453
 30
0.0
 10
676.5009765625
 20
261.0159912109375
 30
0.0
 10
677.5299682617188
 20
259.5859909057617
 30
0.0
 10
678.5499877929688
 20
258.1459884643555
 30
0.0
 10
679.5689697265625
 20
256.9149932861328
 30
0.0
 10
679.5689697265625
 20
254.6649932861328
 30
0.0
 10
679.5689697265625
 20
250.7739944458008
 30
0.0
 10
677.72998046875
 20
248.1029968261719
 30
0.0
 10
675.0709838867188
 20
245.0319900512695
 30
0.0
 10
672.81201171875
 20
242.5719909667969
 30
0.0
 10
672.2130126953125
 20
239.5009918212891
 30
0.0
 10
672.2130126953125
 20
236.2199859619141
 30
0.0
 10
672.2130126953125
 20
230.2789916992188
 30
0.0
 10
672.5120239257812
 20
228.6379852294922
 30
0.0
 10
672.6119995117188
 20
226.9979858398438
 30
0.0
 10
673.1220092773438
 20
221.2559814453125
 30
0.0
 10
680.7990112304688
 20
217.5659790039062
 30
0.0
 10
680.7990112304688
 20
211.0139923095703
 30
0.0
 10
680.7990112304688
 20
205.2719879150391
 30
0.0
 10
677.530029296875
 20
200.760986328125
 30
0.0
 10
668.3040161132812
 20
200.760986328125
 30
0.0
 10
668.3040161132812
 20
200.760986328125
 30
0.0
 10
668.303955078125
 20
200.7610015869141
 30
0.0
 10
668.303955078125
 20
200.7610015869141
 30
0.0
  0
SPLINE
  5
55
330
1F
100
AcDbEntity
  8
Calque 1
370
     0
100
AcDbSpline
210
0.0
220
0.0
230
1.0
 70
    11
 71
     3
 72
    17
 73
    13
 74
     0
 42
0.0000000001
 43
0.0000000001
 12
1.0
 22
0.0
 32
0.0
 13
1.0
 23
0.0
 33
0.0
 40
0.0
 40
0.0
 40
0.0
 40
0.0
 40
1.0
 40
1.0
 40
1.0
 40
2.0
 40
2.0
 40
2.0
 40
3.0
 40
3.0
 40
3.0
 40
4.0
 40
4.0
 40
4.0
 40
4.0
 10
262.8679504394531
 20
235.4570007324219
 30
0.0
 10
269.31494140625
 20
235.4570007324219
 30
0.0
 10
270.4449462890625
 20
230.5260009765625
 30
0.0
 10
270.4449462890625
 20
228.2449951171875
 30
0.0
 10
270.4449462890625
 20
222.5540008544922
 30
0.0
 10
265.5169372558594
 20
217.2419891357422
 30
0.0
 10
259.449951171875
 20
217.2419891357422
 30
0.0
 10
255.6609497070312
 20
217.2419891357422
 30
0.0
 10
250.7329559326172
 20
219.1429901123047
 30
0.0
 10
250.7329559326172
 20
226.3549957275391
 30
0.0
 10
250.7329559326172
 20
228.625
 30
0.0
 10
254.1419525146484
 20
235.4570007324219
 30
0.0
 10
262.8679504394531
 20
235.4570007324219
 30
0.0
  0
SPLINE
  5
56
330
1F
100
AcDbEntity
  8
Calque 1
370
     0
100
AcDbSpline
210
0.0
220
0.0
230
1.0
 70
    11
 71
     3
 72
    17
 73
    13
 74
     0
 42
0.0000000001
 43
0.0000000001
 12
1.0
 22
0.0
 32
0.0
 13
1.0
 23
0.0
 33
0.0
 40
0.0
 40
0.0
 40
0.0
 40
0.0
 40
1.0
 40
1.0
 40
1.0
 40
2.0
 40
2.0
 40
2.0
 40
3.0
 40
3.0
 40
3.0
 40
4.0
 40
4.0
 40
4.0
 40
4.0
 10
494.31396484375
 20
226.5420074462891
 30
0.0
 10
492.0449523925781
 20
226.5420074462891
 30
0.0
 10
487.4969787597656
 20
227.302001953125
 30
0.0
 10
487.4969787597656
 20
231.4730072021484
 30
0.0
 10
487.4969787597656
 20
232.6130065917969
 30
0.0
 10
489.385986328125
 20
235.6440124511719
 30
0.0
 10
494.7039794921875
 20
235.6440124511719
 30
0.0
 10
497.3529663085938
 20
235.6440124511719
 30
0.0
 10
501.5209655761719
 20
234.5140075683594
 30
0.0
 10
501.5209655761719
 20
231.8530120849609
 30
0.0
 10
501.5209655761719
 20
227.6820068359375
 30
0.0
 10
496.9729614257812
 20
226.5420074462891
 30
0.0
 10
494.31396484375
 20
226.5420074462891
 30
0.0
  0
SPLINE
  5
57
330
1F
100
AcDbEntity
  8
Calque 1
370
     0
100
AcDbSpline
210
0.0
220
0.0
230
1.0
 70
    11
 71
     3
 72
    26
 73
    22
 74
     0
 42
0.0000000001
 43
0.0000000001
 12
1.0
 22
0.0
 32
0.0
 13
1.0
 23
0.0
 33
0.0
 40
0.0
 40
0.0
 40
0.0
 40
0.0
 40
1.0
 40
1.0
 40
1.0
 40
2.0
 40
2.0
 40
2.0
 40
3.0
 40
3.0
 40
3.0
 40
4.0
 40
4.0
 40
4.0
 40
5.0
 40
5.0
 40
5.0
 40
6.0
 40
6.0
 40
6.0
 40
7.0
 40
7.0
 40
7.0
 40
7.0
 10
772.75
 20
244.9610061645508
 30
0.0
 10
772.75
 20
244.9610061645508
 30
0.0
 10
763.4039916992188
 20
244.7110061645508
 30
0.0
 10
763.4039916992188
 20
244.7110061645508
 30
0.0
 10
760.5859985351562
 20
244.6410064697266
 30
0.0
 10
758.3569946289062
 20
242.281005859375
 30
0.0
 10
758.4169921875
 20
239.4600067138672
 30
0.0
 10
758.4970092773438
 20
236.6390075683594
 30
0.0
 10
760.864990234375
 20
234.3990020751953
 30
0.0
 10
763.6840209960938
 20
234.47900390625
 30
0.0
 10
763.6840209960938
 20
234.47900390625
 30
0.0
 10
773.02001953125
 20
234.7190093994141
 30
0.0
 10
773.02001953125
 20
234.7190093994141
 30
0.0
 10
775.8389892578125
 20
234.7890167236328
 30
0.0
 10
778.0780029296875
 20
237.1590118408203
 30
0.0
 10
777.998046875
 20
239.9700164794922
 30
0.0
 10
777.9380493164062
 20
242.791015625
 30
0.0
 10
775.5690307617188
 20
245.0310134887695
 30
0.0
 10
772.7500610351562
 20
244.9610137939453
 30
0.0
 10
772.7500610351562
 20
244.9610137939453
 30
0.0
 10
772.75
 20
244.9610061645508
 30
0.0
 10
772.75
 20
244.9610061645508
 30
0.0
  0
SPLINE
  5
58
330
1F
100
AcDbEntity
  8
Calque 1
370
     0
100
AcDbSpline
210
0.0
220
0.0
230
1.0
 70
    11
 71
     3
 72
    20
 73
    16
 74
     0
 42
0.0000000001
 43
0.0000000001
 12
1.0
 22
0.0
 32
0.0
 13
1.0
 23
0.0
 33
0.0
 40
0.0
 40
0.0
 40
0.0
 40
0.0
 40
1.0
 40
1.0
 40
1.0
 40
2.0
 40
2.0
 40
2.0
 40
3.0
 40
3.0
 40
3.0
 40
4.0
 40
4.0
 40
4.0
 40
5.0
 40
5.0
 40
5.0
 40
5.0
 10
492.4249877929688
 20
278.5250015258789
 30
0.0
 10
496.6029968261719
 20
278.5250015258789
 30
0.0
 10
501.9010009765625
 20
276.2440032958984
 30
0.0
 10
501.9010009765625
 20
270.9329986572266
 30
0.0
 10
501.9010009765625
 20
264.8610000610352
 30
0.0
 10
497.3529968261719
 20
263.3509979248047
 30
0.0
 10
492.0450134277344
 20
263.3509979248047
 30
0.0
 10
488.6370239257812
 20
263.3509979248047
 30
0.0
 10
482.9390258789062
 20
265.2409973144531
 30
0.0
 10
482.9390258789062
 20
270.9329986572266
 30
0.0
 10
482.9390258789062
 20
274.3539962768555
 30
0.0
 10
486.3580322265625
 20
278.5250015258789
 30
0.0
 10
492.4250183105469
 20
278.5250015258789
 30
0.0
 10
492.4250183105469
 20
278.5250015258789
 30
0.0
 10
492.4249877929688
 20
278.5250015258789
 30
0.0
 10
492.4249877929688
 20
278.5250015258789
 30
0.0
  0
SPLINE
  5
59
330
1F
100
AcDbEntity
  8
Calque 1
370
     0
100
AcDbSpline
210
0.0
220
0.0
230
1.0
 70
    11
 71
     3
 72
    26
 73
    22
 74
     0
 42
0.0000000001
 43
0.0000000001
 12
1.0
 22
0.0
 32
0.0
 13
1.0
 23
0.0
 33
0.0
 40
0.0
 40
0.0
 40
0.0
 40
0.0
 40
1.0
 40
1.0
 40
1.0
 40
2.0
 40
2.0
 40
2.0
 40
3.0
 40
3.0
 40
3.0
 40
4.0
 40
4.0
 40
4.0
 40
5.0
 40
5.0
 40
5.0
 40
6.0
 40
6.0
 40
6.0
 40
7.0
 40
7.0
 40
7.0
 40
7.0
 10
749.64501953125
 20
293.5780029296875
 30
0.0
 10
749.64501953125
 20
293.5780029296875
 30
0.0
 10
757.6620483398438
 20
298.3990020751953
 30
0.0
 10
757.6620483398438
 20
298.3990020751953
 30
0.0
 10
760.071044921875
 20
299.8489990234375
 30
0.0
 10
760.8600463867188
 20
303.0100021362305
 30
0.0
 10
759.4110717773438
 20
305.4309997558594
 30
0.0
 10
757.9620971679688
 20
307.8409996032715
 30
0.0
 10
754.8031005859375
 20
308.6310005187988
 30
0.0
 10
752.3840942382812
 20
307.1809997558594
 30
0.0
 10
752.3840942382812
 20
307.1809997558594
 30
0.0
 10
744.3681030273438
 20
302.3600006103516
 30
0.0
 10
744.3681030273438
 20
302.3600006103516
 30
0.0
 10
741.9490966796875
 20
300.9090042114258
 30
0.0
 10
741.1691284179688
 20
297.7490005493164
 30
0.0
 10
742.6190795898438
 20
295.3280029296875
 30
0.0
 10
744.0680541992188
 20
292.9169998168945
 30
0.0
 10
747.22607421875
 20
292.1270065307617
 30
0.0
 10
749.6450805664062
 20
293.5780029296875
 30
0.0
 10
749.6450805664062
 20
293.5780029296875
 30
0.0
 10
749.64501953125
 20
293.5780029296875
 30
0.0
 10
749.64501953125
 20
293.5780029296875
 30
0.0
  0
SPLINE
  5
5A
330
1F
100
AcDbEntity
  8
Calque 1
370
     0
100
AcDbSpline
210
0.0
220
0.0
230
1.0
 70
    11
 71
     3
 72
    26
 73
    22
 74
     0
 42
0.0000000001
 43
0.0000000001
 12
1.0
 22
0.0
 32
0.0
 13
1.0
 23
0.0
 33
0.0
 40
0.0
 40
0.0
 40
0.0
 40
0.0
 40
1.0
 40
1.0
 40
1.0
 40
2.0
 40
2.0
 40
2.0
 40
3.0
 40
3.0
 40
3.0
 40
4.0
 40
4.0
 40
4.0
 40
5.0
 40
5.0
 40
5.0
 40
6.0
 40
6.0
 40
6.0
 40
7.0
 40
7.0
 40
7.0
 40
7.0
 10
701.3660278320312
 20
336.1760025024414
 30
0.0
 10
703.8150024414062
 20
334.786003112793
 30
0.0
 10
706.9630126953125
 20
335.6560020446777
 30
0.0
 10
708.343017578125
 20
338.1170043945312
 30
0.0
 10
708.343017578125
 20
338.1170043945312
 30
0.0
 10
712.9410400390625
 20
346.2590045928955
 30
0.0
 10
712.9410400390625
 20
346.2590045928955
 30
0.0
 10
714.3400268554688
 20
348.709005355835
 30
0.0
 10
713.4600219726562
 20
351.850004196167
 30
0.0
 10
711.0210571289062
 20
353.2410049438477
 30
0.0
 10
708.5730590820312
 20
354.6210041046143
 30
0.0
 10
705.424072265625
 20
353.7510051727295
 30
0.0
 10
704.0450439453125
 20
351.3000049591064
 30
0.0
 10
704.0450439453125
 20
351.3000049591064
 30
0.0
 10
699.4370727539062
 20
343.1580047607422
 30
0.0
 10
699.4370727539062
 20
343.1580047607422
 30
0.0
 10
698.0470581054688
 20
340.7070045471191
 30
0.0
 10
698.9270629882812
 20
337.5670051574707
 30
0.0
 10
701.3660888671875
 20
336.1760063171387
 30
0.0
 10
701.3660888671875
 20
336.1760063171387
 30
0.0
 10
701.3660278320312
 20
336.1760025024414
 30
0.0
 10
701.3660278320312
 20
336.1760025024414
 30
0.0
  0
SPLINE
  5
5B
330
1F
100
AcDbEntity
  8
Calque 1
370
     0
100
AcDbSpline
210
0.0
220
0.0
230
1.0
 70
    11
 71
     3
 72
    23
 73
    19
 74
     0
 42
0.0000000001
 43
0.0000000001
 12
1.0
 22
0.0
 32
0.0
 13
1.0
 23
0.0
 33
0.0
 40
0.0
 40
0.0
 40
0.0
 40
0.0
 40
1.0
 40
1.0
 40
1.0
 40
2.0
 40
2.0
 40
2.0
 40
3.0
 40
3.0
 40
3.0
 40
4.0
 40
4.0
 40
4.0
 40
5.0
 40
5.0
 40
5.0
 40
6.0
 40
6.0
 40
6.0
 40
6.0
 10
645.3740234375
 20
351.3950023651123
 30
0.0
 10
648.1830444335938
 20
351.3950023651123
 30
0.0
 10
650.4920043945312
 20
353.6960029602051
 30
0.0
 10
650.4920043945312
 20
356.5160026550293
 30
0.0
 10
650.4920043945312
 20
356.5160026550293
 30
0.0
 10
650.4920043945312
 20
365.8689999580383
 30
0.0
 10
650.4920043945312
 20
365.8689999580383
 30
0.0
 10
650.4920043945312
 20
368.6889998912811
 30
0.0
 10
648.1829833984375
 20
371.0
 30
0.0
 10
645.3740234375
 20
371.0
 30
0.0
 10
642.5560302734375
 20
371.0
 30
0.0
 10
640.2470092773438
 20
368.6889998912811
 30
0.0
 10
640.2470092773438
 20
365.8689999580383
 30
0.0
 10
640.2470092773438
 20
365.8689999580383
 30
0.0
 10
640.2470092773438
 20
356.5160007476807
 30
0.0
 10
640.2470092773438
 20
356.5160007476807
 30
0.0
 10
640.2470092773438
 20
353.6960010528564
 30
0.0
 10
642.5560302734375
 20
351.3950004577637
 30
0.0
 10
645.3740234375
 20
351.3950023651123
 30
0.0
  0
HATCH
  5
5C
330
1F
100
AcDbEntity
  8
Calque 1
 62
   159
420
  2898768
100
AcDbHatch
 10
0.0
 20
0.0
 30
0.0
210
0.0
220
0.0
230
1.0
  2
SOLID
 70
     1
 71
     0
 91
       27
 92
        1
 93
        1
 72
     4
 94
        3
 73
     0
 74
     1
 95
       35
 96
       31
 40
0.0
 40
0.0
 40
0.0
 40
0.0
 40
1.0
 40
1.0
 40
1.0
 40
2.0
 40
2.0
 40
2.0
 40
3.0
 40
3.0
 40
3.0
 40
4.0
 40
4.0
 40
4.0
 40
5.0
 40
5.0
 40
5.0
 40
6.0
 40
6.0
 40
6.0
 40
7.0
 40
7.0
 40
7.0
 40
8.0
 40
8.0
 40
8.0
 40
9.0
 40
9.0
 40
9.0
 40
10.0
 40
10.0
 40
10.0
 40
10.0
 10
325.9339904785156
 20
147.6170043945312
 10
314.9389953613281
 20
147.6170043945312
 10
308.8719787597656
 20
144.5660095214844
 10
300.9049987792969
 20
144.5660095214844
 10
295.9769897460938
 20
144.5660095214844
 10
293.7080078125
 20
145.3260040283203
 10
289.9100036621094
 20
145.3260040283203
 10
273.6069946289062
 20
145.3260040283203
 10
265.6409912109375
 20
136.5940093994141
 10
265.6409912109375
 20
119.9000091552734
 10
265.6409912109375
 20
119.9000091552734
 10
265.6409912109375
 20
27.3170166015625
 10
265.6409912109375
 20
27.3170166015625
 10
265.6409912109375
 20
12.51303100585938
 10
270.5789794921875
 20
0.000030517578125
 10
286.5019836425781
 20
0.000030517578125
 10
295.9769897460938
 20
0.000030517578125
 10
303.1839904785156
 20
4.74102783203125
 10
305.4529724121094
 20
11.00302124023438
 10
310.3909606933594
 20
24.08602905273438
 10
310.010986328125
 20
30.72802734375
 10
323.2849731445312
 20
30.72802734375
 10
345.2759704589844
 20
30.72802734375
 10
375.9819641113281
 20
40.60003662109375
 10
375.9819641113281
 20
90.68304443359375
 10
375.9819641113281
 20
126.3620452880859
 10
355.1309509277344
 20
147.6170349121094
 10
325.9339599609375
 20
147.6170349121094
 10
325.9339599609375
 20
147.6170349121094
 10
325.9339904785156
 20
147.6170043945312
 10
325.9339904785156
 20
147.6170043945312
 97
        0
 97
        0
 92
        1
 93
        1
 72
     4
 94
        3
 73
     0
 74
     1
 95
       35
 96
       31
 40
0.0
 40
0.0
 40
0.0
 40
0.0
 40
1.0
 40
1.0
 40
1.0
 40
2.0
 40
2.0
 40
2.0
 40
3.0
 40
3.0
 40
3.0
 40
4.0
 40
4.0
 40
4.0
 40
5.0
 40
5.0
 40
5.0
 40
6.0
 40
6.0
 40
6.0
 40
7.0
 40
7.0
 40
7.0
 40
8.0
 40
8.0
 40
8.0
 40
9.0
 40
9.0
 40
9.0
 40
10.0
 40
10.0
 40
10.0
 40
10.0
 10
446.4959716796875
 20
158.3030090332031
 10
435.510986328125
 20
158.3030090332031
 10
429.4339599609375
 20
155.2620086669922
 10
421.4669799804688
 20
155.2620086669922
 10
416.5389709472656
 20
155.2620086669922
 10
414.2699890136719
 20
156.0220031738281
 10
410.4819946289062
 20
156.0220031738281
 10
394.1789855957031
 20
156.0220031738281
 10
386.2030029296875
 20
147.2900085449219
 10
386.2030029296875
 20
130.5960083007812
 10
386.2030029296875
 20
130.5960083007812
 10
386.2030029296875
 20
38.00299072265625
 10
386.2030029296875
 20
38.00299072265625
 10
386.2030029296875
 20
23.208984375
 10
391.1310119628906
 20
10.69598388671875
 10
407.06298828125
 20
10.69598388671875
 10
416.5390014648438
 20
10.69598388671875
 10
423.7559814453125
 20
15.42697143554688
 10
426.0149841308594
 20
21.68798828125
 10
430.9529724121094
 20
34.781982421875
 10
430.572998046875
 20
41.4229736328125
 10
443.8569946289062
 20
41.4229736328125
 10
465.8479919433594
 20
41.4229736328125
 10
496.5440063476562
 20
51.28598022460938
 10
496.5440063476562
 20
101.3679809570312
 10
496.5440063476562
 20
137.0469818115234
 10
475.6929931640625
 20
158.302978515625
 10
446.4960021972656
 20
158.302978515625
 10
446.4960021972656
 20
158.302978515625
 10
446.4959716796875
 20
158.3030090332031
 10
446.4959716796875
 20
158.3030090332031
 97
        0
 97
        0
 92
        1
 93
        1
 72
     4
 94
        3
 73
     0
 74
     1
 95
       29
 96
       25
 40
0.0
 40
0.0
 40
0.0
 40
0.0
 40
1.0
 40
1.0
 40
1.0
 40
2.0
 40
2.0
 40
2.0
 40
3.0
 40
3.0
 40
3.0
 40
4.0
 40
4.0
 40
4.0
 40
5.0
 40
5.0
 40
5.0
 40
6.0
 40
6.0
 40
6.0
 40
7.0
 40
7.0
 40
7.0
 40
8.0
 40
8.0
 40
8.0
 40
8.0
 10
554.5989990234375
 20
127.0040130615234
 10
526.1619873046875
 20
127.0040130615234
 10
501.8829956054688
 20
104.6180114746094
 10
501.8829956054688
 20
68.93902587890625
 10
501.8829956054688
 20
40.49203491210938
 10
519.7050170898438
 20
13.155029296875
 10
557.6279907226562
 20
13.155029296875
 10
578.47900390625
 20
13.155029296875
 10
602.3779907226562
 20
24.92803955078125
 10
602.3779907226562
 20
42.00302124023438
 10
602.3779907226562
 20
48.44403076171875
 10
600.47900390625
 20
48.82403564453125
 10
600.47900390625
 20
54.52603149414062
 10
600.47900390625
 20
55.65603637695312
 10
599.7100219726562
 20
57.5660400390625
 10
602.3779907226562
 20
61.73703002929688
 10
607.2960205078125
 20
69.69903564453125
 10
607.6759643554688
 20
73.87103271484375
 10
607.6759643554688
 20
78.42202758789062
 10
607.6759643554688
 20
102.3280334472656
 10
589.4839477539062
 20
127.0040283203125
 10
554.5989379882812
 20
127.0040283203125
 10
554.5989379882812
 20
127.0040283203125
 10
554.5989990234375
 20
127.0040130615234
 10
554.5989990234375
 20
127.0040130615234
 97
        0
 97
        0
 92
        1
 93
        1
 72
     4
 94
        3
 73
     0
 74
     1
 95
       50
 96
       46
 40
0.0
 40
0.0
 40
0.0
 40
0.0
 40
1.0
 40
1.0
 40
1.0
 40
2.0
 40
2.0
 40
2.0
 40
3.0
 40
3.0
 40
3.0
 40
4.0
 40
4.0
 40
4.0
 40
5.0
 40
5.0
 40
5.0
 40
6.0
 40
6.0
 40
6.0
 40
7.0
 40
7.0
 40
7.0
 40
8.0
 40
8.0
 40
8.0
 40
9.0
 40
9.0
 40
9.0
 40
10.0
 40
10.0
 40
10.0
 40
11.0
 40
11.0
 40
11.0
 40
12.0
 40
12.0
 40
12.0
 40
13.0
 40
13.0
 40
13.0
 40
14.0
 40
14.0
 40
14.0
 40
15.0
 40
15.0
 40
15.0
 40
15.0
 10
682.3599853515625
 20
138.9490051269531
 10
670.2249755859375
 20
138.9490051269531
 10
664.91796875
 20
135.9179992675781
 10
656.5809936523438
 20
135.9179992675781
 10
645.2059936523438
 20
135.9179992675781
 10
647.0960083007812
 20
136.6679992675781
 10
639.8989868164062
 20
136.6679992675781
 10
624.3460083007812
 20
136.6679992675781
 10
616.3789672851562
 20
127.5659942626953
 10
616.3789672851562
 20
110.4920043945312
 10
616.3789672851562
 20
110.4920043945312
 10
616.3789672851562
 20
52.0570068359375
 10
616.3789672851562
 20
52.0570068359375
 10
616.3789672851562
 20
35.37301635742188
 10
620.9269409179688
 20
23.22000122070312
 10
638.3789672851562
 20
23.22000122070312
 10
652.032958984375
 20
23.22000122070312
 10
660.7499389648438
 20
33.46200561523438
 10
660.7499389648438
 20
49.39599609375
 10
660.7499389648438
 20
49.39599609375
 10
660.7499389648438
 20
74.06298828125
 10
660.7499389648438
 20
74.06298828125
 10
660.7499389648438
 20
83.92498779296875
 10
661.888916015625
 20
94.177978515625
 10
667.9559326171875
 20
94.177978515625
 10
670.9849243164062
 20
94.177978515625
 10
675.52294921875
 20
92.2769775390625
 10
675.52294921875
 20
74.06298828125
 10
675.52294921875
 20
74.06298828125
 10
675.52294921875
 20
49.39599609375
 10
675.52294921875
 20
49.39599609375
 10
675.52294921875
 20
31.94198608398438
 10
684.2489624023438
 20
23.22000122070312
 10
698.29296875
 20
23.22000122070312
 10
710.7979736328125
 20
23.22000122070312
 10
719.9039916992188
 20
31.56201171875
 10
719.9039916992188
 20
48.635986328125
 10
719.9039916992188
 20
48.635986328125
 10
719.9039916992188
 20
90.38699340820312
 10
719.9039916992188
 20
90.38699340820312
 10
719.9039916992188
 20
116.56298828125
 10
712.697021484375
 20
138.9489898681641
 10
682.3599853515625
 20
138.9489898681641
 10
682.3599853515625
 20
138.9489898681641
 10
682.3599853515625
 20
138.9490051269531
 10
682.3599853515625
 20
138.9490051269531
 97
        0
 97
        0
 92
        1
 93
        1
 72
     4
 94
        3
 73
     0
 74
     1
 95
       50
 96
       46
 40
0.0
 40
0.0
 40
0.0
 40
0.0
 40
1.0
 40
1.0
 40
1.0
 40
2.0
 40
2.0
 40
2.0
 40
3.0
 40
3.0
 40
3.0
 40
4.0
 40
4.0
 40
4.0
 40
5.0
 40
5.0
 40
5.0
 40
6.0
 40
6.0
 40
6.0
 40
7.0
 40
7.0
 40
7.0
 40
8.0
 40
8.0
 40
8.0
 40
9.0
 40
9.0
 40
9.0
 40
10.0
 40
10.0
 40
10.0
 40
11.0
 40
11.0
 40
11.0
 40
12.0
 40
12.0
 40
12.0
 40
13.0
 40
13.0
 40
13.0
 40
14.0
 40
14.0
 40
14.0
 40
15.0
 40
15.0
 40
15.0
 40
15.0
 10
101.166015625
 20
143.8130035400391
 10
81.95501708984375
 20
143.8130035400391
 10
84.65401458740234
 20
144.9530029296875
 10
79.65601348876953
 20
159.7570037841797
 10
76.96701049804688
 20
168.1090087890625
 10
73.89801025390625
 20
175.3110046386719
 10
59.29501342773438
 20
175.3110046386719
 10
38.16401290893555
 20
175.3110046386719
 10
38.93401336669922
 20
154.0559997558594
 10
38.93401336669922
 20
141.9230041503906
 10
38.93401336669922
 20
141.9230041503906
 10
38.93401336669922
 20
55.781005859375
 10
38.93401336669922
 20
55.781005859375
 10
38.93401336669922
 20
40.99700927734375
 10
46.61001205444336
 20
31.114990234375
 10
61.60401153564453
 20
31.114990234375
 10
73.11901092529297
 20
31.114990234375
 10
81.18501281738281
 20
41.36700439453125
 10
81.18501281738281
 20
55.781005859375
 10
81.18501281738281
 20
55.781005859375
 10
81.18501281738281
 20
82.72799682617188
 10
81.18501281738281
 20
82.72799682617188
 10
81.18501281738281
 20
95.6309814453125
 10
84.2640151977539
 20
102.072998046875
 10
90.4110107421875
 20
102.072998046875
 10
96.17900848388672
 20
102.072998046875
 10
99.24700927734375
 20
96.3909912109375
 10
99.24700927734375
 20
84.61801147460938
 10
99.24700927734375
 20
84.61801147460938
 10
99.24700927734375
 20
55.781005859375
 10
99.24700927734375
 20
55.781005859375
 10
99.24700927734375
 20
39.46701049804688
 10
106.1640090942383
 20
31.114990234375
 10
121.1480102539062
 20
31.114990234375
 10
135.7410125732422
 20
31.114990234375
 10
141.5090026855469
 20
40.23699951171875
 10
141.5090026855469
 20
66.79400634765625
 10
141.5090026855469
 20
66.79400634765625
 10
141.5090026855469
 20
95.25100708007812
 10
141.5090026855469
 20
95.25100708007812
 10
141.5090026855469
 20
130.1600036621094
 10
127.6750030517578
 20
143.8130035400391
 10
101.1660003662109
 20
143.8130035400391
 10
101.1660003662109
 20
143.8130035400391
 10
101.166015625
 20
143.8130035400391
 10
101.166015625
 20
143.8130035400391
 97
        0
 97
        0
 92
        1
 93
        1
 72
     4
 94
        3
 73
     0
 74
     1
 95
       38
 96
       34
 40
0.0
 40
0.0
 40
0.0
 40
0.0
 40
1.0
 40
1.0
 40
1.0
 40
2.0
 40
2.0
 40
2.0
 40
3.0
 40
3.0
 40
3.0
 40
4.0
 40
4.0
 40
4.0
 40
5.0
 40
5.0
 40
5.0
 40
6.0
 40
6.0
 40
6.0
 40
7.0
 40
7.0
 40
7.0
 40
8.0
 40
8.0
 40
8.0
 40
9.0
 40
9.0
 40
9.0
 40
10.0
 40
10.0
 40
10.0
 40
11.0
 40
11.0
 40
11.0
 40
11.0
 10
201.9700164794922
 20
153.5180053710938
 10
179.9800109863281
 20
153.5180053710938
 10
157.989013671875
 20
142.8860015869141
 10
157.989013671875
 20
125.0709991455078
 10
157.989013671875
 20
115.5690002441406
 10
164.0570068359375
 20
111.0180053710938
 10
164.4360198974609
 20
106.0870056152344
 10
164.4360198974609
 20
104.5760192871094
 10
163.4870147705078
 20
101.906005859375
 10
161.3980255126953
 20
98.875
 10
161.3980255126953
 20
98.875
 10
153.8110198974609
 20
87.87200927734375
 10
153.8110198974609
 20
87.87200927734375
 10
151.9220123291016
 20
84.45101928710938
 10
150.4030151367188
 20
77.239013671875
 10
150.4030151367188
 20
69.28701782226562
 10
150.4030151367188
 20
50.30300903320312
 10
167.4650115966797
 20
34.7490234375
 10
189.4650115966797
 20
34.7490234375
 10
198.1820068359375
 20
34.7490234375
 10
209.1770172119141
 20
39.11001586914062
 10
217.5130157470703
 20
38.54000854492188
 10
217.5130157470703
 20
38.54000854492188
 10
232.3070220947266
 20
37.39901733398438
 10
232.3070220947266
 20
37.39901733398438
 10
247.1000213623047
 20
36.27902221679688
 10
254.3070220947266
 20
45.00100708007812
 10
254.3070220947266
 20
59.79501342773438
 10
254.3070220947266
 20
59.79501342773438
 10
254.3070220947266
 20
101.906005859375
 10
254.3070220947266
 20
101.906005859375
 10
254.3070220947266
 20
140.6150054931641
 10
240.6430206298828
 20
153.5180053710938
 10
201.9700164794922
 20
153.5180053710938
 97
        0
 97
        0
 92
        1
 93
        1
 72
     4
 94
        3
 73
     0
 74
     1
 95
       20
 96
       16
 40
0.0
 40
0.0
 40
0.0
 40
0.0
 40
1.0
 40
1.0
 40
1.0
 40
2.0
 40
2.0
 40
2.0
 40
3.0
 40
3.0
 40
3.0
 40
4.0
 40
4.0
 40
4.0
 40
5.0
 40
5.0
 40
5.0
 40
5.0
 10
558.7780151367188
 20
48.06399536132812
 10
556.489013671875
 20
48.06399536132812
 10
551.9410400390625
 20
48.82400512695312
 10
551.9410400390625
 20
53.0050048828125
 10
551.9410400390625
 20
54.14599609375
 10
553.8300170898438
 20
57.17599487304688
 10
559.1470336914062
 20
57.17599487304688
 10
561.7960205078125
 20
57.17599487304688
 10
565.9640502929688
 20
56.03598022460938
 10
565.9640502929688
 20
53.385009765625
 10
565.9640502929688
 20
49.21401977539062
 10
561.4160766601562
 20
48.06399536132812
 10
558.778076171875
 20
48.06399536132812
 10
558.778076171875
 20
48.06399536132812
 10
558.7780151367188
 20
48.06399536132812
 10
558.7780151367188
 20
48.06399536132812
 97
        0
 97
        0
 92
        1
 93
        1
 72
     4
 94
        3
 73
     0
 74
     1
 95
       17
 96
       13
 40
0.0
 40
0.0
 40
0.0
 40
0.0
 40
1.0
 40
1.0
 40
1.0
 40
2.0
 40
2.0
 40
2.0
 40
3.0
 40
3.0
 40
3.0
 40
4.0
 40
4.0
 40
4.0
 40
4.0
 10
199.3210144042969
 20
62.82598876953125
 10
195.5330200195312
 20
62.82598876953125
 10
190.5950164794922
 20
64.72598266601562
 10
190.5950164794922
 20
71.927978515625
 10
190.5950164794922
 20
74.21896362304688
 10
194.0130157470703
 20
81.03997802734375
 10
202.7300109863281
 20
81.03997802734375
 10
209.1770172119141
 20
81.03997802734375
 10
210.3160095214844
 20
76.10897827148438
 10
210.3160095214844
 20
73.8389892578125
 10
210.3160095214844
 20
68.13699340820312
 10
205.3780059814453
 20
62.82598876953125
 10
199.3210144042969
 20
62.82598876953125
 97
        0
 97
        0
 92
        1
 93
        1
 72
     4
 94
        3
 73
     0
 74
     1
 95
       20
 96
       16
 40
0.0
 40
0.0
 40
0.0
 40
0.0
 40
1.0
 40
1.0
 40
1.0
 40
2.0
 40
2.0
 40
2.0
 40
3.0
 40
3.0
 40
3.0
 40
4.0
 40
4.0
 40
4.0
 40
5.0
 40
5.0
 40
5.0
 40
5.0
 10
321.0060119628906
 20
68.677001953125
 10
313.4200134277344
 20
68.677001953125
 10
308.4920043945312
 20
76.26901245117188
 10
308.4920043945312
 20
90.68301391601562
 10
308.4920043945312
 20
102.0660095214844
 10
314.1790161132812
 20
109.6670227050781
 10
321.7659912109375
 20
109.6670227050781
 10
329.3529968261719
 20
109.6670227050781
 10
334.281005859375
 20
100.1750183105469
 10
334.281005859375
 20
88.79202270507812
 10
334.281005859375
 20
75.1390380859375
 10
327.4540100097656
 20
68.67703247070312
 10
321.0060119628906
 20
68.67703247070312
 10
321.0060119628906
 20
68.67703247070312
 10
321.0060119628906
 20
68.677001953125
 10
321.0060119628906
 20
68.677001953125
 97
        0
 97
        0
 92
        1
 93
        1
 72
     4
 94
        3
 73
     0
 74
     1
 95
       20
 96
       16
 40
0.0
 40
0.0
 40
0.0
 40
0.0
 40
1.0
 40
1.0
 40
1.0
 40
2.0
 40
2.0
 40
2.0
 40
3.0
 40
3.0
 40
3.0
 40
4.0
 40
4.0
 40
4.0
 40
5.0
 40
5.0
 40
5.0
 40
5.0
 10
441.5679931640625
 20
79.37301635742188
 10
433.9819946289062
 20
79.37301635742188
 10
429.0440063476562
 20
86.96502685546875
 10
429.0440063476562
 20
101.3680114746094
 10
429.0440063476562
 20
112.7610168457031
 10
434.7409973144531
 20
120.3530120849609
 10
442.3280029296875
 20
120.3530120849609
 10
449.9049987792969
 20
120.3530120849609
 10
454.8420104980469
 20
110.8610229492188
 10
454.8420104980469
 20
99.48800659179688
 10
454.8420104980469
 20
85.82501220703125
 10
448.0250244140625
 20
79.37301635742188
 10
441.5680236816406
 20
79.37301635742188
 10
441.5680236816406
 20
79.37301635742188
 10
441.5679931640625
 20
79.37301635742188
 10
441.5679931640625
 20
79.37301635742188
 97
        0
 97
        0
 92
        1
 93
        1
 72
     4
 94
        3
 73
     0
 74
     1
 95
       17
 96
       13
 40
0.0
 40
0.0
 40
0.0
 40
0.0
 40
1.0
 40
1.0
 40
1.0
 40
2.0
 40
2.0
 40
2.0
 40
3.0
 40
3.0
 40
3.0
 40
4.0
 40
4.0
 40
4.0
 40
4.0
 10
556.489013671875
 20
84.87301635742188
 10
553.0800170898438
 20
84.87301635742188
 10
547.3829956054688
 20
86.77401733398438
 10
547.3829956054688
 20
92.47500610351562
 10
547.3829956054688
 20
95.88601684570312
 10
550.8109741210938
 20
100.0570068359375
 10
556.8679809570312
 20
100.0570068359375
 10
561.0369873046875
 20
100.0570068359375
 10
566.343994140625
 20
97.77700805664062
 10
566.343994140625
 20
92.47500610351562
 10
566.343994140625
 20
86.39401245117188
 10
561.7960205078125
 20
84.87301635742188
 10
556.489013671875
 20
84.87301635742188
 97
        0
 97
        0
 92
        1
 93
        1
 72
     4
 94
        3
 73
     0
 74
     1
 95
       32
 96
       28
 40
0.0
 40
0.0
 40
0.0
 40
0.0
 40
1.0
 40
1.0
 40
1.0
 40
2.0
 40
2.0
 40
2.0
 40
3.0
 40
3.0
 40
3.0
 40
4.0
 40
4.0
 40
4.0
 40
5.0
 40
5.0
 40
5.0
 40
6.0
 40
6.0
 40
6.0
 40
7.0
 40
7.0
 40
7.0
 40
8.0
 40
8.0
 40
8.0
 40
9.0
 40
9.0
 40
9.0
 40
9.0
 10
578.4609985351562
 20
138.3530120849609
 10
578.4609985351562
 20
138.3530120849609
 10
582.5490112304688
 20
142.8240051269531
 10
582.5490112304688
 20
142.8240051269531
 10
584.5280151367188
 20
144.9840087890625
 10
584.3779907226562
 20
148.385009765625
 10
582.208984375
 20
150.3760070800781
 10
582.208984375
 20
150.3760070800781
 10
570.4339599609375
 20
161.1580047607422
 10
570.4339599609375
 20
161.1580047607422
 10
568.2649536132812
 20
163.1490020751953
 10
564.886962890625
 20
162.9889984130859
 10
562.887939453125
 20
160.8180084228516
 10
562.887939453125
 20
160.8180084228516
 10
558.8099365234375
 20
156.3570098876953
 10
558.8099365234375
 20
156.3570098876953
 10
556.8199462890625
 20
154.18701171875
 10
556.9799194335938
 20
150.7860107421875
 10
559.138916015625
 20
148.8050079345703
 10
559.138916015625
 20
148.8050079345703
 10
570.9139404296875
 20
138.0230102539062
 10
570.9139404296875
 20
138.0230102539062
 10
573.0829467773438
 20
136.0420074462891
 10
576.48193359375
 20
136.1820068359375
 10
578.4609375
 20
138.3530120849609
 10
578.4609375
 20
138.3530120849609
 10
578.4609985351562
 20
138.3530120849609
 10
578.4609985351562
 20
138.3530120849609
 97
        0
 97
        0
 92
        1
 93
        1
 72
     4
 94
        3
 73
     0
 74
     1
 95
       41
 96
       37
 40
0.0
 40
0.0
 40
0.0
 40
0.0
 40
1.0
 40
1.0
 40
1.0
 40
2.0
 40
2.0
 40
2.0
 40
3.0
 40
3.0
 40
3.0
 40
4.0
 40
4.0
 40
4.0
 40
5.0
 40
5.0
 40
5.0
 40
6.0
 40
6.0
 40
6.0
 40
7.0
 40
7.0
 40
7.0
 40
8.0
 40
8.0
 40
8.0
 40
9.0
 40
9.0
 40
9.0
 40
10.0
 40
10.0
 40
10.0
 40
11.0
 40
11.0
 40
11.0
 40
12.0
 40
12.0
 40
12.0
 40
12.0
 10
646.2540283203125
 20
336.2450103759766
 10
594.1370239257812
 20
336.2450103759766
 10
551.89599609375
 20
293.9650115966797
 10
551.89599609375
 20
241.81201171875
 10
551.89599609375
 20
220.7060089111328
 10
558.9030151367188
 20
201.281005859375
 10
570.5969848632812
 20
185.5480041503906
 10
570.5969848632812
 20
185.5480041503906
 10
564.7699584960938
 20
179.1860046386719
 10
564.7699584960938
 20
179.1860046386719
 10
562.7809448242188
 20
177.0149993896484
 10
562.9309692382812
 20
173.6150054931641
 10
565.0999755859375
 20
171.6340026855469
 10
565.0999755859375
 20
171.6340026855469
 10
591.927978515625
 20
147.0480041503906
 10
591.927978515625
 20
147.0480041503906
 10
594.0969848632812
 20
145.0770111083984
 10
597.4959716796875
 20
145.2170104980469
 10
599.4749755859375
 20
147.3880004882812
 10
599.4749755859375
 20
147.3880004882812
 10
605.6819458007812
 20
154.1699981689453
 10
605.6819458007812
 20
154.1699981689453
 10
606.2119750976562
 20
154.7400054931641
 10
606.5619506835938
 20
155.4100036621094
 10
606.8009643554688
 20
156.1100006103516
 10
618.8159790039062
 20
150.5590057373047
 10
632.1599731445312
 20
147.3679962158203
 10
646.2539672851562
 20
147.3679962158203
 10
698.3909912109375
 20
147.3679962158203
 10
740.6319580078125
 20
189.6589965820312
 10
740.6319580078125
 20
241.8119964599609
 10
740.6319580078125
 20
293.9649963378906
 10
698.3909301757812
 20
336.2449951171875
 10
646.2539672851562
 20
336.2449951171875
 10
646.2539672851562
 20
336.2449951171875
 10
646.2540283203125
 20
336.2450103759766
 10
646.2540283203125
 20
336.2450103759766
 97
        0
 97
        0
 92
        1
 93
        1
 72
     4
 94
        3
 73
     0
 74
     1
 95
       26
 96
       22
 40
0.0
 40
0.0
 40
0.0
 40
0.0
 40
1.0
 40
1.0
 40
1.0
 40
2.0
 40
2.0
 40
2.0
 40
3.0
 40
3.0
 40
3.0
 40
4.0
 40
4.0
 40
4.0
 40
5.0
 40
5.0
 40
5.0
 40
6.0
 40
6.0
 40
6.0
 40
7.0
 40
7.0
 40
7.0
 40
7.0
 10
759.8650512695312
 20
180.7660064697266
 10
759.8650512695312
 20
180.7660064697266
 10
751.6090698242188
 20
185.1570129394531
 10
751.6090698242188
 20
185.1570129394531
 10
749.1200561523438
 20
186.4780120849609
 10
746.0110473632812
 20
185.5280151367188
 10
744.6920776367188
 20
183.0370178222656
 10
743.362060546875
 20
180.5460205078125
 10
744.3220825195312
 20
177.4350128173828
 10
746.8010864257812
 20
176.1150207519531
 10
746.8010864257812
 20
176.1150207519531
 10
755.0570678710938
 20
171.7340240478516
 10
755.0570678710938
 20
171.7340240478516
 10
757.5460815429688
 20
170.3940277099609
 10
760.6650390625
 20
171.3640289306641
 10
761.9840698242188
 20
173.8450317382812
 10
763.3030395507812
 20
176.3350372314453
 10
762.3540649414062
 20
179.4460296630859
 10
759.8650512695312
 20
180.7660369873047
 10
759.8650512695312
 20
180.7660369873047
 10
759.8650512695312
 20
180.7660064697266
 10
759.8650512695312
 20
180.7660064697266
 97
        0
 97
        0
 92
        1
 93
        1
 72
     4
 94
        3
 73
     0
 74
     1
 95
       56
 96
       52
 40
0.0
 40
0.0
 40
0.0
 40
0.0
 40
1.0
 40
1.0
 40
1.0
 40
2.0
 40
2.0
 40
2.0
 40
3.0
 40
3.0
 40
3.0
 40
4.0
 40
4.0
 40
4.0
 40
5.0
 40
5.0
 40
5.0
 40
6.0
 40
6.0
 40
6.0
 40
7.0
 40
7.0
 40
7.0
 40
8.0
 40
8.0
 40
8.0
 40
9.0
 40
9.0
 40
9.0
 40
10.0
 40
10.0
 40
10.0
 40
11.0
 40
11.0
 40
11.0
 40
12.0
 40
12.0
 40
12.0
 40
13.0
 40
13.0
 40
13.0
 40
14.0
 40
14.0
 40
14.0
 40
15.0
 40
15.0
 40
15.0
 40
16.0
 40
16.0
 40
16.0
 40
17.0
 40
17.0
 40
17.0
 40
17.0
 10
415.6520385742188
 20
174.6610107421875
 10
428.1660461425781
 20
174.6610107421875
 10
434.2340393066406
 20
181.4920043945312
 10
434.2340393066406
 20
191.3550109863281
 10
434.2340393066406
 20
197.4260101318359
 10
429.68603515625
 20
205.7790069580078
 10
423.998046875
 20
215.2610168457031
 10
413.7730407714844
 20
232.7150115966797
 10
411.4840393066406
 20
234.2360229492188
 10
411.4840393066406
 20
241.8280181884766
 10
411.4840393066406
 20
247.1390151977539
 10
413.7730407714844
 20
249.7900161743164
 10
418.7000427246094
 20
256.2410202026367
 10
425.5070495605469
 20
265.3540191650391
 10
428.9260559082031
 20
269.5250244140625
 10
428.9260559082031
 20
277.1160202026367
 10
428.9260559082031
 20
285.8390197753906
 10
420.2100524902344
 20
290.77001953125
 10
407.695068359375
 20
290.77001953125
 10
388.7440795898438
 20
290.77001953125
 10
387.2140808105469
 20
281.6680221557617
 10
377.3590698242188
 20
281.6680221557617
 10
373.1900634765625
 20
281.6680221557617
 10
372.0510559082031
 20
296.0810241699219
 10
372.0510559082031
 20
302.1530227661133
 10
372.0510559082031
 20
314.6760215759277
 10
362.945068359375
 20
324.5380249023438
 10
349.6810607910156
 20
324.5380249023438
 10
332.6080627441406
 20
324.5380249023438
 10
326.1610717773438
 20
313.1550254821777
 10
326.1610717773438
 20
298.7420272827148
 10
326.1610717773438
 20
298.7420272827148
 10
326.1610717773438
 20
204.6380310058594
 10
326.1610717773438
 20
204.6380310058594
 10
326.1610717773438
 20
188.3240356445312
 10
330.3390808105469
 20
174.6610260009766
 10
349.2910766601562
 20
174.6610260009766
 10
360.6760864257812
 20
174.6610260009766
 10
366.7430725097656
 20
181.4920196533203
 10
369.0120849609375
 20
185.2830200195312
 10
373.5600891113281
 20
193.2550201416016
 10
373.5600891113281
 20
195.5360260009766
 10
377.3590698242188
 20
195.5360260009766
 10
381.5270690917969
 20
195.5360260009766
 10
386.0750732421875
 20
188.3240203857422
 10
391.0130615234375
 20
183.3930206298828
 10
398.2090759277344
 20
176.5610198974609
 10
403.8970642089844
 20
174.6610260009766
 10
415.6520690917969
 20
174.6610260009766
 10
415.6520690917969
 20
174.6610260009766
 10
415.6520385742188
 20
174.6610107421875
 10
415.6520385742188
 20
174.6610107421875
 97
        0
 97
        0
 92
        1
 93
        1
 72
     4
 94
        3
 73
     0
 74
     1
 95
       71
 96
       67
 40
0.0
 40
0.0
 40
0.0
 40
0.0
 40
1.0
 40
1.0
 40
1.0
 40
2.0
 40
2.0
 40
2.0
 40
3.0
 40
3.0
 40
3.0
 40
4.0
 40
4.0
 40
4.0
 40
5.0
 40
5.0
 40
5.0
 40
6.0
 40
6.0
 40
6.0
 40
7.0
 40
7.0
 40
7.0
 40
8.0
 40
8.0
 40
8.0
 40
9.0
 40
9.0
 40
9.0
 40
10.0
 40
10.0
 40
10.0
 40
11.0
 40
11.0
 40
11.0
 40
12.0
 40
12.0
 40
12.0
 40
13.0
 40
13.0
 40
13.0
 40
14.0
 40
14.0
 40
14.0
 40
15.0
 40
15.0
 40
15.0
 40
16.0
 40
16.0
 40
16.0
 40
17.0
 40
17.0
 40
17.0
 40
18.0
 40
18.0
 40
18.0
 40
19.0
 40
19.0
 40
19.0
 40
20.0
 40
20.0
 40
20.0
 40
21.0
 40
21.0
 40
21.0
 40
22.0
 40
22.0
 40
22.0
 40
22.0
 10
43.87099838256836
 20
359.7720003128052
 10
54.83599853515625
 20
359.7720003128052
 10
70.53900146484375
 20
357.2720003128052
 10
76.26599884033203
 20
335.826000213623
 10
76.26599884033203
 20
335.826000213623
 10
83.74299621582031
 20
307.8889999389648
 10
83.74299621582031
 20
307.8889999389648
 10
89.97999572753906
 20
284.443000793457
 10
93.22899627685547
 20
272.4799957275391
 10
100.1959991455078
 20
272.4799957275391
 10
109.6719970703125
 20
272.4799957275391
 10
114.1500015258789
 20
297.9169921875
 10
124.125
 20
335.3259963989258
 10
128.1130065917969
 20
350.2899971008301
 10
138.0890045166016
 20
359.7719955444336
 10
157.52099609375
 20
359.7719955444336
 10
157.52099609375
 20
359.7719955444336
 10
171.9839935302734
 20
359.7719955444336
 10
171.9839935302734
 20
359.7719955444336
 10
198.4029998779297
 20
359.7719955444336
 10
200.8909912109375
 20
340.8169956207275
 10
200.8909912109375
 20
322.3529968261719
 10
200.8909912109375
 20
322.3529968261719
 10
200.8909912109375
 20
212.114990234375
 10
200.8909912109375
 20
212.114990234375
 10
200.8909912109375
 20
189.6699829101562
 10
192.9149932861328
 20
178.1969909667969
 10
175.9719848632812
 20
178.1969909667969
 10
163.0079803466797
 20
178.1969909667969
 10
155.7809906005859
 20
185.1779937744141
 10
152.0429840087891
 20
199.1419982910156
 10
150.2939910888672
 20
205.1329956054688
 10
150.0539855957031
 20
229.0789947509766
 10
143.5669860839844
 20
229.0789947509766
 10
139.5879821777344
 20
229.0789947509766
 10
138.0889892578125
 20
224.0879974365234
 10
128.1139831542969
 20
198.6519927978516
 10
122.635986328125
 20
184.6779937744141
 10
113.1599807739258
 20
177.6969909667969
 10
100.1959838867188
 20
177.6969909667969
 10
87.74098205566406
 20
177.6969909667969
 10
77.01598358154297
 20
185.1779937744141
 10
71.78797912597656
 20
199.1419982910156
 10
62.57197952270508
 20
223.0879974365234
 10
58.82397842407227
 20
231.5700073242188
 10
55.34597778320312
 20
231.5700073242188
 10
52.34697723388672
 20
231.5700073242188
 10
49.35797882080078
 20
226.0890045166016
 10
47.35897827148438
 20
200.6420135498047
 10
45.85997772216797
 20
184.1780090332031
 10
32.90497589111328
 20
178.197021484375
 10
24.42897796630859
 20
178.197021484375
 10
2.498977661132812
 20
178.197021484375
 10
-0.0000228881835938
 20
194.6610260009766
 10
-0.0000228881835938
 20
219.5970153808594
 10
-0.0000228881835938
 20
219.5970153808594
 10
-0.0000228881835938
 20
323.8530006408691
 10
-0.0000228881835938
 20
323.8530006408691
 10
-0.0000228881835938
 20
347.798999786377
 10
6.486977100372314
 20
359.7719993591309
 10
29.41697692871094
 20
359.7719993591309
 10
29.41697692871094
 20
359.7719993591309
 10
43.87097930908203
 20
359.7719993591309
 10
43.87097930908203
 20
359.7719993591309
 10
43.87097930908203
 20
359.7719993591309
 10
43.87099838256836
 20
359.7720003128052
 10
43.87099838256836
 20
359.7720003128052
 97
        0
 97
        0
 92
        1
 93
        1
 72
     4
 94
        3
 73
     0
 74
     1
 95
       41
 96
       37
 40
0.0
 40
0.0
 40
0.0
 40
0.0
 40
1.0
 40
1.0
 40
1.0
 40
2.0
 40
2.0
 40
2.0
 40
3.0
 40
3.0
 40
3.0
 40
4.0
 40
4.0
 40
4.0
 40
5.0
 40
5.0
 40
5.0
 40
6.0
 40
6.0
 40
6.0
 40
7.0
 40
7.0
 40
7.0
 40
8.0
 40
8.0
 40
8.0
 40
9.0
 40
9.0
 40
9.0
 40
10.0
 40
10.0
 40
10.0
 40
11.0
 40
11.0
 40
11.0
 40
12.0
 40
12.0
 40
12.0
 40
12.0
 10
249.5940093994141
 20
189.1650085449219
 10
258.3099975585938
 20
189.1650085449219
 10
269.3150024414062
 20
193.5270080566406
 10
277.6520080566406
 20
192.9560089111328
 10
277.6520080566406
 20
192.9560089111328
 10
292.4450073242188
 20
191.8160095214844
 10
292.4450073242188
 20
191.8160095214844
 10
307.22900390625
 20
190.6860046386719
 10
314.4349975585938
 20
199.4080047607422
 10
314.4349975585938
 20
214.2120056152344
 10
314.4349975585938
 20
214.2120056152344
 10
314.4349975585938
 20
256.3320007324219
 10
314.4349975585938
 20
256.3320007324219
 10
314.4349975585938
 20
295.0319976806641
 10
300.781005859375
 20
307.935001373291
 10
262.1080017089844
 20
307.935001373291
 10
240.1080017089844
 20
307.935001373291
 10
218.1179962158203
 20
297.3030014038086
 10
218.1179962158203
 20
279.4779968261719
 10
218.1179962158203
 20
269.9860000610352
 10
224.1949920654297
 20
265.4349975585938
 10
224.5650024414062
 20
260.5029983520508
 10
224.5650024414062
 20
258.9830017089844
 10
223.6150054931641
 20
256.3320007324219
 10
221.5260009765625
 20
253.2910003662109
 10
221.5260009765625
 20
253.2910003662109
 10
213.9499969482422
 20
242.2890014648438
 10
213.9499969482422
 20
242.2890014648438
 10
212.0599975585938
 20
238.8780059814453
 10
210.5309906005859
 20
231.6660003662109
 10
210.5309906005859
 20
223.6940002441406
 10
210.5309906005859
 20
204.718994140625
 10
227.6039886474609
 20
189.1650085449219
 10
249.593994140625
 20
189.1650085449219
 10
249.593994140625
 20
189.1650085449219
 10
249.5940093994141
 20
189.1650085449219
 10
249.5940093994141
 20
189.1650085449219
 97
        0
 97
        0
 92
        1
 93
        1
 72
     4
 94
        3
 73
     0
 74
     1
 95
       26
 96
       22
 40
0.0
 40
0.0
 40
0.0
 40
0.0
 40
1.0
 40
1.0
 40
1.0
 40
2.0
 40
2.0
 40
2.0
 40
3.0
 40
3.0
 40
3.0
 40
4.0
 40
4.0
 40
4.0
 40
5.0
 40
5.0
 40
5.0
 40
6.0
 40
6.0
 40
6.0
 40
7.0
 40
7.0
 40
7.0
 40
7.0
 10
493.1849975585938
 20
191.6330108642578
 10
514.0349731445312
 20
191.6330108642578
 10
537.9249877929688
 20
203.3960113525391
 10
537.9249877929688
 20
220.4700164794922
 10
537.9249877929688
 20
226.9220123291016
 10
536.0360107421875
 20
227.3020172119141
 10
536.0360107421875
 20
232.9930114746094
 10
536.0360107421875
 20
234.1340179443359
 10
535.2760009765625
 20
236.0240173339844
 10
537.9249877929688
 20
240.1950073242188
 10
542.8629760742188
 20
248.1670074462891
 10
543.2319946289062
 20
252.338005065918
 10
543.2319946289062
 20
256.8990097045898
 10
543.2319946289062
 20
280.8050079345703
 10
525.0299682617188
 20
305.4720153808594
 10
490.135986328125
 20
305.4720153808594
 10
461.7079772949219
 20
305.4720153808594
 10
437.4389953613281
 20
283.0760192871094
 10
437.4389953613281
 20
247.4070129394531
 10
437.4389953613281
 20
218.9500122070312
 10
455.260986328125
 20
191.6330108642578
 10
493.1849975585938
 20
191.6330108642578
 97
        0
 97
        0
 92
        1
 93
        1
 72
     4
 94
        3
 73
     0
 74
     1
 95
       41
 96
       37
 40
0.0
 40
0.0
 40
0.0
 40
0.0
 40
1.0
 40
1.0
 40
1.0
 40
2.0
 40
2.0
 40
2.0
 40
3.0
 40
3.0
 40
3.0
 40
4.0
 40
4.0
 40
4.0
 40
5.0
 40
5.0
 40
5.0
 40
6.0
 40
6.0
 40
6.0
 40
7.0
 40
7.0
 40
7.0
 40
8.0
 40
8.0
 40
8.0
 40
9.0
 40
9.0
 40
9.0
 40
10.0
 40
10.0
 40
10.0
 40
11.0
 40
11.0
 40
11.0
 40
12.0
 40
12.0
 40
12.0
 40
12.0
 10
637.7879638671875
 20
214.0850067138672
 10
637.7879638671875
 20
206.2929992675781
 10
633.4999389648438
 20
200.1510009765625
 10
625.512939453125
 20
200.1510009765625
 10
619.7759399414062
 20
200.1510009765625
 10
612.4989624023438
 20
203.0119934082031
 10
612.6089477539062
 20
214.4949951171875
 10
612.6089477539062
 20
214.4949951171875
 10
612.8089599609375
 20
248.1029968261719
 10
612.8089599609375
 20
248.1029968261719
 10
612.8089599609375
 20
255.0749969482422
 10
614.8479614257812
 20
256.9149932861328
 10
614.8479614257812
 20
261.2259979248047
 10
614.8479614257812
 20
265.1169967651367
 10
613.6179809570312
 20
265.9379959106445
 10
613.6179809570312
 20
270.6490020751953
 10
613.6179809570312
 20
275.9800033569336
 10
618.3259887695312
 20
281.7220001220703
 10
625.1029663085938
 20
281.7220001220703
 10
631.6399536132812
 20
281.7220001220703
 10
636.7779541015625
 20
277.0
 10
636.7779541015625
 20
270.4489974975586
 10
636.7779541015625
 20
265.9379959106445
 10
635.5489501953125
 20
265.5279998779297
 10
635.5489501953125
 20
262.4570007324219
 10
635.5489501953125
 20
260.8160018920898
 10
635.9589233398438
 20
258.765998840332
 10
636.5579223632812
 20
256.504997253418
 10
637.5879516601562
 20
252.4039993286133
 10
637.7879028320312
 20
249.5439987182617
 10
637.7879028320312
 20
246.2630004882812
 10
637.7879028320312
 20
246.2630004882812
 10
637.7879028320312
 20
214.0849914550781
 10
637.7879028320312
 20
214.0849914550781
 10
637.7879028320312
 20
214.0849914550781
 10
637.7879638671875
 20
214.0850067138672
 10
637.7879638671875
 20
214.0850067138672
 97
        0
 97
        0
 92
        1
 93
        1
 72
     4
 94
        3
 73
     0
 74
     1
 95
       56
 96
       52
 40
0.0
 40
0.0
 40
0.0
 40
0.0
 40
1.0
 40
1.0
 40
1.0
 40
2.0
 40
2.0
 40
2.0
 40
3.0
 40
3.0
 40
3.0
 40
4.0
 40
4.0
 40
4.0
 40
5.0
 40
5.0
 40
5.0
 40
6.0
 40
6.0
 40
6.0
 40
7.0
 40
7.0
 40
7.0
 40
8.0
 40
8.0
 40
8.0
 40
9.0
 40
9.0
 40
9.0
 40
10.0
 40
10.0
 40
10.0
 40
11.0
 40
11.0
 40
11.0
 40
12.0
 40
12.0
 40
12.0
 40
13.0
 40
13.0
 40
13.0
 40
14.0
 40
14.0
 40
14.0
 40
15.0
 40
15.0
 40
15.0
 40
16.0
 40
16.0
 40
16.0
 40
17.0
 40
17.0
 40
17.0
 40
17.0
 10
668.303955078125
 20
200.7610015869141
 10
660.7279663085938
 20
200.7610015869141
 10
650.0819702148438
 20
205.0619964599609
 10
649.27294921875
 20
219.0059967041016
 10
649.27294921875
 20
219.6159973144531
 10
648.6429443359375
 20
236.6300048828125
 10
648.4529418945312
 20
240.3209991455078
 10
648.4529418945312
 20
241.1410064697266
 10
648.032958984375
 20
242.3719940185547
 10
647.2239379882812
 20
244.0019989013672
 10
646.81396484375
 20
244.4219970703125
 10
646.5939331054688
 20
245.443000793457
 10
644.1349487304688
 20
249.1329956054688
 10
643.5249633789062
 20
250.5639953613281
 10
643.1149291992188
 20
251.7939987182617
 10
643.1149291992188
 20
253.0239944458008
 10
643.1149291992188
 20
259.3759918212891
 10
646.4039306640625
 20
261.8369903564453
 10
647.8229370117188
 20
264.7069931030273
 10
648.032958984375
 20
265.3179931640625
 10
649.0529174804688
 20
269.6289901733398
 10
650.491943359375
 20
271.8789901733398
 10
653.3609619140625
 20
276.3899917602539
 10
657.0389404296875
 20
277.6209869384766
 10
659.907958984375
 20
277.6209869384766
 10
670.3529663085938
 20
277.6209869384766
 10
670.9729614257812
 20
270.2389831542969
 10
673.8419799804688
 20
264.296989440918
 10
675.0709838867188
 20
261.8369903564453
 10
676.5009765625
 20
261.0159912109375
 10
677.5299682617188
 20
259.5859909057617
 10
678.5499877929688
 20
258.1459884643555
 10
679.5689697265625
 20
256.9149932861328
 10
679.5689697265625
 20
254.6649932861328
 10
679.5689697265625
 20
250.7739944458008
 10
677.72998046875
 20
248.1029968261719
 10
675.0709838867188
 20
245.0319900512695
 10
672.81201171875
 20
242.5719909667969
 10
672.2130126953125
 20
239.5009918212891
 10
672.2130126953125
 20
236.2199859619141
 10
672.2130126953125
 20
230.2789916992188
 10
672.5120239257812
 20
228.6379852294922
 10
672.6119995117188
 20
226.9979858398438
 10
673.1220092773438
 20
221.2559814453125
 10
680.7990112304688
 20
217.5659790039062
 10
680.7990112304688
 20
211.0139923095703
 10
680.7990112304688
 20
205.2719879150391
 10
677.530029296875
 20
200.760986328125
 10
668.3040161132812
 20
200.760986328125
 10
668.3040161132812
 20
200.760986328125
 10
668.303955078125
 20
200.7610015869141
 10
668.303955078125
 20
200.7610015869141
 97
        0
 97
        0
 92
        1
 93
        1
 72
     4
 94
        3
 73
     0
 74
     1
 95
       17
 96
       13
 40
0.0
 40
0.0
 40
0.0
 40
0.0
 40
1.0
 40
1.0
 40
1.0
 40
2.0
 40
2.0
 40
2.0
 40
3.0
 40
3.0
 40
3.0
 40
4.0
 40
4.0
 40
4.0
 40
4.0
 10
262.8679504394531
 20
235.4570007324219
 10
269.31494140625
 20
235.4570007324219
 10
270.4449462890625
 20
230.5260009765625
 10
270.4449462890625
 20
228.2449951171875
 10
270.4449462890625
 20
222.5540008544922
 10
265.5169372558594
 20
217.2419891357422
 10
259.449951171875
 20
217.2419891357422
 10
255.6609497070312
 20
217.2419891357422
 10
250.7329559326172
 20
219.1429901123047
 10
250.7329559326172
 20
226.3549957275391
 10
250.7329559326172
 20
228.625
 10
254.1419525146484
 20
235.4570007324219
 10
262.8679504394531
 20
235.4570007324219
 97
        0
 97
        0
 92
        1
 93
        1
 72
     4
 94
        3
 73
     0
 74
     1
 95
       17
 96
       13
 40
0.0
 40
0.0
 40
0.0
 40
0.0
 40
1.0
 40
1.0
 40
1.0
 40
2.0
 40
2.0
 40
2.0
 40
3.0
 40
3.0
 40
3.0
 40
4.0
 40
4.0
 40
4.0
 40
4.0
 10
494.31396484375
 20
226.5420074462891
 10
492.0449523925781
 20
226.5420074462891
 10
487.4969787597656
 20
227.302001953125
 10
487.4969787597656
 20
231.4730072021484
 10
487.4969787597656
 20
232.6130065917969
 10
489.385986328125
 20
235.6440124511719
 10
494.7039794921875
 20
235.6440124511719
 10
497.3529663085938
 20
235.6440124511719
 10
501.5209655761719
 20
234.5140075683594
 10
501.5209655761719
 20
231.8530120849609
 10
501.5209655761719
 20
227.6820068359375
 10
496.9729614257812
 20
226.5420074462891
 10
494.31396484375
 20
226.5420074462891
 97
        0
 97
        0
 92
        1
 93
        1
 72
     4
 94
        3
 73
     0
 74
     1
 95
       26
 96
       22
 40
0.0
 40
0.0
 40
0.0
 40
0.0
 40
1.0
 40
1.0
 40
1.0
 40
2.0
 40
2.0
 40
2.0
 40
3.0
 40
3.0
 40
3.0
 40
4.0
 40
4.0
 40
4.0
 40
5.0
 40
5.0
 40
5.0
 40
6.0
 40
6.0
 40
6.0
 40
7.0
 40
7.0
 40
7.0
 40
7.0
 10
772.75
 20
244.9610061645508
 10
772.75
 20
244.9610061645508
 10
763.4039916992188
 20
244.7110061645508
 10
763.4039916992188
 20
244.7110061645508
 10
760.5859985351562
 20
244.6410064697266
 10
758.3569946289062
 20
242.281005859375
 10
758.4169921875
 20
239.4600067138672
 10
758.4970092773438
 20
236.6390075683594
 10
760.864990234375
 20
234.3990020751953
 10
763.6840209960938
 20
234.47900390625
 10
763.6840209960938
 20
234.47900390625
 10
773.02001953125
 20
234.7190093994141
 10
773.02001953125
 20
234.7190093994141
 10
775.8389892578125
 20
234.7890167236328
 10
778.0780029296875
 20
237.1590118408203
 10
777.998046875
 20
239.9700164794922
 10
777.9380493164062
 20
242.791015625
 10
775.5690307617188
 20
245.0310134887695
 10
772.7500610351562
 20
244.9610137939453
 10
772.7500610351562
 20
244.9610137939453
 10
772.75
 20
244.9610061645508
 10
772.75
 20
244.9610061645508
 97
        0
 97
        0
 92
        1
 93
        1
 72
     4
 94
        3
 73
     0
 74
     1
 95
       20
 96
       16
 40
0.0
 40
0.0
 40
0.0
 40
0.0
 40
1.0
 40
1.0
 40
1.0
 40
2.0
 40
2.0
 40
2.0
 40
3.0
 40
3.0
 40
3.0
 40
4.0
 40
4.0
 40
4.0
 40
5.0
 40
5.0
 40
5.0
 40
5.0
 10
492.4249877929688
 20
278.5250015258789
 10
496.6029968261719
 20
278.5250015258789
 10
501.9010009765625
 20
276.2440032958984
 10
501.9010009765625
 20
270.9329986572266
 10
501.9010009765625
 20
264.8610000610352
 10
497.3529968261719
 20
263.3509979248047
 10
492.0450134277344
 20
263.3509979248047
 10
488.6370239257812
 20
263.3509979248047
 10
482.9390258789062
 20
265.2409973144531
 10
482.9390258789062
 20
270.9329986572266
 10
482.9390258789062
 20
274.3539962768555
 10
486.3580322265625
 20
278.5250015258789
 10
492.4250183105469
 20
278.5250015258789
 10
492.4250183105469
 20
278.5250015258789
 10
492.4249877929688
 20
278.5250015258789
 10
492.4249877929688
 20
278.5250015258789
 97
        0
 97
        0
 92
        1
 93
        1
 72
     4
 94
        3
 73
     0
 74
     1
 95
       26
 96
       22
 40
0.0
 40
0.0
 40
0.0
 40
0.0
 40
1.0
 40
1.0
 40
1.0
 40
2.0
 40
2.0
 40
2.0
 40
3.0
 40
3.0
 40
3.0
 40
4.0
 40
4.0
 40
4.0
 40
5.0
 40
5.0
 40
5.0
 40
6.0
 40
6.0
 40
6.0
 40
7.0
 40
7.0
 40
7.0
 40
7.0
 10
749.64501953125
 20
293.5780029296875
 10
749.64501953125
 20
293.5780029296875
 10
757.6620483398438
 20
298.3990020751953
 10
757.6620483398438
 20
298.3990020751953
 10
760.071044921875
 20
299.8489990234375
 10
760.8600463867188
 20
303.0100021362305
 10
759.4110717773438
 20
305.4309997558594
 10
757.9620971679688
 20
307.8409996032715
 10
754.8031005859375
 20
308.6310005187988
 10
752.3840942382812
 20
307.1809997558594
 10
752.3840942382812
 20
307.1809997558594
 10
744.3681030273438
 20
302.3600006103516
 10
744.3681030273438
 20
302.3600006103516
 10
741.9490966796875
 20
300.9090042114258
 10
741.1691284179688
 20
297.7490005493164
 10
742.6190795898438
 20
295.3280029296875
 10
744.0680541992188
 20
292.9169998168945
 10
747.22607421875
 20
292.1270065307617
 10
749.6450805664062
 20
293.5780029296875
 10
749.6450805664062
 20
293.5780029296875
 10
749.64501953125
 20
293.5780029296875
 10
749.64501953125
 20
293.5780029296875
 97
        0
 97
        0
 92
        1
 93
        1
 72
     4
 94
        3
 73
     0
 74
     1
 95
       26
 96
       22
 40
0.0
 40
0.0
 40
0.0
 40
0.0
 40
1.0
 40
1.0
 40
1.0
 40
2.0
 40
2.0
 40
2.0
 40
3.0
 40
3.0
 40
3.0
 40
4.0
 40
4.0
 40
4.0
 40
5.0
 40
5.0
 40
5.0
 40
6.0
 40
6.0
 40
6.0
 40
7.0
 40
7.0
 40
7.0
 40
7.0
 10
701.3660278320312
 20
336.1760025024414
 10
703.8150024414062
 20
334.786003112793
 10
706.9630126953125
 20
335.6560020446777
 10
708.343017578125
 20
338.1170043945312
 10
708.343017578125
 20
338.1170043945312
 10
712.9410400390625
 20
346.2590045928955
 10
712.9410400390625
 20
346.2590045928955
 10
714.3400268554688
 20
348.709005355835
 10
713.4600219726562
 20
351.850004196167
 10
711.0210571289062
 20
353.2410049438477
 10
708.5730590820312
 20
354.6210041046143
 10
705.424072265625
 20
353.7510051727295
 10
704.0450439453125
 20
351.3000049591064
 10
704.0450439453125
 20
351.3000049591064
 10
699.4370727539062
 20
343.1580047607422
 10
699.4370727539062
 20
343.1580047607422
 10
698.0470581054688
 20
340.7070045471191
 10
698.9270629882812
 20
337.5670051574707
 10
701.3660888671875
 20
336.1760063171387
 10
701.3660888671875
 20
336.1760063171387
 10
701.3660278320312
 20
336.1760025024414
 10
701.3660278320312
 20
336.1760025024414
 97
        0
 97
        0
 92
        1
 93
        1
 72
     4
 94
        3
 73
     0
 74
     1
 95
       23
 96
       19
 40
0.0
 40
0.0
 40
0.0
 40
0.0
 40
1.0
 40
1.0
 40
1.0
 40
2.0
 40
2.0
 40
2.0
 40
3.0
 40
3.0
 40
3.0
 40
4.0
 40
4.0
 40
4.0
 40
5.0
 40
5.0
 40
5.0
 40
6.0
 40
6.0
 40
6.0
 40
6.0
 10
645.3740234375
 20
351.3950023651123
 10
648.1830444335938
 20
351.3950023651123
 10
650.4920043945312
 20
353.6960029602051
 10
650.4920043945312
 20
356.5160026550293
 10
650.4920043945312
 20
356.5160026550293
 10
650.4920043945312
 20
365.8689999580383
 10
650.4920043945312
 20
365.8689999580383
 10
650.4920043945312
 20
368.6889998912811
 10
648.1829833984375
 20
371.0
 10
645.3740234375
 20
371.0
 10
642.5560302734375
 20
371.0
 10
640.2470092773438
 20
368.6889998912811
 10
640.2470092773438
 20
365.8689999580383
 10
640.2470092773438
 20
365.8689999580383
 10
640.2470092773438
 20
356.5160007476807
 10
640.2470092773438
 20
356.5160007476807
 10
640.2470092773438
 20
353.6960010528564
 10
642.5560302734375
 20
351.3950004577637
 10
645.3740234375
 20
351.3950023651123
 97
        0
 97
        0
 75
     2
 76
     1
 98
        0
  0
ENDSEC
  0
SECTION
  2
OBJECTS
  0
DICTIONARY
  5
C
330
0
100
AcDbDictionary
281
     1
  3
ACAD_GROUP
350
D
  3
ACAD_LAYOUT
350
1A
  3
ACAD_MATERIAL
350
3B
  3
ACAD_MLEADERSTYLE
350
5E
  3
ACAD_MLINESTYLE
350
17
  3
ACAD_PLOTSETTINGS
350
19
  3
ACAD_PLOTSTYLENAME
350
E
  3
ACAD_TABLESTYLE
350
5D
  3
ACAD_VISUALSTYLE
350
2A
  0
SUN
  5
3F
330
29
100
AcDbSun
 90
        1
290
     0
 63
     7
421
 16777215
 40
1.0
291
     1
 91
  2455826
 92
 54000000
292
     0
 70
     2
 71
   256
280
     1
  0
DICTIONARY
  5
D
102
{ACAD_REACTORS
330
C
102
}
330
C
100
AcDbDictionary
281
     1
  0
DICTIONARY
  5
1A
102
{ACAD_REACTORS
330
C
102
}
330
C
100
AcDbDictionary
281
     1
  3
Layout1
350
1E
  3
Layout2
350
26
  3
Model
350
22
  0
DICTIONARY
  5
3B
102
{ACAD_REACTORS
330
C
102
}
330
C
100
AcDbDictionary
281
     1
  3
ByBlock
350
3D
  3
ByLayer
350
3C
  3
Global
350
3E
  0
DICTIONARY
  5
5E
102
{ACAD_REACTORS
330
C
102
}
330
C
100
AcDbDictionary
281
     1
  0
DICTIONARY
  5
17
102
{ACAD_REACTORS
330
C
102
}
330
C
100
AcDbDictionary
281
     1
  3
Standard
350
18
  0
DICTIONARY
  5
19
102
{ACAD_REACTORS
330
C
102
}
330
C
100
AcDbDictionary
281
     1
  0
ACDBDICTIONARYWDFLT
  5
E
102
{ACAD_REACTORS
330
C
102
}
330
C
100
AcDbDictionary
281
     1
  3
Normal
350
F
100
AcDbDictionaryWithDefault
340
F
  0
DICTIONARY
  5
5D
102
{ACAD_REACTORS
330
C
102
}
330
C
100
AcDbDictionary
281
     1
  0
DICTIONARY
  5
2A
102
{ACAD_REACTORS
330
C
102
}
330
C
100
AcDbDictionary
281
     1
  3
2dWireframe
350
2F
  3
3D Hidden
350
31
  3
3dWireframe
350
30
  3
Basic
350
32
  3
Brighten
350
36
  3
ColorChange
350
3A
  3
Conceptual
350
34
  3
Dim
350
35
  3
Facepattern
350
39
  3
Flat
350
2B
  3
FlatWithEdges
350
2C
  3
Gouraud
350
2D
  3
GouraudWithEdges
350
2E
  3
Linepattern
350
38
  3
Realistic
350
33
  3
Thicken
350
37
  0
LAYOUT
  5
1E
102
{ACAD_REACTORS
330
1A
102
}
330
1A
100
AcDbPlotSettings
  1

  2
none_device
  4

  6

 40
0.0
 41
0.0
 42
0.0
 43
0.0
 44
0.0
 45
0.0
 46
0.0
 47
0.0
 48
0.0
 49
0.0
140
0.0
141
0.0
142
1.0
143
1.0
 70
   688
 72
     0
 73
     0
 74
     5
  7

 75
    16
 76
     0
 77
     2
 78
   300
147
1.0
148
0.0
149
0.0
100
AcDbLayout
  1
Layout1
 70
     1
 71
     1
 10
0.0
 20
0.0
 11
12.0
 21
9.0
 12
0.0
 22
0.0
 32
0.0
 14
1.000000000000000E+20
 24
1.000000000000000E+20
 34
1.000000000000000E+20
 15
-1.000000000000000E+20
 25
-1.000000000000000E+20
 35
-1.000000000000000E+20
146
0.0
 13
0.0
 23
0.0
 33
0.0
 16
1.0
 26
0.0
 36
0.0
 17
0.0
 27
1.0
 37
0.0
 76
     0
330
1B
  0
LAYOUT
  5
26
102
{ACAD_REACTORS
330
1A
102
}
330
1A
100
AcDbPlotSettings
  1

  2
none_device
  4

  6

 40
0.0
 41
0.0
 42
0.0
 43
0.0
 44
0.0
 45
0.0
 46
0.0
 47
0.0
 48
0.0
 49
0.0
140
0.0
141
0.0
142
1.0
143
1.0
 70
   688
 72
     0
 73
     0
 74
     5
  7

 75
    16
 76
     0
 77
     2
 78
   300
147
1.0
148
0.0
149
0.0
100
AcDbLayout
  1
Layout2
 70
     1
 71
     2
 10
0.0
 20
0.0
 11
0.0
 21
0.0
 12
0.0
 22
0.0
 32
0.0
 14
0.0
 24
0.0
 34
0.0
 15
0.0
 25
0.0
 35
0.0
146
0.0
 13
0.0
 23
0.0
 33
0.0
 16
1.0
 26
0.0
 36
0.0
 17
0.0
 27
1.0
 37
0.0
 76
     0
330
23
  0
LAYOUT
  5
22
102
{ACAD_REACTORS
330
1A
102
}
330
1A
100
AcDbPlotSettings
  1

  2
none_device
  4

  6

 40
0.0
 41
0.0
 42
0.0
 43
0.0
 44
0.0
 45
0.0
 46
0.0
 47
0.0
 48
0.0
 49
0.0
140
0.0
141
0.0
142
1.0
143
1.0
 70
  1712
 72
     0
 73
     0
 74
     0
  7

 75
     0
 76
     0
 77
     2
 78
   300
147
1.0
148
0.0
149
0.0
100
AcDbLayout
  1
Model
 70
     1
 71
     0
 10
0.0
 20
0.0
 11
12.0
 21
9.0
 12
0.0
 22
0.0
 32
0.0
 14
1.000000000000000E+20
 24
1.000000000000000E+20
 34
1.000000000000000E+20
 15
-1.000000000000000E+20
 25
-1.000000000000000E+20
 35
-1.000000000000000E+20
146
0.0
 13
0.0
 23
0.0
 33
0.0
 16
1.0
 26
0.0
 36
0.0
 17
0.0
 27
1.0
 37
0.0
 76
     0
330
1F
331
29
  0
MATERIAL
  5
3D
102
{ACAD_REACTORS
330
3B
102
}
330
3B
100
AcDbMaterial
  1
ByBlock
 72
     1
 94
      127
  0
MATERIAL
  5
3C
102
{ACAD_REACTORS
330
3B
102
}
330
3B
100
AcDbMaterial
  1
ByLayer
 72
     1
 94
      127
  0
MATERIAL
  5
3E
102
{ACAD_REACTORS
330
3B
102
}
330
3B
100
AcDbMaterial
  1
Global
 72
     1
 94
      127
  0
MLINESTYLE
  5
18
102
{ACAD_REACTORS
330
17
102
}
330
17
100
AcDbMlineStyle
  2
Standard
 70
     0
  3

 62
   256
 51
90.0
 52
90.0
 71
     2
 49
0.5
 62
   256
  6
BYLAYER
 49
-0.5
 62
   256
  6
BYLAYER
  0
ACDBPLACEHOLDER
  5
F
102
{ACAD_REACTORS
330
E
102
}
330
E
  0
VISUALSTYLE
  5
2F
102
{ACAD_REACTORS
330
2A
102
}
330
2A
100
AcDbVisualStyle
  2
2dWireframe
 70
     4
177
     2
291
     0
 71
     0
176
     1
 72
     2
176
     1
 73
     0
176
     1
 90
        0
176
     1
 40
-0.6
176
     1
 41
-30.0
176
     1
 62
     5
 63
     7
421
 16777215
176
     1
 74
     1
176
     1
 91
        4
176
     1
 64
     7
176
     1
 65
   257
176
     1
 75
     1
176
     1
175
     1
176
     1
 42
1.0
176
     1
 92
        0
176
     1
 66
   257
176
     1
 43
1.0
176
     1
 76
     1
176
     1
 77
     6
176
     1
 78
     2
176
     1
 67
     7
176
     1
 79
     5
176
     1
170
     0
176
     1
171
     0
176
     1
290
     0
176
     1
 93
        1
176
     1
 44
0.0
176
     1
173
     0
176
     1
  0
VISUALSTYLE
  5
31
102
{ACAD_REACTORS
330
2A
102
}
330
2A
100
AcDbVisualStyle
  2
3D Hidden
 70
     6
177
     2
291
     0
 71
     1
176
     1
 72
     2
176
     1
 73
     2
176
     1
 90
        0
176
     1
 40
-0.6
176
     1
 41
-30.0
176
     1
 62
     5
 63
     7
421
 16777215
176
     1
 74
     2
176
     1
 91
        2
176
     1
 64
     7
176
     1
 65
   257
176
     1
 75
     2
176
     1
175
     1
176
     1
 42
40.0
176
     1
 92
        0
176
     1
 66
   257
176
     1
 43
1.0
176
     1
 76
     1
176
     1
 77
     6
176
     1
 78
     2
176
     1
 67
     7
176
     1
 79
     3
176
     1
170
     0
176
     1
171
     0
176
     1
290
     0
176
     1
 93
        1
176
     1
 44
0.0
176
     1
173
     0
176
     1
  0
VISUALSTYLE
  5
30
102
{ACAD_REACTORS
330
2A
102
}
330
2A
100
AcDbVisualStyle
  2
3dWireframe
 70
     5
177
     2
291
     0
 71
     0
176
     1
 72
     2
176
     1
 73
     0
176
     1
 90
        0
176
     1
 40
-0.6
176
     1
 41
-30.0
176
     1
 62
     5
 63
     7
421
 16777215
176
     1
 74
     1
176
     1
 91
        4
176
     1
 64
     7
176
     1
 65
   257
176
     1
 75
     1
176
     1
175
     1
176
     1
 42
1.0
176
     1
 92
        0
176
     1
 66
   257
176
     1
 43
1.0
176
     1
 76
     1
176
     1
 77
     6
176
     1
 78
     2
176
     1
 67
     7
176
     1
 79
     5
176
     1
170
     0
176
     1
171
     0
176
     1
290
     0
176
     1
 93
        1
176
     1
 44
0.0
176
     1
173
     0
176
     1
  0
VISUALSTYLE
  5
32
102
{ACAD_REACTORS
330
2A
102
}
330
2A
100
AcDbVisualStyle
  2
Basic
 70
     7
177
     2
291
     1
 71
     1
176
     1
 72
     0
176
     1
 73
     1
176
     1
 90
        0
176
     1
 40
-0.6
176
     1
 41
-30.0
176
     1
 62
     5
 63
     7
421
 16777215
176
     1
 74
     0
176
     1
 91
        4
176
     1
 64
     7
176
     1
 65
   257
176
     1
 75
     1
176
     1
175
     1
176
     1
 42
1.0
176
     1
 92
        8
176
     1
 66
     7
176
     1
 43
1.0
176
     1
 76
     1
176
     1
 77
     6
176
     1
 78
     2
176
     1
 67
     7
176
     1
 79
     5
176
     1
170
     0
176
     1
171
     0
176
     1
290
     0
176
     1
 93
        1
176
     1
 44
0.0
176
     1
173
     0
176
     1
  0
VISUALSTYLE
  5
36
102
{ACAD_REACTORS
330
2A
102
}
330
2A
100
AcDbVisualStyle
  2
Brighten
 70
    12
177
     2
291
     1
 71
     2
176
     1
 72
     2
176
     1
 73
     0
176
     1
 90
        0
176
     1
 40
-0.6
176
     1
 41
-30.0
176
     1
 62
     5
 63
     7
421
 16777215
176
     1
 74
     1
176
     1
 91
        4
176
     1
 64
     7
176
     1
 65
   257
176
     1
 75
     1
176
     1
175
     1
176
     1
 42
1.0
176
     1
 92
        8
176
     1
 66
     7
176
     1
 43
1.0
176
     1
 76
     1
176
     1
 77
     6
176
     1
 78
     2
176
     1
 67
     7
176
     1
 79
     5
176
     1
170
     0
176
     1
171
     0
176
     1
290
     0
176
     1
 93
        1
176
     1
 44
50.0
176
     1
173
     0
176
     1
  0
VISUALSTYLE
  5
3A
102
{ACAD_REACTORS
330
2A
102
}
330
2A
100
AcDbVisualStyle
  2
ColorChange
 70
    16
177
     2
291
     1
 71
     2
176
     1
 72
     2
176
     1
 73
     3
176
     1
 90
        0
176
     1
 40
-0.6
176
     1
 41
-30.0
176
     1
 62
     5
 63
     8
421
  8421504
176
     1
 74
     1
176
     1
 91
        4
176
     1
 64
     7
176
     1
 65
   257
176
     1
 75
     1
176
     1
175
     1
176
     1
 42
1.0
176
     1
 92
        8
176
     1
 66
     8
424
  8421504
176
     1
 43
1.0
176
     1
 76
     1
176
     1
 77
     6
176
     1
 78
     2
176
     1
 67
     7
176
     1
 79
     5
176
     1
170
     0
176
     1
171
     0
176
     1
290
     0
176
     1
 93
        1
176
     1
 44
0.0
176
     1
173
     0
176
     1
  0
VISUALSTYLE
  5
34
102
{ACAD_REACTORS
330
2A
102
}
330
2A
100
AcDbVisualStyle
  2
Conceptual
 70
     9
177
     2
291
     0
 71
     3
176
     1
 72
     2
176
     1
 73
     0
176
     1
 90
        0
176
     1
 40
-0.6
176
     1
 41
-30.0
176
     1
 62
     5
 63
     7
421
 16777215
176
     1
 74
     2
176
     1
 91
        2
176
     1
 64
     7
176
     1
 65
   257
176
     1
 75
     1
176
     1
175
     1
176
     1
 42
40.0
176
     1
 92
        8
176
     1
 66
     7
176
     1
 43
1.0
176
     1
 76
     1
176
     1
 77
     6
176
     1
 78
     2
176
     1
 67
     7
176
     1
 79
     3
176
     1
170
     0
176
     1
171
     0
176
     1
290
     0
176
     1
 93
        1
176
     1
 44
0.0
176
     1
173
     0
176
     1
  0
VISUALSTYLE
  5
35
102
{ACAD_REACTORS
330
2A
102
}
330
2A
100
AcDbVisualStyle
  2
Dim
 70
    11
177
     2
291
     1
 71
     2
176
     1
 72
     2
176
     1
 73
     0
176
     1
 90
        0
176
     1
 40
-0.6
176
     1
 41
-30.0
176
     1
 62
     5
 63
     7
421
 16777215
176
     1
 74
     1
176
     1
 91
        4
176
     1
 64
     7
176
     1
 65
   257
176
     1
 75
     1
176
     1
175
     1
176
     1
 42
1.0
176
     1
 92
        8
176
     1
 66
     7
176
     1
 43
1.0
176
     1
 76
     1
176
     1
 77
     6
176
     1
 78
     2
176
     1
 67
     7
176
     1
 79
     5
176
     1
170
     0
176
     1
171
     0
176
     1
290
     0
176
     1
 93
        1
176
     1
 44
-50.0
176
     1
173
     0
176
     1
  0
VISUALSTYLE
  5
39
102
{ACAD_REACTORS
330
2A
102
}
330
2A
100
AcDbVisualStyle
  2
Facepattern
 70
    15
177
     2
291
     1
 71
     2
176
     1
 72
     2
176
     1
 73
     0
176
     1
 90
        0
176
     1
 40
-0.6
176
     1
 41
-30.0
176
     1
 62
     5
 63
     7
421
 16777215
176
     1
 74
     1
176
     1
 91
        4
176
     1
 64
     7
176
     1
 65
   257
176
     1
 75
     1
176
     1
175
     1
176
     1
 42
1.0
176
     1
 92
        8
176
     1
 66
     7
176
     1
 43
1.0
176
     1
 76
     1
176
     1
 77
     6
176
     1
 78
     2
176
     1
 67
     7
176
     1
 79
     5
176
     1
170
     0
176
     1
171
     0
176
     1
290
     0
176
     1
 93
        1
176
     1
 44
0.0
176
     1
173
     0
176
     1
  0
VISUALSTYLE
  5
2B
102
{ACAD_REACTORS
330
2A
102
}
330
2A
100
AcDbVisualStyle
  2
Flat
 70
     0
177
     2
291
     1
 71
     2
176
     1
 72
     1
176
     1
 73
     1
176
     1
 90
        2
176
     1
 40
-0.6
176
     1
 41
30.0
176
     1
 62
     5
 63
     7
421
 16777215
176
     1
 74
     0
176
     1
 91
        4
176
     1
 64
     7
176
     1
 65
   257
176
     1
 75
     1
176
     1
175
     1
176
     1
 42
1.0
176
     1
 92
        8
176
     1
 66
     7
176
     1
 43
1.0
176
     1
 76
     1
176
     1
 77
     6
176
     1
 78
     2
176
     1
 67
     7
176
     1
 79
     5
176
     1
170
     0
176
     1
171
     0
176
     1
290
     0
176
     1
 93
       13
176
     1
 44
0.0
176
     1
173
     0
176
     1
  0
VISUALSTYLE
  5
2C
102
{ACAD_REACTORS
330
2A
102
}
330
2A
100
AcDbVisualStyle
  2
FlatWithEdges
 70
     1
177
     2
291
     1
 71
     2
176
     1
 72
     1
176
     1
 73
     1
176
     1
 90
        2
176
     1
 40
-0.6
176
     1
 41
30.0
176
     1
 62
     5
 63
     7
421
 16777215
176
     1
 74
     1
176
     1
 91
        4
176
     1
 64
     7
176
     1
 65
   257
176
     1
 75
     1
176
     1
175
     1
176
     1
 42
1.0
176
     1
 92
        0
176
     1
 66
   257
176
     1
 43
1.0
176
     1
 76
     1
176
     1
 77
     6
176
     1
 78
     2
176
     1
 67
     7
176
     1
 79
     5
176
     1
170
     0
176
     1
171
     0
176
     1
290
     0
176
     1
 93
       13
176
     1
 44
0.0
176
     1
173
     0
176
     1
  0
VISUALSTYLE
  5
2D
102
{ACAD_REACTORS
330
2A
102
}
330
2A
100
AcDbVisualStyle
  2
Gouraud
 70
     2
177
     2
291
     1
 71
     2
176
     1
 72
     2
176
     1
 73
     1
176
     1
 90
        2
176
     1
 40
-0.6
176
     1
 41
30.0
176
     1
 62
     5
 63
     7
421
 16777215
176
     1
 74
     0
176
     1
 91
        4
176
     1
 64
     7
176
     1
 65
   257
176
     1
 75
     1
176
     1
175
     1
176
     1
 42
1.0
176
     1
 92
        0
176
     1
 66
     7
176
     1
 43
1.0
176
     1
 76
     1
176
     1
 77
     6
176
     1
 78
     2
176
     1
 67
     7
176
     1
 79
     5
176
     1
170
     0
176
     1
171
     0
176
     1
290
     0
176
     1
 93
       13
176
     1
 44
0.0
176
     1
173
     0
176
     1
  0
VISUALSTYLE
  5
2E
102
{ACAD_REACTORS
330
2A
102
}
330
2A
100
AcDbVisualStyle
  2
GouraudWithEdges
 70
     3
177
     2
291
     1
 71
     2
176
     1
 72
     2
176
     1
 73
     1
176
     1
 90
        2
176
     1
 40
-0.6
176
     1
 41
30.0
176
     1
 62
     5
 63
     7
421
 16777215
176
     1
 74
     1
176
     1
 91
        4
176
     1
 64
     7
176
     1
 65
   257
176
     1
 75
     1
176
     1
175
     1
176
     1
 42
1.0
176
     1
 92
        0
176
     1
 66
   257
176
     1
 43
1.0
176
     1
 76
     1
176
     1
 77
     6
176
     1
 78
     2
176
     1
 67
     7
176
     1
 79
     5
176
     1
170
     0
176
     1
171
     0
176
     1
290
     0
176
     1
 93
       13
176
     1
 44
0.0
176
     1
173
     0
176
     1
  0
VISUALSTYLE
  5
38
102
{ACAD_REACTORS
330
2A
102
}
330
2A
100
AcDbVisualStyle
  2
Linepattern
 70
    14
177
     2
291
     1
 71
     2
176
     1
 72
     2
176
     1
 73
     0
176
     1
 90
        0
176
     1
 40
-0.6
176
     1
 41
-30.0
176
     1
 62
     5
 63
     7
421
 16777215
176
     1
 74
     1
176
     1
 91
        4
176
     1
 64
     7
176
     1
 65
   257
176
     1
 75
     7
176
     1
175
     7
176
     1
 42
1.0
176
     1
 92
        8
176
     1
 66
     7
176
     1
 43
1.0
176
     1
 76
     1
176
     1
 77
     6
176
     1
 78
     2
176
     1
 67
     7
176
     1
 79
     5
176
     1
170
     0
176
     1
171
     0
176
     1
290
     0
176
     1
 93
        1
176
     1
 44
0.0
176
     1
173
     0
176
     1
  0
VISUALSTYLE
  5
33
102
{ACAD_REACTORS
330
2A
102
}
330
2A
100
AcDbVisualStyle
  2
Realistic
 70
     8
177
     2
291
     0
 71
     2
176
     1
 72
     2
176
     1
 73
     0
176
     1
 90
        0
176
     1
 40
-0.6
176
     1
 41
-30.0
176
     1
 62
     5
 63
     7
421
 16777215
176
     1
 74
     1
176
     1
 91
        0
176
     1
 64
     7
176
     1
 65
   257
176
     1
 75
     1
176
     1
175
     1
176
     1
 42
1.0
176
     1
 92
        8
176
     1
 66
     8
424
  7895160
176
     1
 43
1.0
176
     1
 76
     1
176
     1
 77
     6
176
     1
 78
     2
176
     1
 67
     7
176
     1
 79
     5
176
     1
170
     0
176
     1
171
     0
176
     1
290
     0
176
     1
 93
       13
176
     1
 44
0.0
176
     1
173
     0
176
     1
  0
VISUALSTYLE
  5
37
102
{ACAD_REACTORS
330
2A
102
}
330
2A
100
AcDbVisualStyle
  2
Thicken
 70
    13
177
     2
291
     1
 71
     2
176
     1
 72
     2
176
     1
 73
     0
176
     1
 90
        0
176
     1
 40
-0.6
176
     1
 41
-30.0
176
     1
 62
     5
 63
     7
421
 16777215
176
     1
 74
     1
176
     1
 91
        4
176
     1
 64
     7
176
     1
 65
   257
176
     1
 75
     1
176
     1
175
     1
176
     1
 42
1.0
176
     1
 92
       12
176
     1
 66
     7
176
     1
 43
1.0
176
     1
 76
     1
176
     1
 77
     6
176
     1
 78
     2
176
     1
 67
     7
176
     1
 79
     5
176
     1
170
     0
176
     1
171
     0
176
     1
290
     0
176
     1
 93
        1
176
     1
 44
0.0
176
     1
173
     0
176
     1
  0
ENDSEC
  0
EOF
