<svg viewBox="0 0 778 371" xmlns="http://www.w3.org/2000/svg" fill-rule="evenodd" clip-rule="evenodd" stroke-linejoin="round" stroke-miterlimit="1.414"><path d="M325.934 223.383c-10.995 0-17.062 3.051-25.029 3.051-4.928 0-7.197-.76-10.995-.76-16.303 0-24.269 8.732-24.269 25.426v92.583c0 14.804 4.938 27.317 20.861 27.317 9.475 0 16.682-4.741 18.951-11.003 4.938-13.083 4.558-19.725 17.832-19.725 21.991 0 52.697-9.872 52.697-59.955 0-35.679-20.851-56.934-50.048-56.934zm120.562-10.686c-10.985 0-17.062 3.041-25.029 3.041-4.928 0-7.197-.76-10.985-.76-16.303 0-24.279 8.732-24.279 25.426v92.593c0 14.794 4.928 27.307 20.86 27.307 9.476 0 16.693-4.731 18.952-10.992 4.938-13.094 4.558-19.735 17.842-19.735 21.991 0 52.687-9.863 52.687-59.945 0-35.679-20.851-56.935-50.048-56.935zm108.103 31.299c-28.437 0-52.716 22.386-52.716 58.065 0 28.447 17.822 55.784 55.745 55.784 20.851 0 44.75-11.773 44.75-28.848 0-6.441-1.899-6.821-1.899-12.523 0-1.13-.769-3.04 1.899-7.211 4.918-7.962 5.298-12.134 5.298-16.685 0-23.906-18.192-48.582-53.077-48.582zm127.761-11.945c-12.135 0-17.442 3.031-25.779 3.031-11.375 0-9.485-.75-16.682-.75-15.553 0-23.52 9.102-23.52 26.176v58.435c0 16.684 4.548 28.837 22 28.837 13.654 0 22.371-10.242 22.371-26.176v-24.667c0-9.862 1.139-20.115 7.206-20.115 3.029 0 7.567 1.901 7.567 20.115v24.667c0 17.454 8.726 26.176 22.77 26.176 12.505 0 21.611-8.342 21.611-25.416v-41.751c0-26.176-7.207-48.562-37.544-48.562zm-581.194-4.864c-19.211 0-16.512-1.14-21.51-15.944-2.689-8.352-5.758-15.554-20.361-15.554-21.131 0-20.361 21.255-20.361 33.388v86.142c0 14.784 7.676 24.666 22.67 24.666 11.515 0 19.581-10.252 19.581-24.666v-26.947c0-12.903 3.079-19.345 9.226-19.345 5.768 0 8.836 5.682 8.836 17.455v28.837c0 16.314 6.917 24.666 21.901 24.666 14.593 0 20.361-9.122 20.361-35.679v-28.457c0-34.909-13.834-48.562-40.343-48.562zm100.804-9.705c-21.99 0-43.981 10.632-43.981 28.447 0 9.502 6.068 14.053 6.447 18.984 0 1.511-.949 4.181-3.038 7.212l-7.587 11.003c-1.889 3.421-3.408 10.633-3.408 18.585 0 18.984 17.062 34.538 39.062 34.538 8.717 0 19.712-4.361 28.048-3.791l14.794 1.141c14.793 1.12 22-7.602 22-22.396v-42.111c0-38.709-13.664-51.612-52.337-51.612zm356.808 105.454c-2.289 0-6.837-.76-6.837-4.941 0-1.141 1.889-4.171 7.206-4.171 2.649 0 6.817 1.14 6.817 3.791 0 4.171-4.548 5.321-7.186 5.321zm-359.457-14.762c-3.788 0-8.726-1.9-8.726-9.102 0-2.291 3.418-9.112 12.135-9.112 6.447 0 7.586 4.931 7.586 7.201 0 5.702-4.938 11.013-10.995 11.013zm121.685-5.851c-7.586 0-12.514-7.592-12.514-22.006 0-11.383 5.687-18.984 13.274-18.984 7.587 0 12.515 9.492 12.515 20.875 0 13.653-6.827 20.115-13.275 20.115zm120.562-10.696c-7.586 0-12.524-7.592-12.524-21.995 0-11.393 5.697-18.985 13.284-18.985 7.577 0 12.514 9.492 12.514 20.865 0 13.663-6.817 20.115-13.274 20.115zm114.921-5.5c-3.409 0-9.106-1.901-9.106-7.602 0-3.411 3.428-7.582 9.485-7.582 4.169 0 9.476 2.28 9.476 7.582 0 6.081-4.548 7.602-9.855 7.602zm21.972-53.48l4.088-4.471c1.979-2.16 1.829-5.561-.34-7.552l-11.775-10.782c-2.169-1.991-5.547-1.831-7.546.34l-4.078 4.461c-1.99 2.17-1.83 5.571.329 7.552l11.775 10.782c2.169 1.981 5.568 1.841 7.547-.33zm67.793-197.892c-52.117 0-94.358 42.28-94.358 94.433 0 21.106 7.007 40.531 18.701 56.264l-5.827 6.362c-1.989 2.171-1.839 5.571.33 7.552l26.828 24.586c2.169 1.971 5.568 1.831 7.547-.34l6.207-6.782c.53-.57.88-1.24 1.119-1.94 12.015 5.551 25.359 8.742 39.453 8.742 52.137 0 94.378-42.291 94.378-94.444 0-52.153-42.241-94.433-94.378-94.433zm113.611 155.479l-8.256-4.391c-2.489-1.321-5.598-.371-6.917 2.12-1.33 2.491-.37 5.602 2.109 6.922l8.256 4.381c2.489 1.34 5.608.37 6.927-2.111 1.319-2.49.37-5.601-2.119-6.921zm-344.213 6.105c12.514 0 18.582-6.831 18.582-16.694 0-6.071-4.548-14.424-10.236-23.906-10.225-17.454-12.514-18.975-12.514-26.567 0-5.311 2.289-7.962 7.216-14.413 6.807-9.113 10.226-13.284 10.226-20.875 0-8.723-8.716-13.654-21.231-13.654-18.951 0-20.481 9.102-30.336 9.102-4.169 0-5.308-14.413-5.308-20.485 0-12.523-9.106-22.385-22.37-22.385-17.073 0-23.52 11.383-23.52 25.796v94.104c0 16.314 4.178 29.977 23.13 29.977 11.385 0 17.452-6.831 19.721-10.622 4.548-7.972 4.548-10.253 8.347-10.253 4.168 0 8.716 7.212 13.654 12.143 7.196 6.832 12.884 8.732 24.639 8.732zM43.871 11.228c10.965 0 26.668 2.5 32.395 23.946l7.477 27.937c6.237 23.446 9.486 35.409 16.453 35.409 9.476 0 13.954-25.437 23.929-62.846 3.988-14.964 13.964-24.446 33.396-24.446h14.463c26.419 0 28.907 18.955 28.907 37.419v110.238c0 22.445-7.976 33.918-24.919 33.918-12.964 0-20.191-6.981-23.929-20.945-1.749-5.991-1.989-29.937-8.476-29.937-3.979 0-5.478 4.991-15.453 30.427-5.478 13.974-14.954 20.955-27.918 20.955-12.455 0-23.18-7.481-28.408-21.445-9.216-23.946-12.964-32.428-16.442-32.428-2.999 0-5.988 5.481-7.987 30.928-1.499 16.464-14.454 22.445-22.93 22.445-21.93 0-24.429-16.464-24.429-41.4V47.147c0-23.946 6.487-35.919 29.417-35.919h14.454zm205.723 170.607c8.716 0 19.721-4.362 28.058-3.791l14.793 1.14c14.784 1.13 21.99-7.592 21.99-22.396v-42.12c0-38.7-13.654-51.603-52.327-51.603-22 0-43.99 10.632-43.99 28.457 0 9.492 6.077 14.043 6.447 18.975 0 1.52-.95 4.171-3.039 7.212l-7.576 11.002c-1.89 3.411-3.419 10.623-3.419 18.595 0 18.975 17.073 34.529 39.063 34.529zm243.591-2.468c20.85 0 44.74-11.763 44.74-28.837 0-6.452-1.889-6.832-1.889-12.523 0-1.141-.76-3.031 1.889-7.202 4.938-7.972 5.307-12.143 5.307-16.704 0-23.906-18.202-48.573-53.096-48.573-28.428 0-52.697 22.396-52.697 58.065 0 28.457 17.822 55.774 55.746 55.774zm144.603-22.452c0 7.792-4.288 13.934-12.275 13.934-5.737 0-13.014-2.861-12.904-14.344l.2-33.608c0-6.972 2.039-8.812 2.039-13.123 0-3.891-1.23-4.712-1.23-9.423 0-5.331 4.708-11.073 11.485-11.073 6.537 0 11.675 4.722 11.675 11.273 0 4.511-1.229 4.921-1.229 7.992 0 1.641.41 3.691 1.009 5.952 1.03 4.101 1.23 6.961 1.23 10.242v32.178zm30.516 13.324c-7.576 0-18.222-4.301-19.031-18.245 0-.61-.63-17.624-.82-21.315 0-.82-.42-2.051-1.229-3.681-.41-.42-.63-1.441-3.089-5.131-.61-1.431-1.02-2.661-1.02-3.891 0-6.352 3.289-8.813 4.708-11.683.21-.611 1.23-4.922 2.669-7.172 2.869-4.511 6.547-5.742 9.416-5.742 10.445 0 11.065 7.382 13.934 13.324 1.229 2.46 2.659 3.281 3.688 4.711 1.02 1.44 2.039 2.671 2.039 4.921 0 3.891-1.839 6.562-4.498 9.633-2.259 2.46-2.858 5.531-2.858 8.812 0 5.941.299 7.582.399 9.222.51 5.742 8.187 9.432 8.187 15.984 0 5.742-3.269 10.253-12.495 10.253zm-405.436-34.696c6.447 0 7.577 4.931 7.577 7.212 0 5.691-4.928 11.003-10.995 11.003-3.789 0-8.717-1.901-8.717-9.113 0-2.27 3.409-9.102 12.135-9.102zm231.446 8.915c-2.269 0-6.817-.76-6.817-4.931 0-1.14 1.889-4.171 7.207-4.171 2.649 0 6.817 1.13 6.817 3.791 0 4.171-4.548 5.311-7.207 5.311zm278.436-18.419l-9.346.25c-2.818.07-5.047 2.43-4.987 5.251.08 2.821 2.448 5.061 5.267 4.981l9.336-.24c2.819-.07 5.058-2.44 4.978-5.251-.06-2.821-2.429-5.061-5.248-4.991zM492.425 92.475c4.178 0 9.476 2.281 9.476 7.592 0 6.072-4.548 7.582-9.856 7.582-3.408 0-9.106-1.89-9.106-7.582 0-3.421 3.419-7.592 9.486-7.592zm257.22-15.053l8.017-4.821c2.409-1.45 3.198-4.611 1.749-7.032-1.449-2.41-4.608-3.2-7.027-1.75l-8.016 4.821c-2.419 1.451-3.199 4.611-1.749 7.032 1.449 2.411 4.607 3.201 7.026 1.75zm-48.279-42.598c2.449 1.39 5.597.52 6.977-1.941l4.598-8.142c1.399-2.45.519-5.591-1.92-6.982-2.448-1.38-5.597-.51-6.976 1.941l-4.608 8.142c-1.39 2.451-.51 5.591 1.929 6.982zm-55.992-15.219c2.809 0 5.118-2.301 5.118-5.121V5.131c0-2.82-2.309-5.131-5.118-5.131-2.818 0-5.127 2.311-5.127 5.131v9.353c0 2.82 2.309 5.121 5.127 5.121z" fill="#2c3b50"/></svg>